<svg width="38" height="23" viewBox="0 0 38 23" fill="none" xmlns="http://www.w3.org/2000/svg">
<g clip-path="url(#clip0_392_163)">
<path d="M11.14 20.6201C10.28 20.9501 9.35005 21.1201 8.37005 21.1201C4.05005 21.1201 0.550049 17.6201 0.550049 13.3001C0.550049 12.4401 0.690049 11.6201 0.940049 10.8501" stroke="black" stroke-miterlimit="10" stroke-linecap="round"></path>
<path d="M10.0499 19.1701C9.50995 19.3101 8.95995 19.4001 8.36995 19.4001C4.88995 19.4001 2.06995 16.5701 2.06995 13.1001" stroke="black" stroke-miterlimit="10" stroke-linecap="round"></path>
<path d="M9.27005 16.14C8.97005 16.17 8.68005 16.19 8.37005 16.19C4.05005 16.19 0.550049 12.68 0.550049 8.36004C0.550049 4.04004 4.05005 0.540039 8.38005 0.540039C11.16 0.540039 13.61 1.99004 14.99 4.18004" stroke="black" stroke-miterlimit="10" stroke-linecap="round"></path>
<path d="M29.53 2.95998C27.66 2.00998 25.54 1.47998 23.3 1.47998C15.67 1.47998 9.47998 7.66998 9.47998 15.3V16.61C9.47998 19.5 11.82 21.84 14.71 21.84H31.9C34.79 21.84 37.13 19.5 37.13 16.61V15.3C37.13 13.38 36.74 11.54 36.02 9.87998" stroke="black" stroke-miterlimit="10" stroke-linecap="round"></path>
<path d="M13.63 5.62C15.14 6.07 18.95 6.39 23.4 6.39C25.22 6.39 26.93 6.34 28.42 6.24" stroke="black" stroke-miterlimit="10"></path>
<path d="M23.3 19.7601C23.7 19.7601 24.02 19.4401 24.02 19.0401C24.02 18.6401 23.7 18.3201 23.3 18.3201C22.9 18.3201 22.58 18.6401 22.58 19.0401C22.58 19.4401 22.9 19.7601 23.3 19.7601Z" stroke="black" stroke-miterlimit="10"></path>
<path d="M37.51 6.00002C37.51 8.48002 35.51 10.49 33.02 10.49C30.53 10.49 28.53 8.49002 28.53 6.00002C28.53 3.51002 30.54 1.52002 33.02 1.52002C35.5 1.52002 37.51 3.52002 37.51 6.01002V6.00002Z" stroke="black" stroke-miterlimit="10" stroke-linecap="round"></path>
<path d="M33.02 3.67004V8.20004" stroke="black" stroke-miterlimit="10" stroke-linecap="round"></path>
<path d="M30.76 5.94006H35.29" stroke="black" stroke-miterlimit="10" stroke-linecap="round"></path>
<path d="M9.28003 15.2101C11.42 16.0801 16.81 16.6801 23.1 16.6801C29.39 16.6801 34.78 16.0701 36.92 15.2101" stroke="black" stroke-miterlimit="10"></path>
</g>
<defs>
<clipPath id="clip0_392_163">
<rect width="38" height="22.33" fill="white"></rect>
</clipPath>
</defs>
</svg>
