<svg width="38" height="22" viewBox="0 0 38 22" fill="none" xmlns="http://www.w3.org/2000/svg">
<path d="M13.0113 0.280878C13.676 0.472406 13.8733 0.870545 13.8843 1.53289C13.8957 2.21398 13.8912 2.91518 13.8912 3.60587L13.8902 7.5251V10.5329C13.8902 11.1244 13.9031 11.7415 13.8696 12.3329C13.8462 12.7439 13.782 12.9816 13.4824 13.2718C13.231 13.515 12.6388 13.6055 12.5282 13.7056L12.5255 13.7413C12.6255 13.7971 13.4554 13.7632 13.6411 13.7632L15.7105 13.7683C16.572 13.7687 17.8583 13.8053 18.6946 13.7477C19.2034 13.7143 19.707 13.6266 20.197 13.4862C20.7901 13.3208 21.3415 13.0853 21.8471 12.7302C22.1686 12.4824 22.4732 12.2301 22.7315 11.9179C23.5416 10.9388 24.06 9.47009 24.1949 8.21533C24.4096 6.21732 24.2114 3.94184 22.9191 2.31089C21.842 0.951454 20.1773 0.327503 18.5024 0.119062C17.0762 -0.0582948 15.5477 0.0408973 14.1026 0.013928C13.7783 0.00798564 12.6475 -0.00892736 12.3925 0.0299267C12.5145 0.172544 12.8237 0.226025 13.0113 0.279964V0.280878ZM20.5897 1.70294C21.7292 2.63543 22.2416 4.25085 22.3503 5.67931C22.5127 7.80394 22.3856 10.1123 20.9539 11.8132C20.9282 11.8416 20.9021 11.8694 20.8755 11.8964C19.952 12.839 18.8676 13.244 17.5757 13.2325C16.7486 13.2252 15.6101 13.2782 15.55 12.2296C15.5252 11.7954 15.5238 11.3205 15.5238 10.8857L15.5266 8.62764L15.5206 0.584397C17.3175 0.581654 19.0942 0.479262 20.5897 1.70294Z" fill="#737373"></path>
<path d="M0.985879 0.123027C1.67307 0.304498 2.40522 0.506539 2.46256 1.3435C2.51577 2.12607 2.49559 2.90955 2.49559 3.69623L2.49421 7.43764V10.6209C2.49421 11.2961 2.57954 12.2789 2.34145 12.9078C2.12218 13.4879 1.38911 13.5181 0.897801 13.7297C1.32947 13.8015 1.74372 13.7745 2.18135 13.7704L3.60528 13.7663L5.90952 13.7722C7.93302 13.7832 9.80284 13.7603 10.9235 11.7431C11.8084 9.89916 11.3662 7.72242 9.41108 6.82375C8.66838 6.48229 8.07477 6.37579 7.28803 6.22723C7.92476 6.06038 8.42846 5.94062 9.00509 5.61242C10.157 4.96333 10.6955 3.74194 10.5322 2.44376C10.3396 0.911078 8.95417 0.294899 7.57521 0.107028C6.82242 0.00463633 6.18523 0.016521 5.43106 0.0169781H3.1915L1.73729 0.0114929C1.51572 0.0110358 1.09735 -0.000391858 0.895508 0.0302343C0.916151 0.0828015 0.922573 0.106571 0.986338 0.123484L0.985879 0.123027ZM4.19201 0.501968C5.41225 0.499683 7.19078 0.337867 8.09771 1.20226C8.61838 1.69867 8.76288 2.39119 8.77527 3.08142C8.79132 3.981 8.61241 4.64427 7.98669 5.29976C6.90545 6.25785 5.57097 6.09192 4.18879 6.06587L4.19201 0.501968ZM4.19063 10.5565L4.19155 6.59611C5.62052 6.63177 7.35868 6.42241 8.50966 7.4509C9.76018 8.56898 9.67944 11.1955 8.59269 12.3986L8.57801 12.4142C7.98991 13.0244 7.24904 13.2562 6.4045 13.2539C5.81365 13.2525 4.33788 13.3348 4.22916 12.4841C4.15622 11.9123 4.19201 11.148 4.19109 10.5565H4.19063Z" fill="#737373"></path>
<path d="M23.4727 13.7169C23.5081 13.7571 23.5723 13.7754 23.6251 13.7717C24.131 13.7374 24.8036 13.7868 25.2907 13.7237C25.8499 13.651 27.139 13.8659 27.6124 13.7351L27.6147 13.7031C27.2041 13.475 26.1807 13.4408 25.9908 12.9C25.8811 12.5883 26.2399 11.7792 26.3596 11.4688L27.0578 9.66049C27.1596 9.39628 27.3381 8.97986 27.4138 8.72296C28.2083 8.69462 29.0386 8.71336 29.8359 8.71291L32.0296 8.70879C32.1314 9.07082 32.303 9.47764 32.4416 9.83373L33.0916 11.5035C33.2755 11.9789 33.6095 12.5832 33.3934 13.0687C33.232 13.4321 32.1801 13.5239 32.1204 13.7205C32.2062 13.7909 32.5182 13.7795 32.6319 13.7735C33.904 13.7054 35.1678 13.7009 36.4404 13.7676C36.578 13.7749 36.7432 13.7726 36.8808 13.7598C36.8959 13.7584 36.9111 13.7566 36.9266 13.7548L36.9555 13.7155C36.7803 13.4216 35.7592 13.6236 35.2972 12.5416C35.027 11.909 34.6495 10.8901 34.3981 10.241L31.5264 2.85737L30.7772 0.937068C30.713 0.771139 30.4745 0.0722228 30.3607 0L30.2947 0.00411396C30.2047 0.00594239 30.1034 -0.0031997 30.0323 0.0475391C29.8731 0.289806 29.6561 0.931126 29.5387 1.23922L28.8739 2.95336L26.4486 9.22898L25.6325 11.3266C25.4022 11.9222 25.2747 12.4004 24.893 12.9434C24.5645 13.4106 23.5783 13.5281 23.4723 13.7182L23.4727 13.7169ZM27.8487 7.5418C28.4244 5.9465 29.0987 4.35942 29.6685 2.76458C29.7611 2.824 31.6282 7.70544 31.8369 8.23843C31.1488 8.23112 30.4607 8.22883 29.7722 8.23249C29.0487 8.23157 28.2978 8.22106 27.5771 8.23797C27.673 8.02679 27.7693 7.76121 27.8482 7.5418H27.8487Z" fill="#737373"></path>
<path d="M5.33422 16.1105L16.2407 16.1127L29.6561 16.1118C32.2324 16.1118 34.861 16.1351 37.4331 16.1031L37.429 15.7416L0 15.7434C0.00366991 15.8563 0.00367 15.9962 0.0151385 16.1063C1.75284 16.1415 3.58826 16.1095 5.33422 16.1105Z" fill="#737373"></path>
<path d="M0.0114925 21.6344C0.00828133 21.745 0.000941524 21.8799 0.00828135 21.9882L24.8926 21.9869L33.0228 21.9878C34.4385 21.9878 36.028 22.0234 37.4276 21.9727C37.4276 21.8616 37.4295 21.7432 37.4262 21.6331L0.0114925 21.6344Z" fill="#737373"></path>
<path d="M12.1253 19.6858C12.3757 19.412 12.4184 19.2502 12.4285 18.8881C12.4657 17.5685 11.5509 17.6585 10.5752 17.6613C10.6018 18.3908 10.5835 19.2168 10.5793 19.9527C11.128 19.971 11.6886 20.0592 12.1248 19.6858H12.1253ZM11.8432 18.1252C12.1923 18.4694 12.1725 19.1693 11.8459 19.5185C11.533 19.7402 11.2798 19.7132 10.9082 19.7246C10.9082 19.119 10.9041 18.5138 10.8954 17.9081C11.239 17.9049 11.5762 17.8619 11.8427 18.1252H11.8432Z" fill="#737373"></path>
<path d="M2.12993 18.5523C2.64234 17.7647 1.76294 17.6646 1.23906 17.6545C1.1308 17.6523 1.02254 17.6523 0.914733 17.6545C0.913356 18.3196 0.880327 19.3321 0.92299 19.9753C1.43081 19.9753 2.03681 20.0781 2.36572 19.627C2.56023 19.1488 2.39875 18.918 1.94781 18.7324C1.99919 18.6867 2.09415 18.6072 2.12993 18.5528V18.5523ZM1.99415 19.6032C1.7845 19.7353 1.49366 19.7275 1.24365 19.7431L1.23585 18.8709C1.70422 18.8901 2.40885 18.9148 1.99415 19.6032ZM1.79597 18.5582C1.63128 18.6437 1.42714 18.6414 1.2409 18.6538C1.23447 18.3932 1.24594 18.1395 1.25512 17.8794C1.67899 17.9078 2.21801 18.0477 1.79597 18.5587V18.5582Z" fill="#737373"></path>
<path d="M30.8952 18.3464C30.7924 18.3084 30.6658 18.4122 30.5947 18.3966C30.3649 18.3464 30.2951 18.292 30.0502 18.318C29.3089 18.6183 29.307 19.725 29.9479 19.9659C30.097 20.0203 30.2617 20.0134 30.4057 19.9471C30.5016 19.9024 30.575 19.8512 30.6576 19.7872C30.7053 19.8246 30.7245 19.864 30.7521 19.9156C30.8612 19.9654 30.8883 19.9819 31.0067 19.9846L31.0773 19.9522C31.1181 19.8274 31.0645 19.7995 30.9727 19.7145C30.9727 19.4946 31.0002 18.4542 30.8952 18.3464ZM30.647 19.5038C30.5309 19.6276 30.4552 19.6724 30.3112 19.7501C29.724 19.8242 29.6176 18.8862 30.1062 18.5617C30.1383 18.5589 30.1699 18.5566 30.202 18.5553C30.4222 18.5466 30.4741 18.5882 30.6273 18.7303C30.6576 18.9763 30.652 19.2551 30.647 19.5038Z" fill="#737373"></path>
<path d="M18.7578 18.3469C18.5945 18.3063 18.5042 18.4123 18.4748 18.4059C18.2399 18.3552 18.1266 18.288 17.8647 18.3191C16.8316 18.9151 17.5 20.4647 18.3872 19.8682C18.4253 19.8426 18.4624 19.8152 18.4977 19.7859C18.5973 19.9235 18.7299 20.0104 18.9042 19.9582C18.9583 19.8952 18.9468 19.9276 18.94 19.8321C18.8881 19.7516 18.8748 19.7411 18.8001 19.6808C18.8001 19.4728 18.8216 18.474 18.7583 18.3465L18.7578 18.3469ZM18.501 19.4879C18.372 19.6259 18.3257 19.6611 18.1665 19.7589C17.5706 19.79 17.4596 18.8891 17.9826 18.5586C18.6413 18.5078 18.5175 19.0116 18.501 19.4879Z" fill="#737373"></path>
<path d="M26.5206 18.3612C26.3582 18.2945 26.1793 18.2963 26.0086 18.3187C25.0884 18.6802 25.2476 20.1553 26.3977 19.9867C26.9124 19.7814 27.1174 19.274 26.9192 18.7689C26.8486 18.5838 26.7046 18.4362 26.5206 18.3607V18.3612ZM26.3036 19.78C26.2899 19.781 26.2761 19.781 26.2623 19.7814C26.0375 19.7828 25.9614 19.711 25.816 19.5657C25.6944 19.1598 25.6472 18.7703 26.0853 18.5568C26.8165 18.4837 26.8596 19.4921 26.3036 19.78Z" fill="#737373"></path>
<path d="M33.8636 18.3201C32.9558 18.636 33.0985 20.1463 34.2283 19.989C34.2756 19.9717 34.3224 19.9525 34.3687 19.9346C34.9935 19.6933 34.9995 18.5875 34.3605 18.3535C34.1889 18.2909 34.038 18.3037 33.8636 18.3201ZM34.0944 19.7906C33.8682 19.7458 33.7398 19.686 33.6444 19.4565C33.5641 19.2604 33.5641 19.041 33.6434 18.8444C33.721 18.6561 33.8233 18.6035 33.9985 18.5322C34.6788 18.5619 34.71 19.5753 34.0944 19.7906Z" fill="#737373"></path>
<path d="M21.5258 17.611C21.4014 17.7527 20.6413 19.699 20.5931 19.9171L20.6188 19.9619C21.0078 20.03 21.0464 19.5774 21.1386 19.2853L21.567 19.2872C21.7033 19.2863 21.8501 19.2826 21.9854 19.2849C22.1019 19.5733 22.1418 20.0377 22.5107 19.9673C22.535 19.9399 22.5579 19.9216 22.5455 19.8782C22.4345 19.4947 21.8781 17.9387 21.7152 17.68C21.6368 17.6279 21.6193 17.627 21.5258 17.611ZM21.5762 19.0385L21.2285 19.0348C21.3024 18.8182 21.4712 18.2829 21.5881 18.1138C21.645 18.1609 21.846 18.8397 21.9308 19.0294L21.5758 19.0385H21.5762Z" fill="#737373"></path>
<path d="M13.3226 18.3203C12.5772 18.5329 12.4836 19.5038 13.1056 19.9161C13.3148 20.055 13.8699 20.0504 14.0621 19.8498C14.0919 19.7661 14.0933 19.7981 14.0676 19.7254C13.9566 19.6491 13.9355 19.6756 13.8144 19.7291C13.5845 19.7693 13.496 19.7661 13.263 19.7094C13.0831 19.5312 13.0616 19.4658 12.9928 19.2231C13.3955 19.2057 13.7772 19.2139 14.174 19.2025C14.1392 18.5795 14.0139 18.2723 13.3235 18.3208L13.3226 18.3203ZM13.8235 18.9589C13.7469 19.0101 13.6281 18.9927 13.5318 18.9895L12.973 18.9858C13.102 18.7308 13.1543 18.632 13.424 18.5329C13.6332 18.5406 13.763 18.6119 13.8612 18.8044C13.8648 18.9081 13.8768 18.8716 13.8235 18.9593V18.9589Z" fill="#737373"></path>
<path d="M9.02491 18.9237C9.02858 19.2724 9.02583 19.6468 9.04188 19.9928L9.33089 19.9773C9.34557 19.0658 9.60155 17.9011 8.24551 18.4661C8.25285 18.2165 8.27395 17.8403 8.25056 17.6031C8.19735 17.5532 8.06064 17.5638 7.97532 17.5642C7.96522 17.6808 7.96109 17.7941 7.96155 17.9112C7.96568 18.5945 7.94825 19.2816 7.96018 19.9645L8.25194 20.002C8.25285 19.5773 8.25882 19.1417 8.24964 18.718C8.58039 18.5731 9.02766 18.3756 9.02445 18.9237H9.02491Z" fill="#737373"></path>
<path d="M15.8326 19.9485C15.9252 19.7218 15.8771 18.7715 15.7679 18.5036C15.689 18.3107 15.3394 18.3075 15.161 18.3189C15.1449 18.3235 14.999 18.3655 14.9917 18.3701C14.7701 18.5008 14.722 18.3093 14.5573 18.3239C14.4981 18.3729 14.4857 18.3843 14.4866 18.4698C14.4903 18.7171 14.41 19.805 14.5201 19.9567C14.6247 19.9819 14.6444 19.9787 14.7513 19.9631C14.8183 19.8617 14.7889 18.9054 14.7885 18.7079L15.1486 18.5571C16.0303 18.5498 15.1706 20.3005 15.8321 19.949L15.8326 19.9485Z" fill="#737373"></path>
<path d="M36.2913 19.9255C36.3628 19.9758 36.4394 20.0137 36.5275 19.9685C36.5757 19.8336 36.5798 18.7635 36.4821 18.5652C36.4316 18.4609 36.3413 18.3805 36.2312 18.3425C36.1279 18.3078 35.9532 18.3083 35.8417 18.3179C35.7513 18.3572 35.6013 18.434 35.51 18.4326C35.4334 18.3905 35.3504 18.3348 35.2651 18.3334L35.2017 18.3672C35.1595 18.583 35.1591 19.648 35.2017 19.925C35.2068 19.9566 35.271 19.9721 35.3031 19.9836C35.5564 19.9186 35.4807 19.7075 35.4788 19.4881C35.4765 19.2334 35.4701 18.9797 35.4692 18.7247C35.5637 18.6808 35.7302 18.5985 35.8224 18.5652C36.6128 18.5245 36.0688 19.5274 36.2913 19.9255Z" fill="#737373"></path>
<path d="M5.29394 20.0043C5.48936 19.9728 5.54395 19.9988 5.58937 19.7803C5.37972 19.6724 5.10723 19.8859 5.03705 19.592C4.9742 19.3291 5.02604 18.8451 5.02007 18.5457C5.20082 18.563 5.33614 18.6078 5.47744 18.4803L5.48019 18.4328C5.34853 18.2929 5.19806 18.3395 5.01732 18.3432C5.02328 18.2197 5.04897 18.0186 4.99622 17.9181C4.90539 17.8431 4.86823 17.8527 4.74162 17.8595C4.72786 18.0022 4.71914 18.1457 4.71501 18.2892C4.55996 18.4017 4.50629 18.2426 4.46362 18.4625C4.52785 18.6444 4.60721 18.5041 4.71639 18.6133C4.74437 19.1362 4.49298 20.1337 5.29394 20.0038V20.0043Z" fill="#737373"></path>
<path d="M24.0857 19.7319C24.0752 19.8316 24.0711 19.7946 24.1142 19.8851C24.2701 20.0144 24.5403 20.0099 24.7348 19.9939C25.4115 19.7845 25.3326 19.2703 24.75 19.0211C24.6316 18.9704 24.3156 18.8424 24.3876 18.6838C24.5156 18.3794 24.9294 18.6577 25.122 18.5585C25.1436 18.468 25.1468 18.5037 25.1151 18.4219C24.9775 18.2984 24.6917 18.3085 24.5124 18.3181C24.4913 18.319 24.4702 18.3204 24.4495 18.3218C23.8229 18.57 24.0105 18.9617 24.5 19.2053C24.672 19.2908 24.8858 19.3763 24.9032 19.5838C24.6977 20.0112 24.2945 19.5838 24.0857 19.7319Z" fill="#737373"></path>
<path d="M6.51512 19.7393C6.5087 19.8348 6.49998 19.7969 6.54998 19.881C6.69357 19.9829 6.93991 20.0112 7.11286 20.0012C7.6138 19.88 7.89317 19.5011 7.37617 19.1263C7.22341 19.0152 6.87385 18.9242 6.81055 18.7414C6.82569 18.639 6.81513 18.6733 6.88716 18.5896C7.10643 18.4795 7.39452 18.6207 7.54591 18.5777C7.56655 18.4744 7.57159 18.5133 7.5349 18.4146C7.39819 18.2939 7.14955 18.3081 6.96973 18.319C6.95138 18.3199 6.93257 18.3213 6.91422 18.3231C6.65412 18.4104 6.4408 18.5567 6.53026 18.8785C6.62797 19.2291 7.36333 19.2374 7.34544 19.5784C7.08396 20.0135 6.71834 19.5834 6.51512 19.7397V19.7393Z" fill="#737373"></path>
<path d="M22.7397 19.7209C22.7223 19.7963 22.7204 19.8064 22.7471 19.8786C22.8663 19.9915 23.1673 19.9993 23.3278 19.9934C23.8384 19.9161 24.0646 19.5244 23.6191 19.1477C23.4388 18.995 23.1177 18.9315 22.9916 18.7048C23.0049 18.4241 23.6833 18.6197 23.7783 18.564C23.8012 18.4794 23.7957 18.5064 23.7622 18.4122C23.6609 18.3139 23.393 18.3117 23.2544 18.3139C23.2049 18.3149 23.1558 18.3171 23.1067 18.3203C22.8631 18.4191 22.6576 18.58 22.7512 18.878C22.859 19.2227 23.5774 19.2446 23.5645 19.5847C23.3099 20.0217 22.9544 19.5673 22.7402 19.7214L22.7397 19.7209Z" fill="#737373"></path>
<path d="M32.1956 19.9842C32.308 19.9613 32.3249 19.8822 32.3401 19.7844C32.2447 19.7053 32.019 19.7798 31.7992 19.7227C31.7731 19.3671 31.7809 18.9109 31.7891 18.5488C31.9148 18.5543 32.096 18.584 32.1919 18.5287C32.2327 18.4666 32.2281 18.4186 32.23 18.3454L31.7855 18.3409C31.791 18.217 31.8162 18.02 31.7616 17.919C31.6699 17.8486 31.651 17.8559 31.5189 17.86C31.4905 18.0268 31.4914 18.132 31.49 18.3011C31.413 18.3143 31.3079 18.3221 31.251 18.3687C31.2345 18.4675 31.2267 18.4323 31.2717 18.5072C31.3148 18.5283 31.4841 18.5936 31.4877 18.6302C31.5442 19.2052 31.2019 20.188 32.1956 19.9842Z" fill="#737373"></path>
<path d="M28.5247 18.5321C28.5068 18.2619 28.0431 18.2967 27.8389 18.32C27.6155 18.3863 27.4339 18.4891 27.3274 18.7094C26.971 19.4495 27.5118 20.2161 28.3454 19.9692C28.427 19.945 28.4834 19.9107 28.5266 19.8362C28.5357 19.7521 28.5445 19.7823 28.5023 19.7183C28.4518 19.7041 28.4399 19.6963 28.3912 19.7091C27.5729 19.9194 27.427 19.4874 27.6394 18.7158C27.7146 18.4439 28.3743 18.6866 28.5247 18.5316V18.5321Z" fill="#737373"></path>
<path d="M16.7036 20.0121C16.8178 20.0263 17.099 20.0021 17.1848 19.9125C17.2119 19.8846 17.2064 19.88 17.2206 19.8398C17.0935 19.6446 16.8531 19.8521 16.6935 19.6835C16.6201 19.4325 16.6591 18.8451 16.6398 18.5635C16.6054 18.4694 16.6105 18.4337 16.6398 18.3428C16.6614 18.1247 16.7008 18.0356 16.5701 17.8724L16.5105 17.8468C16.3206 17.9506 16.3637 18.1288 16.3696 18.3194C16.2517 18.3364 16.1334 18.3354 16.0797 18.4666C16.1582 18.5704 16.2958 18.5128 16.3375 18.6321C16.4632 18.9905 16.1178 19.9385 16.7031 20.0117L16.7036 20.0121Z" fill="#737373"></path>
<path d="M19.2809 19.9532C19.3538 19.9875 19.3836 19.9875 19.463 19.9975L19.5506 19.9724C19.5712 19.9326 19.5832 17.7764 19.5607 17.6059C19.4822 17.557 19.429 17.5716 19.3244 17.5748C19.2868 17.6174 19.2634 17.6791 19.2698 17.7339C19.3157 18.117 19.1882 19.7136 19.2813 19.9536L19.2809 19.9532Z" fill="#737373"></path>
<path d="M3.60657 18.3648C3.4584 18.2048 3.27444 18.3941 3.15196 18.4219C3.14141 18.4242 2.94323 18.3218 2.80653 18.3182C2.79644 18.538 2.75882 19.8577 2.83176 19.9628C2.92351 19.9903 2.95195 19.9825 3.04783 19.9688C3.12719 19.8664 3.09508 19.4628 3.09095 19.3128V18.693C3.27995 18.6121 3.64281 18.5687 3.60657 18.3653V18.3648Z" fill="#737373"></path>
<path d="M3.87558 18.342C3.87421 18.5787 3.84393 19.8116 3.91182 19.94C4.00265 19.9825 4.09211 19.9752 4.19211 19.9761C4.19211 19.7457 4.20725 18.5335 4.17147 18.3758C4.09761 18.3232 3.97283 18.3406 3.87558 18.342Z" fill="#737373"></path>
<path d="M32.6425 18.3488C32.5943 18.4845 32.5842 19.7247 32.6086 19.913C32.6673 19.9656 32.7475 19.9706 32.8329 19.9912L32.8957 19.9651C32.9246 19.8618 32.9329 18.5115 32.9063 18.3593C32.8508 18.3209 32.7842 18.3273 32.7164 18.3259L32.643 18.3483L32.6425 18.3488Z" fill="#737373"></path>
<path d="M29.1304 18.3726C29.0602 18.3159 28.9253 18.3333 28.8336 18.3387L28.8295 19.9692C28.9281 19.9656 29.0547 19.9647 29.1506 19.9523C29.14 19.6977 29.1359 19.4431 29.1387 19.1881C29.1414 18.9988 29.1625 18.5353 29.1309 18.3726H29.1304Z" fill="#737373"></path>
<path d="M5.89954 19.9623C5.99909 19.987 6.05139 19.9787 6.15414 19.9719C6.1569 19.4302 6.15598 18.8885 6.15139 18.3469L5.86239 18.3208C5.84404 18.5375 5.82293 19.859 5.89954 19.9623Z" fill="#737373"></path>
<path d="M16.6403 18.5642C16.8467 18.566 16.9394 18.5811 17.1284 18.4901L17.1348 18.3969C17.0045 18.3091 16.7958 18.3361 16.6408 18.3434C16.6114 18.4339 16.6064 18.47 16.6408 18.5642H16.6403Z" fill="#737373"></path>
<path d="M5.9738 17.739C5.89719 17.8021 5.83801 17.8382 5.80957 17.9315C5.82287 18.0828 5.90407 18.1093 6.04903 18.1298C6.11968 18.0805 6.16968 18.0572 6.19216 17.9749C6.17748 17.8451 6.10362 17.7733 5.97334 17.739H5.9738Z" fill="#737373"></path>
<path d="M29.0766 17.7912C29.0009 17.7605 28.9775 17.766 28.8967 17.772C28.8275 17.8442 28.8036 17.8625 28.7871 17.9589C28.8339 18.1249 28.9403 18.1162 29.0945 18.1239C29.211 18.0037 29.1775 17.8995 29.0766 17.7912Z" fill="#737373"></path>
<path d="M32.8624 17.804C32.7849 17.7747 32.7743 17.7738 32.6931 17.7738C32.6174 17.8341 32.5839 17.8515 32.5624 17.9438C32.606 18.0933 32.7119 18.1043 32.8468 18.1555C32.9817 18.0289 32.9817 17.9361 32.8624 17.804Z" fill="#737373"></path>
<path d="M4.21348 17.9095C4.19467 17.8121 4.10063 17.7477 4.00246 17.765C3.93778 17.7765 3.8841 17.8217 3.86208 17.8839C3.84052 17.9456 3.85383 18.0146 3.89695 18.064C3.94053 18.1133 4.00704 18.1353 4.07173 18.122C4.16898 18.1015 4.23229 18.0068 4.21302 17.9095H4.21348Z" fill="#737373"></path>
</svg>
