<svg xmlns="http://www.w3.org/2000/svg" fill="none" viewBox="0 0 41 52" height="52" width="41">
<path stroke-miterlimit="10" stroke="#FBFCFF" d="M33.7811 9.77295H31.9272C31.3482 9.77295 30.8755 10.237 30.8755 10.8054V13.4387C30.8755 14.8622 29.6962 16.0198 28.2461 16.0198H12.7513C11.3012 16.0198 10.1219 14.8622 10.1219 13.4387V10.8054C10.1219 10.237 9.64916 9.77295 9.07016 9.77295H7.21631C4.77284 9.77295 2.7915 11.7179 2.7915 14.1165V43.4475C2.7915 45.8462 4.77284 47.7911 7.21631 47.7911H33.7758C36.2193 47.7911 38.2006 45.8409 38.2006 43.4475V14.1165C38.2006 11.7179 36.2193 9.77295 33.7758 9.77295H33.7811Z"></path>
<path stroke-miterlimit="10" stroke="#FBFCFF" d="M28.4623 7.38806H24.3142C24.1013 5.60269 22.4693 4.20898 20.499 4.20898C18.5286 4.20898 16.8966 5.60269 16.6837 7.38806H12.5356C12.3009 7.38806 12.1099 7.56609 12.1099 7.78481V13.085C12.1099 13.3037 12.3009 13.4817 12.5356 13.4817H28.4569C28.6916 13.4817 28.8826 13.3037 28.8826 13.085V7.78481C28.8826 7.56609 28.6916 7.38806 28.4569 7.38806H28.4623Z"></path>
<path fill="#FBFCFF" d="M19.0117 33.2282L16.8744 30.9054C16.6362 30.6465 16.2576 30.6465 16.0194 30.9054C15.7813 31.1642 15.7813 31.5757 16.0194 31.8345L18.5781 34.6152C18.8163 34.874 19.201 34.874 19.4392 34.6152L25.9122 27.5871C26.1504 27.3283 26.1504 26.9168 25.9122 26.658C25.674 26.3992 25.2954 26.3992 25.0573 26.658L19.0117 33.2282Z"></path>
</svg>
