<svg xmlns="http://www.w3.org/2000/svg" fill="none" viewBox="0 0 30 14" height="14" width="30">
<g clip-path="url(#clip0_1547_667)" id="Google_Pay_Logo 1">
<path fill="#FBFCFF" d="M14.1748 7.2392V10.6565H13.0498V2.20508H15.9748C16.6873 2.20508 17.3623 2.4623 17.8873 2.93999C18.4123 3.38093 18.6748 4.04235 18.6748 4.74051C18.6748 5.43867 18.4123 6.06335 17.8873 6.54104C17.3623 7.01873 16.7248 7.27594 15.9748 7.27594L14.1748 7.2392ZM14.1748 3.23395V6.17358H16.0498C16.4623 6.17358 16.8748 6.0266 17.1373 5.73264C17.7373 5.18146 17.7373 4.26282 17.1748 3.71164L17.1373 3.67489C16.8373 3.38093 16.4623 3.1972 16.0498 3.23395H14.1748Z" id="Vector"></path>
<path fill="#FBFCFF" d="M21.2623 4.70312C22.0873 4.70312 22.7248 4.9236 23.2123 5.36454C23.6998 5.80549 23.9248 6.39341 23.9248 7.12832V10.6559H22.8748V9.84748H22.8373C22.3873 10.5089 21.7498 10.8396 20.9998 10.8396C20.3623 10.8396 19.7998 10.6559 19.3498 10.2884C18.9373 9.92097 18.6748 9.40654 18.6748 8.85536C18.6748 8.26743 18.8998 7.78974 19.3498 7.42229C19.7998 7.05483 20.4373 6.90785 21.1873 6.90785C21.8623 6.90785 22.3873 7.01809 22.7998 7.2753V7.01809C22.7998 6.65063 22.6498 6.28318 22.3498 6.0627C22.0498 5.80549 21.6748 5.65851 21.2623 5.65851C20.6248 5.65851 20.1373 5.91572 19.7998 6.43016L18.8248 5.84223C19.4248 5.07058 20.2123 4.70312 21.2623 4.70312ZM19.8373 8.8921C19.8373 9.18606 19.9873 9.44328 20.2123 9.59026C20.4748 9.77399 20.7748 9.88423 21.0748 9.88423C21.5248 9.88423 21.9748 9.7005 22.3123 9.36979C22.6873 9.03908 22.8748 8.63488 22.8748 8.19394C22.5373 7.93672 22.0498 7.78974 21.4123 7.78974C20.9623 7.78974 20.5873 7.89998 20.2873 8.12045C19.9873 8.30417 19.8373 8.56139 19.8373 8.8921Z" id="Vector_2"></path>
<path fill="#FBFCFF" d="M29.9998 4.88672L26.2873 13.2279H25.1623L26.5498 10.325L24.1123 4.92346H25.3123L27.0748 9.0757H27.1123L28.8373 4.92346H29.9998V4.88672Z" id="Vector_3"></path>
<path fill="#4285F4" d="M9.7127 6.50385C9.7127 6.17314 9.6752 5.84243 9.6377 5.51172H4.9502V7.38573H7.6127C7.5002 7.97366 7.1627 8.52484 6.6377 8.85555V10.0681H8.2502C9.1877 9.22301 9.7127 7.97366 9.7127 6.50385Z" id="Vector_4"></path>
<path fill="#34A853" d="M4.95039 11.2443C6.30039 11.2443 7.42539 10.8033 8.25039 10.0684L6.63789 8.85581C6.18789 9.14977 5.62539 9.3335 4.95039 9.3335C3.67539 9.3335 2.55039 8.48835 2.17539 7.3125H0.525391V8.56184C1.38789 10.2154 3.07539 11.2443 4.95039 11.2443Z" id="Vector_5"></path>
<path fill="#FBBC04" d="M2.17461 7.31281C1.94961 6.72489 1.94961 6.06347 2.17461 5.4388V4.18945H0.524609C-0.187891 5.54903 -0.187891 7.16583 0.524609 8.56216L2.17461 7.31281Z" id="Vector_6"></path>
<path fill="#EA4335" d="M4.95 3.45375C5.6625 3.45375 6.3375 3.71097 6.8625 4.18866L8.2875 2.79234C7.3875 1.98394 6.1875 1.50625 4.9875 1.54299C3.1125 1.54299 1.3875 2.57186 0.5625 4.22541L2.2125 5.47475C2.55 4.2989 3.675 3.45375 4.95 3.45375Z" id="Vector_7"></path>
</g>
<defs>
<clipPath id="clip0_1547_667">
<rect fill="white" height="14" width="30"></rect>
</clipPath>
</defs>
</svg>
