<svg xmlns="http://www.w3.org/2000/svg" fill="none" viewBox="0 0 30 10" height="10" width="30">
<path fill="#FBFCFF" d="M26.6794 2.8625H26.3359C25.8779 3.9875 25.5343 4.55 25.1908 6.2375H27.3664C27.0229 4.55 27.0229 3.7625 26.6794 2.8625ZM30 9.5H28.0534C27.9389 9.5 27.9389 9.5 27.8244 9.3875L27.5954 8.375L27.4809 8.15H24.7328C24.6183 8.15 24.5038 8.15 24.5038 8.375L24.1603 9.3875C24.1603 9.5 24.0458 9.5 24.0458 9.5H21.6412L21.8702 8.9375L25.1908 1.2875C25.1908 0.725 25.5343 0.5 26.1069 0.5H27.8244C27.9389 0.5 28.0534 0.5 28.0534 0.725L29.6565 8.0375C29.771 8.4875 29.8855 8.825 29.8855 9.275C30 9.3875 30 9.3875 30 9.5ZM14.6565 9.1625L15.1145 7.1375C15.229 7.1375 15.3435 7.25 15.3435 7.25C16.145 7.5875 16.9466 7.8125 17.7481 7.7C17.9771 7.7 18.3206 7.5875 18.5496 7.475C19.1221 7.25 19.1221 6.6875 18.6641 6.2375C18.4351 6.0125 18.0916 5.9 17.7481 5.675C17.2901 5.45 16.8321 5.225 16.4885 4.8875C15.1145 3.7625 15.5725 2.1875 16.374 1.4C17.0611 0.95 17.4046 0.5 18.3206 0.5C19.6947 0.5 21.1832 0.5 21.8702 0.725H21.9847C21.8702 1.4 21.7557 1.9625 21.5267 2.6375C20.9542 2.4125 20.3817 2.1875 19.8092 2.1875C19.4656 2.1875 19.1221 2.1875 18.7786 2.3C18.5496 2.3 18.4351 2.4125 18.3206 2.525C18.0916 2.75 18.0916 3.0875 18.3206 3.3125L18.8931 3.7625C19.3511 3.9875 19.8092 4.2125 20.1527 4.4375C20.7252 4.775 21.2977 5.3375 21.4122 6.0125C21.6412 7.025 21.2977 7.925 20.3817 8.6C19.8092 9.05 19.5802 9.275 18.7786 9.275C17.1756 9.275 15.916 9.3875 14.8855 9.05C14.771 9.275 14.771 9.275 14.6565 9.1625ZM10.6489 9.5C10.7634 8.7125 10.7634 8.7125 10.8779 8.375C11.4504 5.9 12.0229 3.3125 12.4809 0.8375C12.5954 0.6125 12.5954 0.5 12.8244 0.5H14.8855C14.6565 1.85 14.4275 2.8625 14.084 4.1C13.7405 5.7875 13.3969 7.475 12.9389 9.1625C12.9389 9.3875 12.8244 9.3875 12.5954 9.3875M0 0.725C0 0.6125 0.229008 0.5 0.343512 0.5H4.23664C4.80916 0.5 5.26718 0.8375 5.38168 1.4L6.41221 6.35C6.41221 6.4625 6.41221 6.4625 6.52672 6.575C6.52672 6.4625 6.64122 6.4625 6.64122 6.4625L9.0458 0.725C8.9313 0.6125 9.0458 0.5 9.16031 0.5H11.5649C11.5649 0.6125 11.5649 0.6125 11.4504 0.725L7.90076 8.9375C7.78626 9.1625 7.78626 9.275 7.67176 9.3875C7.55725 9.5 7.32824 9.3875 7.09924 9.3875H5.38168C5.26718 9.3875 5.15267 9.3875 5.15267 9.1625L3.32061 2.1875C3.0916 1.9625 2.74809 1.625 2.29008 1.5125C1.60305 1.175 0.343511 0.95 0.114504 0.95L0 0.725Z" id="Vector"></path>
</svg>
