<svg xmlns="http://www.w3.org/2000/svg" fill="none" viewBox="0 0 75 75" height="75" width="75">
<path fill="white" d="M8.27615 29.5135C8.97407 20.7531 16.2868 13.9998 25.0749 13.9998H49.9996C58.8595 13.9998 66.2153 20.8421 66.8553 29.6788L67.5017 38.6039C67.5457 39.2112 67.5714 39.815 67.5793 40.415H7.47485C7.48376 39.744 7.51495 39.0681 7.56912 38.3881L8.27615 29.5135ZM5.5117 42.415H69.5423C69.6069 41.114 69.5931 39.7939 69.4965 38.4595L68.8501 29.5343C68.1343 19.6519 59.908 11.9998 49.9996 11.9998H25.0749C15.2438 11.9998 7.06322 19.5546 6.28247 29.3546L5.57544 38.2293C5.4629 39.6419 5.44343 41.0391 5.5117 42.415ZM7.24194 48.8708H67.7581V51.9998C67.7581 56.9703 63.7286 60.9998 58.7581 60.9998H16.2419C11.2714 60.9998 7.24194 56.9703 7.24194 51.9998V48.8708ZM5.24194 46.8708H7.24194H67.7581H69.7581V48.8708V51.9998C69.7581 58.0749 64.8332 62.9998 58.7581 62.9998H16.2419C10.1668 62.9998 5.24194 58.0749 5.24194 51.9998V48.8708V46.8708Z" clip-rule="evenodd" fill-rule="evenodd"></path>
<path fill="white" d="M38 57.9998C40.2091 57.9998 42 56.2089 42 53.9998C42 51.7906 40.2091 49.9998 38 49.9998C35.7909 49.9998 34 51.7906 34 53.9998C34 56.2089 35.7909 57.9998 38 57.9998ZM38 56.9998C39.6569 56.9998 41 55.6566 41 53.9998C41 52.3429 39.6569 50.9998 38 50.9998C36.3431 50.9998 35 52.3429 35 53.9998C35 55.6566 36.3431 56.9998 38 56.9998Z" clip-rule="evenodd" fill-rule="evenodd"></path>
</svg>