<svg xmlns="http://www.w3.org/2000/svg" fill="none" viewBox="0 0 75 75" height="75" width="75">
<path fill="white" d="M45.9954 19.5716C45.1811 19.3081 44.4394 18.8585 43.8292 18.2584C43.2189 17.6584 42.7569 16.9243 42.4798 16.1146L38.6712 4.31377C38.5941 4.07931 38.445 3.87517 38.2451 3.73045C38.0452 3.58573 37.8047 3.50781 37.5579 3.50781C37.3111 3.50781 37.0706 3.58573 36.8707 3.73045C36.6708 3.87517 36.5217 4.07931 36.4446 4.31377L32.4603 16.1146C32.1867 16.9167 31.7328 17.6455 31.1335 18.2448C30.5342 18.8441 29.8054 19.298 29.0032 19.5716L17.2024 23.4974C16.968 23.5744 16.7638 23.7235 16.6191 23.9234C16.4744 24.1234 16.3965 24.3638 16.3965 24.6106C16.3965 24.8574 16.4744 25.0979 16.6191 25.2978C16.7638 25.4977 16.968 25.6469 17.2024 25.7239L29.0032 29.6497C29.8067 29.9209 30.5367 30.374 31.1363 30.9736C31.736 31.5733 32.189 32.3033 32.4603 33.1067L36.386 44.9075C36.4631 45.142 36.6122 45.3461 36.8121 45.4908C37.012 45.6356 37.2525 45.7135 37.4993 45.7135C37.7461 45.7135 37.9866 45.6356 38.1865 45.4908C38.3864 45.3461 38.5355 45.142 38.6126 44.9075L42.5384 33.1067C42.8155 32.297 43.2775 31.5629 43.8878 30.9629C44.498 30.3628 45.2397 29.9132 46.054 29.6497L57.7962 25.7825C58.0306 25.7055 58.2348 25.5563 58.3795 25.3564C58.5242 25.1565 58.6022 24.916 58.6022 24.6692C58.6022 24.4224 58.5242 24.1819 58.3795 23.982C58.2348 23.7821 58.0306 23.633 57.7962 23.556L45.9954 19.5716ZM45.2571 27.4349C44.1084 27.8181 43.0646 28.4634 42.2083 29.3197C41.3521 30.1759 40.7068 31.2197 40.3235 32.3685L37.4993 40.8294L34.6868 32.3685C34.2999 31.2185 33.6522 30.1737 32.7942 29.3157C31.9363 28.4578 30.8915 27.81 29.7415 27.4231L21.2806 24.6106L29.7415 21.7864C30.8894 21.4016 31.9323 20.7557 32.7884 19.8997C33.6444 19.0436 34.2902 18.0007 34.6751 16.8528L37.4993 8.39189L40.3118 16.8528C40.6987 18.0015 41.3466 19.0448 42.2046 19.9009C43.0627 20.7569 44.1076 21.4023 45.2571 21.7864L53.7181 24.6106L45.2571 27.4349ZM73.0306 55.138L64.6985 52.3606C64.1833 52.1878 63.7151 51.8978 63.3308 51.5135C62.9465 51.1292 62.6566 50.6611 62.4837 50.1458L59.7649 41.8138C59.6879 41.5793 59.5388 41.3752 59.3389 41.2305C59.139 41.0857 58.8985 41.0078 58.6517 41.0078C58.4049 41.0078 58.1644 41.0857 57.9645 41.2305C57.7646 41.3752 57.6154 41.5793 57.5384 41.8138L54.761 50.1458C54.5882 50.6611 54.2982 51.1292 53.9139 51.5135C53.5296 51.8978 53.0614 52.1878 52.5462 52.3606L44.2142 55.138C43.9797 55.2151 43.7756 55.3642 43.6308 55.5641C43.4861 55.764 43.4082 56.0045 43.4082 56.2513C43.4082 56.4981 43.4861 56.7386 43.6308 56.9385C43.7756 57.1384 43.9797 57.2875 44.2142 57.3646L52.5462 60.1419C53.0614 60.3148 53.5296 60.6047 53.9139 60.989C54.2982 61.3733 54.5882 61.8415 54.761 62.3567L57.5384 70.6888C57.6154 70.9232 57.7646 71.1274 57.9645 71.2721C58.1644 71.4168 58.4049 71.4947 58.6517 71.4947C58.8985 71.4947 59.139 71.4168 59.3389 71.2721C59.5388 71.1274 59.6879 70.9232 59.7649 70.6888L62.5306 62.3567C62.7046 61.8402 62.9964 61.3713 63.3828 60.9869C63.7692 60.6025 64.2397 60.3132 64.7571 60.1419L73.0306 57.4231C73.265 57.3461 73.4692 57.197 73.6139 56.9971C73.7586 56.7972 73.8365 56.5567 73.8365 56.3099C73.8365 56.0631 73.7586 55.8226 73.6139 55.6227C73.4692 55.4228 73.265 55.2736 73.0306 55.1966V55.138ZM63.9603 57.9153C63.0981 58.2031 62.3147 58.6874 61.6719 59.3302C61.0292 59.9729 60.5449 60.7563 60.2571 61.6185L58.5931 66.6106L56.929 61.6185C56.6413 60.7563 56.1569 59.9729 55.5142 59.3302C54.8715 58.6874 54.0881 58.2031 53.2259 57.9153L48.2337 56.2513L53.2259 54.5872C54.0881 54.2995 54.8715 53.8151 55.5142 53.1724C56.1569 52.5297 56.6413 51.7463 56.929 50.8841L58.5931 45.8919L60.2571 50.8841C60.5449 51.7463 61.0292 52.5297 61.6719 53.1724C62.3147 53.8151 63.0981 54.2995 63.9603 54.5872L68.9524 56.2513L63.9603 57.9153ZM12.5149 62.3567L15.2923 70.6888C15.3693 70.9232 15.5185 71.1274 15.7184 71.2721C15.9183 71.4168 16.1588 71.4947 16.4056 71.4947C16.6524 71.4947 16.8929 71.4168 17.0928 71.2721C17.2927 71.1274 17.4418 70.9232 17.5188 70.6888L20.2845 62.3567C20.4585 61.8402 20.7503 61.3713 21.1367 60.9869C21.5231 60.6025 21.9936 60.3132 22.511 60.1419L30.8431 57.4231C31.0775 57.3461 31.2817 57.197 31.4264 56.9971C31.5711 56.7972 31.649 56.5567 31.649 56.3099C31.649 56.0631 31.5711 55.8226 31.4264 55.6227C31.2817 55.4228 31.0775 55.2736 30.8431 55.1966L22.511 52.4192C21.9958 52.2464 21.5276 51.9564 21.1433 51.5721C20.759 51.1878 20.4691 50.7197 20.2962 50.2044L17.5774 41.8138C17.5004 41.5793 17.3513 41.3752 17.1514 41.2305C16.9515 41.0857 16.711 41.0078 16.4642 41.0078C16.2174 41.0078 15.9769 41.0857 15.777 41.2305C15.5771 41.3752 15.4279 41.5793 15.3509 41.8138L12.5735 50.1458C12.4007 50.6611 12.1107 51.1292 11.7264 51.5135C11.3421 51.8978 10.8739 52.1878 10.3587 52.3606L1.96807 55.138C1.73361 55.2151 1.52947 55.3642 1.38475 55.5641C1.24003 55.764 1.16211 56.0045 1.16211 56.2513C1.16211 56.4981 1.24003 56.7386 1.38475 56.9385C1.52947 57.1384 1.73361 57.2875 1.96807 57.3646L10.3001 60.1419C10.8154 60.3148 11.2835 60.6047 11.6678 60.989C12.0521 61.3733 12.3421 61.8415 12.5149 62.3567ZM11.0384 54.5872C11.9006 54.2995 12.684 53.8151 13.3267 53.1724C13.9694 52.5297 14.4538 51.7463 14.7415 50.8841L16.4056 45.8919L18.0696 50.8841C18.3574 51.7463 18.8417 52.5297 19.4845 53.1724C20.1272 53.8151 20.9106 54.2995 21.7728 54.5872L26.7649 56.2513L21.7728 57.9153C20.9106 58.2031 20.1272 58.6874 19.4845 59.3302C18.8417 59.9729 18.3574 60.7563 18.0696 61.6185L16.4056 66.6106L14.7415 61.6185C14.4538 60.7563 13.9694 59.9729 13.3267 59.3302C12.684 58.6874 11.9006 58.2031 11.0384 57.9153L6.04619 56.2513L11.0384 54.5872Z"></path>
</svg>