<svg xmlns="http://www.w3.org/2000/svg" fill="none" viewBox="0 0 75 75" height="75" width="75">
<g clip-path="url(#clip0_562_373)">
<path fill="white" d="M1.17188 34.5703C0.861079 34.5703 0.563016 34.6938 0.34325 34.9136C0.123484 35.1333 1.39849e-05 35.4314 0 35.7422L0 39.2578C0 39.5686 0.123465 39.8667 0.343234 40.0865C0.563003 40.3062 0.861074 40.4297 1.17188 40.4297C1.48268 40.4297 1.78075 40.3062 2.00052 40.0865C2.22029 39.8667 2.34375 39.5686 2.34375 39.2578V35.7422C2.34374 35.4314 2.22027 35.1333 2.0005 34.9136C1.78073 34.6938 1.48267 34.5703 1.17188 34.5703ZM7.03125 32.2266C6.72045 32.2266 6.42239 32.35 6.20262 32.5698C5.98286 32.7896 5.85939 33.0876 5.85938 33.3984V41.6016C5.85938 41.9124 5.98284 42.2104 6.20261 42.4302C6.42238 42.65 6.72045 42.7734 7.03125 42.7734C7.34205 42.7734 7.64012 42.65 7.85989 42.4302C8.07966 42.2104 8.20312 41.9124 8.20312 41.6016V33.3984C8.20311 33.0876 8.07964 32.7896 7.85988 32.5698C7.64011 32.35 7.34205 32.2266 7.03125 32.2266ZM13.4766 28.7109C13.1658 28.711 12.8677 28.8344 12.6479 29.0542C12.4282 29.274 12.3047 29.572 12.3047 29.8828V45.1172C12.3047 45.428 12.4282 45.7261 12.6479 45.9458C12.8677 46.1656 13.1658 46.2891 13.4766 46.2891C13.7874 46.2891 14.0854 46.1656 14.3052 45.9458C14.525 45.7261 14.6484 45.428 14.6484 45.1172V29.8828C14.6484 29.572 14.525 29.274 14.3052 29.0542C14.0854 28.8344 13.7874 28.711 13.4766 28.7109ZM19.3359 26.3672C19.0251 26.3672 18.7271 26.4907 18.5073 26.7104C18.2875 26.9302 18.1641 27.2283 18.1641 27.5391V47.4609C18.1641 47.7717 18.2875 48.0698 18.5073 48.2896C18.7271 48.5093 19.0251 48.6328 19.3359 48.6328C19.6467 48.6328 19.9448 48.5093 20.1646 48.2896C20.3843 48.0698 20.5078 47.7717 20.5078 47.4609V27.5391C20.5078 27.2283 20.3843 26.9302 20.1646 26.7104C19.9448 26.4907 19.6467 26.3672 19.3359 26.3672ZM25.1953 22.8516C24.8845 22.8516 24.5865 22.975 24.3667 23.1948C24.1469 23.4146 24.0235 23.7126 24.0234 24.0234V50.9766C24.0234 51.2874 24.1469 51.5854 24.3667 51.8052C24.5864 52.025 24.8845 52.1484 25.1953 52.1484C25.5061 52.1484 25.8042 52.025 26.024 51.8052C26.2437 51.5854 26.3672 51.2874 26.3672 50.9766V24.0234C26.3672 23.7126 26.2437 23.4146 26.0239 23.1948C25.8042 22.975 25.5061 22.8516 25.1953 22.8516ZM31.0547 19.3359C30.7439 19.336 30.4458 19.4594 30.2261 19.6792C30.0063 19.899 29.8828 20.197 29.8828 20.5078V54.4922C29.8828 54.803 30.0063 55.1011 30.226 55.3208C30.4458 55.5406 30.7439 55.6641 31.0547 55.6641C31.3655 55.6641 31.6636 55.5406 31.8833 55.3208C32.1031 55.1011 32.2266 54.803 32.2266 54.4922V20.5078C32.2265 20.197 32.1031 19.899 31.8833 19.6792C31.6635 19.4594 31.3655 19.336 31.0547 19.3359ZM73.8281 34.5703C73.5173 34.5703 73.2193 34.6938 72.9995 34.9136C72.7797 35.1333 72.6563 35.4314 72.6562 35.7422V39.2578C72.6562 39.5686 72.7797 39.8667 72.9995 40.0865C73.2193 40.3062 73.5173 40.4297 73.8281 40.4297C74.1389 40.4297 74.437 40.3062 74.6568 40.0865C74.8765 39.8667 75 39.5686 75 39.2578V35.7422C75 35.4314 74.8765 35.1333 74.6567 34.9136C74.437 34.6938 74.1389 34.5703 73.8281 34.5703ZM67.9688 32.2266C67.658 32.2266 67.3599 32.35 67.1401 32.5698C66.9204 32.7896 66.7969 33.0876 66.7969 33.3984V41.6016C66.7969 41.9124 66.9203 42.2104 67.1401 42.4302C67.3599 42.65 67.6579 42.7734 67.9688 42.7734C68.2796 42.7734 68.5776 42.65 68.7974 42.4302C69.0172 42.2104 69.1406 41.9124 69.1406 41.6016V33.3984C69.1406 33.0876 69.0171 32.7896 68.7974 32.5698C68.5776 32.35 68.2795 32.2266 67.9688 32.2266ZM61.5234 28.7109C61.2126 28.7109 60.9146 28.8344 60.6948 29.0542C60.475 29.274 60.3516 29.572 60.3516 29.8828V45.1172C60.3516 45.428 60.475 45.7261 60.6948 45.9458C60.9146 46.1656 61.2126 46.2891 61.5234 46.2891C61.8342 46.2891 62.1323 46.1656 62.3521 45.9458C62.5718 45.7261 62.6953 45.428 62.6953 45.1172V29.8828C62.6953 29.572 62.5718 29.274 62.3521 29.0542C62.1323 28.8344 61.8342 28.711 61.5234 28.7109ZM55.6641 26.3672C55.3533 26.3672 55.0552 26.4907 54.8354 26.7104C54.6157 26.9302 54.4922 27.2283 54.4922 27.5391V47.4609C54.4922 47.7717 54.6157 48.0698 54.8354 48.2896C55.0552 48.5093 55.3533 48.6328 55.6641 48.6328C55.9749 48.6328 56.2729 48.5093 56.4927 48.2896C56.7125 48.0698 56.8359 47.7717 56.8359 47.4609V27.5391C56.8359 27.2283 56.7125 26.9302 56.4927 26.7104C56.2729 26.4907 55.9749 26.3672 55.6641 26.3672ZM49.8047 22.8516C49.4939 22.8516 49.1958 22.975 48.9761 23.1948C48.7563 23.4146 48.6328 23.7126 48.6328 24.0234V50.9766C48.6328 51.2874 48.7563 51.5854 48.976 51.8052C49.1958 52.025 49.4939 52.1484 49.8047 52.1484C50.1155 52.1484 50.4136 52.025 50.6333 51.8052C50.8531 51.5854 50.9766 51.2874 50.9766 50.9766V24.0234C50.9765 23.7126 50.8531 23.4146 50.6333 23.1948C50.4135 22.975 50.1155 22.8516 49.8047 22.8516ZM43.9453 19.3359C43.6345 19.336 43.3365 19.4594 43.1167 19.6792C42.8969 19.899 42.7735 20.197 42.7734 20.5078V54.4922C42.7734 54.803 42.8969 55.1011 43.1167 55.3208C43.3364 55.5406 43.6345 55.6641 43.9453 55.6641C44.2561 55.6641 44.5542 55.5406 44.774 55.3208C44.9937 55.1011 45.1172 54.803 45.1172 54.4922V20.5078C45.1172 20.197 44.9937 19.899 44.7739 19.6792C44.5542 19.4594 44.2561 19.336 43.9453 19.3359ZM37.5 15.8203C37.1892 15.8203 36.8911 15.9438 36.6714 16.1636C36.4516 16.3833 36.3281 16.6814 36.3281 16.9922V58.0078C36.3281 58.3186 36.4516 58.6167 36.6714 58.8365C36.8911 59.0562 37.1892 59.1797 37.5 59.1797C37.8108 59.1797 38.1089 59.0562 38.3286 58.8365C38.5484 58.6167 38.6719 58.3186 38.6719 58.0078V16.9922C38.6719 16.6814 38.5484 16.3833 38.3286 16.1636C38.1089 15.9438 37.8108 15.8203 37.5 15.8203Z"></path>
</g>
<defs>
<clipPath id="clip0_562_373">
<rect fill="white" height="75" width="75"></rect>
</clipPath>
</defs>
</svg>