<svg width="38" height="30" viewBox="0 0 38 30" fill="none" xmlns="http://www.w3.org/2000/svg">
<g clip-path="url(#clip0_2_649)">
<path d="M17.21 13.29C22.44 10.27 25.9 6.47 24.93 4.79C23.96 3.12 18.94 4.21 13.71 7.23C8.48 10.25 5.02 14.05 5.99 15.73C6.96 17.4 11.98 16.31 17.21 13.29Z" stroke="black" stroke-miterlimit="10" stroke-linecap="round"></path>
<path d="M24.5599 24.26C34.2799 18.65 39.6699 9.8 36.6099 4.49C33.5399 -0.819999 23.1799 -0.579999 13.4699 5.03C3.74995 10.64 -1.64005 19.49 1.41995 24.8C4.48995 30.11 14.8499 29.87 24.5599 24.26Z" stroke="black" stroke-miterlimit="10" stroke-linecap="round"></path>
<path d="M33.04 1.53C33.24 1.76 33.42 2 33.57 2.26C35.98 6.44 30.64 14.03 21.64 19.22C20.91 19.64 20.2 20.02 19.48 20.38" stroke="black" stroke-miterlimit="10" stroke-linecap="round"></path>
<path d="M9.80001 23.54C5.61001 24.11 2.30001 23.31 0.990015 21.06C0.840015 20.8 0.730015 20.54 0.640015 20.27" stroke="black" stroke-miterlimit="10" stroke-linecap="round"></path>
</g>
<defs>
<clipPath id="clip0_2_649">
<rect width="38" height="29.18" fill="white"></rect>
</clipPath>
</defs>
</svg>
