<svg width="50" height="44" viewBox="0 0 50 44" fill="none" xmlns="http://www.w3.org/2000/svg">
<path d="M36.55 17.6V37.94C36.55 39.16 35.56 40.15 34.34 40.15H32.46" stroke="black" stroke-miterlimit="10" stroke-linecap="round"></path>
<path d="M10.73 9.54V7.95C10.73 6.73 11.72 5.74 12.94 5.74H26.99" stroke="black" stroke-miterlimit="10" stroke-linecap="round"></path>
<path d="M32.47 17.4V41.24C32.47 42.46 31.48 43.45 30.26 43.45H8.85002C7.63002 43.45 6.64001 42.46 6.64001 41.24V11.75C6.64001 10.53 7.63002 9.54 8.85002 9.54H26.32" stroke="black" stroke-miterlimit="10" stroke-linecap="round"></path>
<path d="M36.48 17.45C34.53 17.83 32.35 17.54 30.17 16.36C29.08 15.77 28.17 14.86 27.57 13.77C23.96 7.16 28.64 0.559998 34.84 0.559998C39.54 0.559998 43.37 4.37 43.37 9.09V9.07C43.37 13.23 40.41 16.68 36.48 17.44" stroke="black" stroke-miterlimit="10" stroke-linecap="round"></path>
<path d="M39.07 9.07C34.78 9.07 34.85 3.81 34.85 3.81C34.85 3.81 34.91 9.07 30.63 9.07C34.92 9.07 34.85 14.33 34.85 14.33C34.85 14.33 34.79 9.07 39.07 9.07Z" stroke="black" stroke-linecap="round" stroke-linejoin="round"></path>
</svg>
