<svg width="50" height="44" viewBox="0 0 50 44" fill="none" xmlns="http://www.w3.org/2000/svg">
<path d="M23.8752 9.62639H23.6655V2.93046C23.6655 1.43675 22.4514 0.222656 20.9577 0.222656H9.19203C7.69833 0.222656 6.48423 1.43675 6.48423 2.93046V9.62639H6.27453C4.7146 9.62639 3.44531 10.8957 3.44531 12.4556V37.959C3.44531 38.3637 3.77643 38.6948 4.18113 38.6948C4.53064 38.6948 4.82129 38.452 4.89487 38.1245C4.90591 38.0694 4.91694 38.0142 4.91694 37.959V12.4556C4.91694 11.7087 5.52399 11.098 6.27453 11.098H23.8716C24.6184 11.098 25.2291 11.7051 25.2291 12.4556V43.0435C25.2291 43.4482 25.5603 43.7793 25.965 43.7793C26.3697 43.7793 26.7008 43.4482 26.7008 43.0435V12.4556C26.7008 10.8957 25.4315 9.62639 23.8716 9.62639H23.8752ZM7.95586 2.93046C7.95586 2.24983 8.5114 1.69429 9.19203 1.69429H20.9577C21.6384 1.69429 22.1939 2.24983 22.1939 2.93046V3.81712C21.2226 3.979 20.4795 4.82151 20.4795 5.83693C20.4795 6.85236 21.2226 7.69487 22.1939 7.85675V9.62271H7.95586V2.92678V2.93046Z" fill="black"></path>
<path d="M28.7898 5.32205C28.7236 4.92103 28.3447 4.64878 27.9436 4.715L26.1299 5.01301C25.7362 5.07923 25.4676 5.44346 25.5228 5.83712C25.4676 6.23078 25.7362 6.59869 26.1299 6.66123L27.9436 6.95924C27.9841 6.9666 28.0246 6.97028 28.0651 6.97028C28.4182 6.97028 28.731 6.71274 28.7898 6.35219C28.8193 6.16456 28.7751 5.98428 28.6795 5.83344C28.7751 5.68628 28.8193 5.50232 28.7898 5.31469V5.32205Z" fill="black"></path>
<path d="M37.641 4.6021C37.6814 4.6021 37.7219 4.6021 37.7624 4.59106L40.9484 4.06863C41.3495 4.00241 41.6217 3.62346 41.5555 3.22244C41.4893 2.82142 41.1103 2.54917 40.7093 2.61539L37.5232 3.13782C37.1222 3.20405 36.8499 3.58299 36.9162 3.98401C36.975 4.34456 37.2878 4.6021 37.641 4.6021Z" fill="black"></path>
<path d="M31.266 5.65288C31.3064 5.65288 31.3469 5.65288 31.3874 5.64184L34.5734 5.11941C34.9745 5.05319 35.2467 4.67424 35.1805 4.27322C35.1143 3.8722 34.7353 3.59995 34.3343 3.66617L31.1482 4.1886C30.7472 4.25483 30.4749 4.63377 30.5412 5.03479C30.6 5.39534 30.9128 5.65288 31.266 5.65288Z" fill="black"></path>
<path d="M44.0003 3.55541C44.0408 3.55541 44.0813 3.55541 44.1217 3.54437L45.9355 3.24636C46.3365 3.18014 46.6088 2.80119 46.5426 2.40017C46.4763 1.99915 46.0974 1.7269 45.6964 1.79313L43.8826 2.09113C43.4816 2.15735 43.2093 2.5363 43.2755 2.93732C43.3344 3.29787 43.6471 3.55541 44.0003 3.55541Z" fill="black"></path>
<path d="M45.9355 8.43293L44.1217 8.13492C43.7207 8.0687 43.3418 8.34095 43.2755 8.74197C43.2093 9.14299 43.4816 9.52194 43.8826 9.58816L45.6964 9.88616C45.7369 9.89352 45.7773 9.8972 45.8178 9.8972C46.171 9.8972 46.4837 9.63967 46.5426 9.27912C46.6088 8.8781 46.3365 8.49915 45.9355 8.43293Z" fill="black"></path>
<path d="M34.5734 6.55774L31.3874 6.03531C30.9863 5.96909 30.6074 6.24134 30.5412 6.64236C30.4749 7.04338 30.7472 7.42233 31.1482 7.48855L34.3343 8.01098C34.3748 8.01834 34.4152 8.02202 34.4557 8.02202C34.8089 8.02202 35.1216 7.76448 35.1805 7.40393C35.2467 7.00291 34.9745 6.62397 34.5734 6.55774Z" fill="black"></path>
<path d="M40.9484 7.60852L37.7624 7.0861C37.3613 7.01987 36.9824 7.29212 36.9162 7.69314C36.8499 8.09416 37.1222 8.47311 37.5232 8.53933L40.7093 9.06176C40.7498 9.06912 40.7902 9.0728 40.8307 9.0728C41.1839 9.0728 41.4966 8.81526 41.5555 8.45471C41.6217 8.05369 41.3495 7.67475 40.9484 7.60852Z" fill="black"></path>
</svg>
