<svg width="50" height="44" viewBox="0 0 50 44" fill="none" xmlns="http://www.w3.org/2000/svg">
<g clip-path="url(#clip0_1_159)">
<path d="M46.9401 23.17C48.1101 25.51 48.7701 28.14 48.7701 30.93V32.57C48.7701 36.2 45.8301 39.14 42.2001 39.14H20.6301C17.0001 39.14 14.0601 36.2 14.0601 32.57V30.93C14.0601 21.35 21.8301 13.58 31.4101 13.58C34.2201 13.58 36.8801 14.25 39.2201 15.44" stroke="black" stroke-miterlimit="10"></path>
<path d="M39.23 15.43C39.36 15.5 39.49 15.56 39.62 15.63" stroke="black" stroke-miterlimit="10"></path>
<path d="M19.28 18.76C21.18 19.33 25.95 19.73 31.54 19.73C34.29 19.73 36.84 19.63 38.95 19.46" stroke="black" stroke-miterlimit="10"></path>
<path d="M14.0601 31.61C16.7301 32.41 23.4301 32.98 31.2801 32.98C39.1301 32.98 45.8401 32.41 48.5001 31.61" stroke="black" stroke-miterlimit="10"></path>
<path d="M49.5099 18.44C49.5099 21.36 47.15 23.72 44.2299 23.72C41.3099 23.72 38.95 21.36 38.95 18.44C38.95 15.52 41.3199 13.17 44.2299 13.17C47.14 13.17 49.5099 15.53 49.5099 18.45V18.44Z" stroke="black" stroke-miterlimit="10" stroke-linecap="round"></path>
<path d="M44.23 15.69V21.01" stroke="black" stroke-miterlimit="10" stroke-linecap="round"></path>
<path d="M41.5699 18.36H46.8899" stroke="black" stroke-miterlimit="10" stroke-linecap="round"></path>
<path d="M31.51 37.06C31.96 37.06 32.32 36.7 32.32 36.25C32.32 35.8 31.96 35.44 31.51 35.44C31.06 35.44 30.7 35.8 30.7 36.25C30.7 36.7 31.06 37.06 31.51 37.06Z" stroke="#1D1D1F" stroke-miterlimit="10"></path>
<path d="M11.8999 19.77C14.6199 18.21 16.4099 16.25 15.9099 15.39C15.4099 14.53 12.7999 15.09 10.0799 16.65C7.35995 18.21 5.56995 20.17 6.06995 21.03C6.56995 21.89 9.17994 21.33 11.8999 19.77Z" stroke="black" stroke-miterlimit="10" stroke-linecap="round"></path>
<path d="M15.0601 25.23C10.0101 28.12 4.79006 28.21 3.20006 25.47C1.61006 22.73 4.41006 18.17 9.46006 15.27C14.5101 12.38 19.9001 12.25 21.4901 14.99C21.6801 15.31 21.8001 15.65 21.8701 16.02" stroke="black" stroke-miterlimit="10" stroke-linecap="round"></path>
<path d="M19.64 13.46C19.75 13.57 19.84 13.7 19.91 13.83C21.16 15.98 18.39 19.9 13.71 22.58C13.33 22.79 12.96 22.99 12.59 23.18" stroke="black" stroke-miterlimit="10" stroke-linecap="round"></path>
<path d="M7.56005 24.82C5.38005 25.11 3.66005 24.71 2.98005 23.54C2.90005 23.41 2.84005 23.27 2.80005 23.13" stroke="black" stroke-miterlimit="10" stroke-linecap="round"></path>
<path d="M15.6201 37.21H1.75006C1.09006 37.21 0.560059 36.68 0.560059 36.03V6.04C0.560059 5.39 1.09006 4.86 1.75006 4.86H22.9401C23.6001 4.86 24.1301 5.39 24.1301 6.04V14.7" stroke="black" stroke-miterlimit="10" stroke-linecap="round"></path>
</g>
<defs>
<clipPath id="clip0_1_159">
<rect width="50" height="44" fill="white"></rect>
</clipPath>
</defs>
</svg>
