<svg xmlns="http://www.w3.org/2000/svg" fill="none" viewBox="0 0 47 45" height="45" width="47">
<path stroke-linecap="round" stroke="#FBFCFF" d="M22.1791 44C10.432 43.7075 1 34.1936 1 22.5C1 10.8064 10.432 1.29253 22.1791 1"></path>
<path stroke-linecap="round" stroke="#FBFCFF" d="M24.7462 0.999997C36.4934 1.29253 45.9254 10.8064 45.9254 22.5C45.9254 34.1936 36.4934 43.7075 24.7462 44"></path>
<g clip-path="url(#clip0_1352_9362)">
<path stroke-miterlimit="10" stroke="#FBFCFF" d="M32.6095 18.8694H27.1313V13.3912C27.1313 11.6694 25.7226 10.2607 24.0008 10.2607C22.2791 10.2607 20.8704 11.6694 20.8704 13.3912V18.8694H15.3922C13.6704 18.8694 12.2617 20.2781 12.2617 21.9999C12.2617 23.7216 13.6704 25.1303 15.3922 25.1303H20.8704V30.6086C20.8704 32.3303 22.2791 33.739 24.0008 33.739C25.7226 33.739 27.1313 32.3303 27.1313 30.6086V25.1303H32.6095C34.3313 25.1303 35.74 23.7216 35.74 21.9999C35.74 20.2781 34.3313 18.8694 32.6095 18.8694Z"></path>
</g>
<defs>
<clipPath id="clip0_1352_9362">
<rect transform="translate(12 9)" fill="white" height="26" width="24"></rect>
</clipPath>
</defs>
</svg>
