<svg xmlns="http://www.w3.org/2000/svg" fill="none" viewBox="0 0 18 20" height="20" width="18">
<path stroke-miterlimit="10" stroke="#3E5FED" d="M4.20538 10.2081C7.00606 10.2081 9.29195 12.4939 9.29195 15.2946C9.29195 15.4093 9.38264 15.5 9.49733 15.5C9.61203 15.5 9.70272 15.4093 9.70272 15.2946C9.70272 12.4939 11.9886 10.2081 14.7946 10.2081C14.8986 10.2081 15 10.1174 15 10.0027C15 9.88797 14.9013 9.79728 14.7946 9.79728C11.9859 9.79728 9.70272 7.5114 9.70272 4.70538C9.70272 4.60136 9.61203 4.5 9.49733 4.5C9.38264 4.5 9.29195 4.59869 9.29195 4.70538C9.29195 7.51406 7.00606 9.79728 4.20538 9.79728C4.09069 9.79728 4 9.88797 4 10.0027C4 10.1174 4.09069 10.2081 4.20538 10.2081Z"></path>
</svg>
