<svg xmlns="http://www.w3.org/2000/svg" fill="none" viewBox="0 0 34 34" height="34" width="34">
<mask height="34" width="34" y="0" x="0" maskUnits="userSpaceOnUse" style="mask-type:alpha" id="mask0_972_10803">
<rect fill="#D9D9D9" height="34" width="34"></rect>
</mask>
<g mask="url(#mask0_972_10803)">
<path fill="#3E5FED" d="M2.83398 11.6524C2.83398 9.85061 3.4461 8.33903 4.67034 7.11763C5.89434 5.89623 7.40722 5.28552 9.20898 5.28552C10.4549 5.28552 11.6237 5.60427 12.7152 6.24177C13.8068 6.87927 14.763 7.80648 15.584 9.0234C16.4049 7.80648 17.3612 6.87927 18.4527 6.24177C19.5443 5.60427 20.713 5.28552 21.959 5.28552C23.531 5.28552 24.8817 5.75456 26.011 6.69263C27.1401 7.6307 27.8481 8.81538 28.1349 10.2467C28.1914 10.4372 28.1714 10.6156 28.0751 10.7818C27.979 10.9481 27.8356 11.0594 27.6448 11.1158C27.454 11.172 27.2755 11.1519 27.1093 11.0556C26.9431 10.9595 26.8318 10.8161 26.7757 10.6253C26.5504 9.46292 25.9882 8.51847 25.0891 7.79196C24.1902 7.06545 23.1469 6.70219 21.959 6.70219C20.782 6.70219 19.7222 7.05459 18.7796 7.75938C17.8371 8.46393 17.0262 9.31936 16.3469 10.3257C16.2614 10.4662 16.1503 10.5671 16.0136 10.6285C15.8769 10.6899 15.7316 10.7206 15.5776 10.7206C15.4239 10.7206 15.2802 10.6855 15.1466 10.6154C15.0132 10.545 14.9047 10.4484 14.8211 10.3257C14.1418 9.31936 13.3309 8.46393 12.3883 7.75938C11.4458 7.05459 10.386 6.70219 9.20898 6.70219C7.82679 6.70219 6.65485 7.17111 5.69317 8.10894C4.73149 9.04677 4.25065 10.2279 4.25065 11.6524C4.25065 12.4474 4.41593 13.2544 4.74648 14.0735C5.07704 14.8923 5.66732 15.8378 6.51732 16.91C7.36732 17.9819 8.52426 19.2384 9.98815 20.6794C11.452 22.1206 13.3173 23.8692 15.584 25.9253L19.0902 22.6995C19.2465 22.5671 19.4189 22.507 19.6073 22.5193C19.796 22.5318 19.9551 22.6064 20.0847 22.7431C20.2408 22.8994 20.3129 23.0752 20.3011 23.2705C20.2893 23.4657 20.2027 23.6296 20.0412 23.762L16.6164 26.9141C16.4657 27.0596 16.3001 27.1594 16.1195 27.2138C15.9386 27.2683 15.7579 27.2956 15.5773 27.2956C15.3964 27.2956 15.2179 27.2683 15.0418 27.2138C14.8656 27.1594 14.7022 27.0569 14.5516 26.906C12.5446 25.0716 10.8024 23.4434 9.3248 22.0213C7.84721 20.5992 6.62982 19.2974 5.67263 18.1159C4.71567 16.9344 4.00332 15.8242 3.53559 14.7853C3.06785 13.7464 2.83398 12.7021 2.83398 11.6524ZM25.1192 19.1253H21.5775C21.3769 19.1253 21.2086 19.0573 21.0729 18.9213C20.9371 18.7853 20.8692 18.6168 20.8692 18.4159C20.8692 18.215 20.9371 18.0469 21.0729 17.9116C21.2086 17.7763 21.3769 17.7086 21.5775 17.7086H25.1192V14.167C25.1192 13.9663 25.1872 13.798 25.3232 13.6623C25.4592 13.5265 25.6277 13.4586 25.8286 13.4586C26.0295 13.4586 26.1976 13.5265 26.3329 13.6623C26.4682 13.798 26.5359 13.9663 26.5359 14.167V17.7086H30.0775C30.2782 17.7086 30.4465 17.7766 30.5822 17.9126C30.718 18.0486 30.7859 18.2171 30.7859 18.418C30.7859 18.619 30.718 18.7871 30.5822 18.9224C30.4465 19.0576 30.2782 19.1253 30.0775 19.1253H26.5359V22.667C26.5359 22.8677 26.4679 23.0359 26.3319 23.1716C26.1961 23.3074 26.0277 23.3753 25.8265 23.3753C25.6256 23.3753 25.4574 23.3074 25.3222 23.1716C25.1869 23.0359 25.1192 22.8677 25.1192 22.667V19.1253Z"></path>
</g>
</svg>
