<svg xmlns="http://www.w3.org/2000/svg" fill="none" viewBox="0 0 35 28" height="28" width="35">
<path stroke-linecap="round" stroke-miterlimit="10" stroke="#3E5FED" d="M25.8102 9.43356C25.6489 11.7394 25.3436 14.4365 24.7728 15.9892C24.7728 16.0087 24.7728 16.0308 24.7728 16.0479C24.7728 16.0552 24.7629 16.0601 24.743 16.0674C23.4475 19.1606 20.6208 20.9065 17.2382 20.9065C12.6519 20.9065 8.93171 16.9404 8.93171 12.0475C8.93171 11.5511 8.90193 5.91978 8.90193 4.84144C8.90193 2.72143 7.22426 1 5.01053 1C2.7968 1 1 2.71654 1 4.83899C1 5.91489 1.46409 6.88808 2.20862 7.58497C1.46409 8.28186 1 9.25506 1 10.331C1 11.6758 1.72219 12.8569 2.81169 13.544C2.40468 14.1455 2.16643 14.8619 2.16643 15.6322C2.16643 17.471 3.51403 19.0066 5.31579 19.3831C5.29097 19.5568 5.27608 19.7353 5.27608 19.9138C5.27608 22.0338 7.07039 23.7552 9.28661 23.7552C9.78792 23.7552 10.2669 23.6672 10.7087 23.5058C10.9916 25.3617 12.6593 26.7848 14.6745 26.7848C15.7442 26.7848 16.7145 26.3838 17.4318 25.7309C18.1664 26.5085 19.2261 27 20.4074 27C22.3928 27 24.0432 25.616 24.3608 23.7992C24.7405 23.9117 25.1426 23.9728 25.5595 23.9728C27.7733 23.9728 29.4857 22.6646 29.4857 20.5446C29.4857 20.3025 29.4609 20.0654 29.4162 19.8355C31.3296 19.5445 32.7889 17.9576 32.7889 16.043C32.7889 15.2361 32.5283 14.4854 32.0816 13.8667C33.1785 13.1821 33.9032 11.9961 33.9032 10.6488C33.9032 9.61939 33.4788 8.68532 32.7914 7.99577C33.5359 7.29888 34 6.32568 34 5.24734C34 3.12734 32.2057 1.40591 29.9895 1.40591C27.7733 1.40591 25.9789 3.12489 25.9789 5.24734C25.9789 5.33048 25.9765 5.575 25.9665 5.93689"></path>
</svg>
