<svg xmlns="http://www.w3.org/2000/svg" fill="none" viewBox="0 0 36 8" height="8" width="36">
<path fill="#FBFCFF" d="M6.24656 0.5C6.49156 0.913118 6.59547 1.33314 6.59547 1.86594C6.59547 3.56905 5.20969 5.77963 4.08859 7.34465H1.53688L0.5 0.871692L2.74437 0.638091L3.28578 5.24108C3.79875 4.38377 4.42438 3.01669 4.42438 2.08228C4.42438 1.5794 4.33359 1.22497 4.20234 0.93153L6.24656 0.5ZM9.1625 3.34005C9.56828 3.34005 10.6205 3.14212 10.6205 2.52532C10.6205 2.22037 10.4159 2.06387 10.183 2.06387C9.76187 2.06387 9.21937 2.60357 9.1625 3.34005ZM9.11766 4.56905C9.11766 5.33659 9.5114 5.64154 10.0528 5.64154C10.6336 5.64154 11.1739 5.48619 11.9034 5.10299L11.6245 7.0374C11.117 7.29517 10.3252 7.47008 9.55625 7.47008C7.61375 7.47008 6.91266 6.24108 6.91266 4.67606C6.91266 2.66341 8.05344 0.528769 10.3875 0.528769C11.6694 0.528769 12.3989 1.28366 12.3989 2.3458C12.3989 4.03049 10.3131 4.56905 9.11766 4.5817V4.56905ZM18.8772 2.00288C18.8772 2.2664 18.8302 2.62083 18.8028 2.86709L18.1302 7.34465H15.9427L16.5584 3.23303L16.5978 2.77158C16.5978 2.46663 16.4272 2.40679 16.2216 2.40679C15.9252 2.40679 15.6353 2.54488 15.4647 2.63349L14.7636 7.3458H12.5761L13.5681 0.639241H15.4658L15.4931 1.17779C15.9437 0.872843 16.542 0.518413 17.3733 0.518413C18.4791 0.518413 18.8783 1.13061 18.8783 2.02359L18.8772 2.00288ZM25.3653 1.25489C25.9909 0.793441 26.5728 0.517262 27.4041 0.517262C28.5153 0.517262 28.908 1.12946 28.908 2.02244C28.9036 2.30437 28.8806 2.58516 28.8347 2.86824L28.162 7.3458H25.9745L26.6002 3.15593L26.6352 2.81991C26.6352 2.48504 26.4591 2.40679 26.2359 2.40679C25.9745 2.40679 25.7011 2.52647 25.5064 2.63349L24.8119 7.3458H22.6244L23.2511 3.14327L23.2784 2.81991C23.2784 2.48504 23.1023 2.40679 22.8858 2.40679C22.5883 2.40679 22.3159 2.54488 22.1213 2.63349L21.4377 7.33314H19.2403L20.2422 0.639241H22.1103L22.1847 1.1962C22.6233 0.854431 23.2041 0.518413 23.9905 0.518413C24.6916 0.518413 25.1313 0.825662 25.3642 1.25604L25.3653 1.25489ZM33.2545 3.20196C33.2545 2.66341 33.1233 2.28021 32.7416 2.28021C31.8709 2.28021 31.6948 3.89241 31.6948 4.70713C31.6948 5.33659 31.8534 5.71979 32.2472 5.71979C33.0609 5.71979 33.2545 4.0305 33.2545 3.20196ZM29.4603 4.61047C29.4603 2.49655 30.5442 0.517262 32.9767 0.517262C34.8273 0.517262 35.5 1.66801 35.5 3.25144C35.5 5.33659 34.4511 7.5 31.9398 7.5C30.0881 7.5 29.4603 6.22382 29.4603 4.61047Z" id="Vector"></path>
</svg>
