<svg xmlns="http://www.w3.org/2000/svg" fill="none" viewBox="0 0 55 44" height="44" width="55">
<g clip-path="url(#clip0_1400_17794)" id="Layer_1">
<path stroke-linecap="round" stroke-miterlimit="10" stroke="#3E5FED" d="M40.991 14.0209C40.729 17.7985 40.2333 22.2171 39.3064 24.7609C39.3064 24.7929 39.3064 24.829 39.3064 24.857C39.3064 24.8691 39.2902 24.8771 39.258 24.8891C37.1543 29.9566 32.5639 32.8169 27.0708 32.8169C19.6231 32.8169 13.5819 26.3192 13.5819 18.3033C13.5819 17.4901 13.5335 8.26434 13.5335 6.49771C13.5335 3.02454 10.8092 0.204346 7.21426 0.204346C3.61937 0.204346 0.701538 3.01653 0.701538 6.49371C0.701538 8.25633 1.45518 9.8507 2.66422 10.9924C1.45518 12.1341 0.701538 13.7285 0.701538 15.4911C0.701538 17.6944 1.87431 19.6293 3.64355 20.7549C2.9826 21.7404 2.59571 22.9141 2.59571 24.176C2.59571 27.1885 4.78408 29.7043 7.70997 30.3212C7.66967 30.6056 7.64549 30.898 7.64549 31.1905C7.64549 34.6636 10.5593 37.4838 14.1582 37.4838C14.9723 37.4838 15.7501 37.3396 16.4675 37.0752C16.9269 40.1158 19.6352 42.4472 22.9077 42.4472C24.6447 42.4472 26.2205 41.7902 27.3852 40.7207C28.5781 41.9945 30.299 42.7997 32.2173 42.7997C35.4414 42.7997 38.1215 40.5324 38.6374 37.5559C39.254 37.7402 39.9069 37.8404 40.5839 37.8404C44.1788 37.8404 46.9596 35.6972 46.9596 32.224C46.9596 31.8274 46.9193 31.4388 46.8468 31.0623C49.954 30.5856 52.3237 27.9857 52.3237 24.849C52.3237 23.5271 51.9006 22.2972 51.1752 21.2837C52.9565 20.1621 54.1333 18.2192 54.1333 16.0119C54.1333 14.3254 53.4441 12.7951 52.3278 11.6654C53.5368 10.5237 54.2905 8.92933 54.2905 7.1627C54.2905 3.68953 51.3767 0.869336 47.7777 0.869336C44.1788 0.869336 41.265 3.68553 41.265 7.1627C41.265 7.29891 41.261 7.6995 41.2449 8.29238" id="Vector"></path>
</g>
<defs>
<clipPath id="clip0_1400_17794">
<rect transform="translate(0.5)" fill="white" height="44" width="54"></rect>
</clipPath>
</defs>
</svg>
