<svg xmlns="http://www.w3.org/2000/svg" fill="none" viewBox="0 0 40 44" height="44" width="40">
<g clip-path="url(#clip0_1400_17807)" id="Layer_1">
<path stroke-miterlimit="10" stroke="#3E5FED" d="M3.60791 28.5086C3.60791 28.7086 3.76493 28.8667 3.96351 28.8667C11.9205 28.8667 18.3905 35.3869 18.3905 43.414C18.3905 43.5954 18.5475 43.7721 18.7461 43.7721C18.9447 43.7721 19.1017 43.6 19.1017 43.414C19.1017 35.3823 25.5763 28.8667 33.5287 28.8667C33.7273 28.8667 33.8843 28.7086 33.8843 28.5086C33.8843 28.3086 33.7273 28.1505 33.5287 28.1505C25.5717 28.1505 19.1017 21.6302 19.1017 13.6218C19.1017 13.4218 18.9447 13.2637 18.7461 13.2637C18.5475 13.2637 18.3905 13.4218 18.3905 13.6218C18.3905 21.6349 11.9159 28.1505 3.96351 28.1505C3.76493 28.1458 3.60791 28.3086 3.60791 28.5086Z" id="Vector"></path>
<path stroke-linecap="round" stroke-miterlimit="10" stroke="#3E5FED" d="M4.51317 13.2684C3.57108 14.0311 2.3796 14.4869 1.08191 14.4869C0.901807 14.4869 0.726318 14.645 0.726318 14.845C0.726318 15.0263 0.892571 15.2031 1.08191 15.2031C4.10678 15.2031 6.56824 17.6633 6.56824 20.7095C6.56824 20.9094 6.72525 21.0676 6.92383 21.0676C7.12241 21.0676 7.27943 20.9094 7.27943 20.7095C7.27943 17.6633 9.74088 15.2031 12.7473 15.2031C12.9459 15.2031 13.1029 15.031 13.1029 14.845C13.1029 14.645 12.9459 14.4869 12.7473 14.4869C9.73627 14.4869 7.27943 12.0081 7.27943 8.96186C7.27943 8.76188 7.12241 8.60376 6.92383 8.60376C6.72525 8.60376 6.56824 8.76188 6.56824 8.96186C6.56824 9.61296 6.4574 10.2408 6.24959 10.8221" id="Vector_2"></path>
<path stroke-miterlimit="10" stroke="#3E5FED" d="M20.5841 10.1802C25.4331 10.1802 29.3909 14.1658 29.3909 19.049C29.3909 19.249 29.5479 19.4072 29.7465 19.4072C29.945 19.4072 30.1021 19.249 30.1021 19.049C30.1021 14.1658 34.0598 10.1802 38.918 10.1802C39.0981 10.1802 39.2736 10.0221 39.2736 9.82212C39.2736 9.62214 39.1028 9.46402 38.918 9.46402C34.0552 9.46402 30.1021 5.47839 30.1021 0.585885C30.1021 0.404509 29.945 0.227783 29.7465 0.227783C29.5479 0.227783 29.3909 0.399858 29.3909 0.585885C29.3909 5.48304 25.4331 9.46402 20.5841 9.46402C20.3855 9.46402 20.2285 9.62214 20.2285 9.82212C20.2285 10.0221 20.3855 10.1802 20.5841 10.1802Z" id="Vector_3"></path>
</g>
<defs>
<clipPath id="clip0_1400_17807">
<rect transform="translate(0.5)" fill="white" height="44" width="39"></rect>
</clipPath>
</defs>
</svg>
