<svg viewBox="0 0 1500 290" version="1.1" xmlns="http://www.w3.org/2000/svg" id="Layer_1">
  
  <defs>
    <style>
      .st0 {
        fill: #939299;
      }

      .st1 {
        fill: #f7f3ef;
      }
    </style>
  </defs>
  <path d="M1450,245.8c-17.2,0-38.9,2.1-48.7-15.4-3.9-7-4.7-14.9-5.1-22.8V50h30.2v154.5c.4,3,.5,6.3,2,9,3.9,7.3,14.7,5.3,21.6,5.6v26.7Z" class="st0"></path>
  <rect height="22.7" width=".3" y="223.5" x="50" class="st1"></rect>
  <path d="M937.7,247.3v.3h-9.3v-.3c3,.1,6.3,0,9.3,0Z" class="st0"></path>
  <path d="M680.6,245.8V46.8h72.5s8.1.6,8.1.6c55.4,5.4,89.1,46.1,87.9,101.3-1.2,56.4-38.7,94.9-95.2,97.2h-73.4ZM713.1,217.4c24.9-.8,50.7,3.8,72.9-9.8,19.1-11.7,28.4-33.6,29.4-55.5,2.1-44.3-19.6-75.2-65.5-76.9h-36.8v142.1Z" class="st0"></path>
  <path d="M494.9,246.1h-30.5v-86.2c-1.1-21.4-12.3-36.3-35.3-33.5-18.6,2.2-27.2,15.8-28.1,33.5v86.2s-30.8,0-30.8,0v-88.2c-.9-17.2-8.8-31.6-27.5-33-22.3-1.7-37,10.2-38.2,32.7v88.5s-30.5,0-30.5,0V100h17.3c3.6,0,7.2,3,8.9,5.9s1.9,4.9,2.8,6.1c2.2,2.8,5.1-2,6.7-3.4,6.8-6.1,15.8-8.8,24.8-9.7,18.4-1.8,35.6.8,47.2,16.5s2.8,5.1,4.1,6.6,1.9,1.3,3.1.2,3.4-4.9,5.1-6.8c9.5-10.7,22.4-15.6,36.5-16.7,39-3.2,62.6,19.1,64.4,57.7v89.9Z" class="st1"></path>
  <path d="M50.3,223.5l108.9-145.8c1-.6-.1-2.4-.6-2.4H53.2v-28.8h152.3v22.5l-109.4,146.6c-.2.8.7,1.8,1.4,1.8h111.1v28.8H50.3v-22.7Z" class="st1"></path>
  <path d="M1380,246.1h-17c-3.8,0-7.7-4.2-9.2-7.4s-1.9-6.4-2.5-7.3-1.6-.4-2.3,0c-3.4,1.7-7.2,4.9-10.9,6.8-69.8,37-136.1-47.2-92-109.1,39.9-56,126.8-31,133.6,36l.3,80.9ZM1302.3,127.4c-34.4,2.7-52.5,42.6-33.5,71.1,18,26.9,58.2,26.5,75.5-.9,20.2-32-4.3-73.2-42-70.2Z" class="st0"></path>
  <path d="M656.1,246.1h-16.4c-4.3,0-8.1-4-9.8-7.7s-2-6.7-2.7-7.2-1.4-.1-2.1.3c-3.3,1.7-6.9,4.6-10.4,6.5-69.2,37.4-136.2-45.8-93-108.1,40.1-57.9,129.9-31.2,134.3,37.8v78.3ZM578.5,127.4c-30.6,2.4-49.5,35.4-37.5,63.5,14.6,34.3,62.6,37.3,80.9,4.6,17.9-32.1-6.7-71-43.4-68.1Z" class="st1"></path>
  <path d="M928.4,247.3c-44.3-1.5-70.1-34.2-68.3-77.5,2-47.5,37.5-75.5,84.3-68.6,34.1,5,54.6,31,56,64.9,0,4.8,0,9.6-.9,14.4h-107.8c-.3,14.4,5.6,29.2,18.3,36.7,13.2,7.8,33.5,7.5,45.9-1.7,5.8-4.3,9.9-10.8,11.6-17.8h30.2c-4.9,29.7-30.8,48.7-60.1,49.7s-6.3.1-9.3,0ZM969.1,158.1c-1.3-11.7-7.2-22.6-17.6-28.4-10.1-5.6-24.1-6.3-34.8-2.4-13.1,4.8-22.5,16.8-23.7,30.8h76.1Z" class="st0"></path>
  <path d="M1147.8,245.8h-30.5v-82.1c-1-20.2-9.8-36.2-31.8-37.3-26.4-1.3-39.4,18.7-40.6,42.9v76.6s-30.2,0-30.2,0V102h16.1c4.1,0,8.5,4.9,10.4,8.2s2,5.6,3.2,7.3.7,1.1,1.3,1.1c3.1-2.7,6-5.7,9.4-8.1,13.5-9.7,31-11.8,47.3-9.3,31.5,4.8,44.4,30,45.5,59.7v85Z" class="st0"></path>
  <path d="M1192.3,61.9v40.1h34.6v26.7h-34.6v77.4c0,6.9,4.9,12.9,12.1,12.9h25.7v26.7c-10.6-.4-21.6.5-32.1,0-24.3-1.1-34.9-12.8-35.9-36.8V61.9h30.2Z" class="st0"></path>
  <rect height="146.2" width="30.5" y="100" x="225.8" class="st1"></rect>
  <path d="M239.1,42.5c27.5-2.6,29.1,37.4,3.4,38.6-25.6,1.1-27.5-36.3-3.4-38.6Z" class="st1"></path>
</svg>