<svg xmlns="http://www.w3.org/2000/svg" fill="none" viewBox="0 0 75 75" height="75" width="75">
<path fill="#FBFCFF" d="M6.69012 31.533C6.47099 31.3126 6.17329 31.1884 5.86252 31.1875C5.55175 31.1866 5.25336 31.3093 5.03301 31.5284C4.81265 31.7475 4.68837 32.0452 4.6875 32.356C4.68664 32.6668 4.80927 32.9652 5.02841 33.1855C6.17089 34.3303 6.81254 35.8815 6.81254 37.4988C6.81254 39.1161 6.17089 40.6673 5.02841 41.8121C4.80927 42.0324 4.68664 42.3308 4.6875 42.6416C4.68837 42.9524 4.81265 43.2501 5.03301 43.4692C5.25336 43.6883 5.55175 43.811 5.86252 43.8101C6.17329 43.8092 6.47099 43.685 6.69012 43.4646C8.26945 41.8808 9.15633 39.7354 9.15633 37.4988C9.15633 35.2621 8.26945 33.1168 6.69012 31.533Z"></path>
<path fill="#FBFCFF" d="M10.5765 27.6518C10.3567 27.432 10.0587 27.3086 9.74792 27.3086C9.43715 27.3086 9.13911 27.4321 8.91936 27.6518C8.69962 27.8716 8.57617 28.1696 8.57617 28.4804C8.57618 28.7912 8.69964 29.0892 8.91939 29.3089C11.0873 31.484 12.3045 34.4297 12.3045 37.5006C12.3045 40.5715 11.0873 43.5172 8.91939 45.6923C8.81058 45.8011 8.72427 45.9303 8.66539 46.0724C8.6065 46.2146 8.57619 46.367 8.57619 46.5209C8.57619 46.6747 8.6065 46.8271 8.66539 46.9693C8.72427 47.1114 8.81058 47.2406 8.91939 47.3494C9.0282 47.4582 9.15737 47.5445 9.29953 47.6034C9.44169 47.6623 9.59406 47.6926 9.74794 47.6926C9.90182 47.6926 10.0542 47.6623 10.1963 47.6034C10.3385 47.5445 10.4677 47.4582 10.5765 47.3494C13.184 44.7349 14.6483 41.1931 14.6483 37.5006C14.6483 33.8081 13.184 30.2663 10.5765 27.6518Z"></path>
<path fill="#FBFCFF" d="M12.989 24.6433C12.88 24.752 12.7934 24.881 12.7343 25.0231C12.6752 25.1652 12.6447 25.3175 12.6445 25.4714C12.6442 25.6253 12.6743 25.7777 12.7331 25.92C12.7918 26.0622 12.8779 26.1915 12.9866 26.3005C15.9517 29.2734 17.6169 33.3008 17.6169 37.4996C17.6169 41.6985 15.9517 45.7259 12.9866 48.6988C12.8771 48.8076 12.7902 48.9369 12.7308 49.0794C12.6714 49.2219 12.6408 49.3747 12.6406 49.529C12.6405 49.6834 12.6708 49.8362 12.7299 49.9788C12.789 50.1214 12.8757 50.2509 12.985 50.3599C13.0943 50.4689 13.224 50.5552 13.3667 50.6139C13.5095 50.6726 13.6624 50.7025 13.8168 50.7019C13.9711 50.7013 14.1238 50.6703 14.2661 50.6105C14.4084 50.5507 14.5375 50.4635 14.646 50.3537C18.0494 46.9415 19.9606 42.3189 19.9606 37.4996C19.9606 32.6804 18.0494 28.0578 14.646 24.6456C14.5374 24.5365 14.4084 24.4499 14.2663 24.3907C14.1242 24.3316 13.9719 24.301 13.8179 24.3008C13.664 24.3006 13.5116 24.3307 13.3693 24.3895C13.2271 24.4483 13.0978 24.5345 12.989 24.6433ZM37.4999 65.8432C36.3921 65.8411 35.2947 66.0579 34.2709 66.4811C33.2471 66.9043 32.317 67.5257 31.5341 68.3094C31.425 68.4179 31.3383 68.5469 31.279 68.6889C31.2197 68.8309 31.189 68.9832 31.1886 69.137C31.1882 69.2909 31.218 69.4434 31.2765 69.5857C31.335 69.728 31.421 69.8574 31.5295 69.9666C31.638 70.0757 31.7669 70.1623 31.9089 70.2216C32.0509 70.2809 32.2032 70.3116 32.3571 70.3121C32.511 70.3125 32.6634 70.2826 32.8058 70.2241C32.9481 70.1656 33.0775 70.0797 33.1866 69.9711C34.3313 68.8287 35.8826 68.187 37.4999 68.187C39.1172 68.187 40.6684 68.8287 41.8132 69.9711C42.0335 70.1903 42.3319 70.3129 42.6427 70.3121C42.9534 70.3112 43.2511 70.1869 43.4703 69.9666C43.6894 69.7462 43.8121 69.4478 43.8112 69.137C43.8103 68.8263 43.6861 68.5286 43.4657 68.3094C42.6827 67.5257 41.7526 66.9043 40.7288 66.4811C39.705 66.0579 38.6077 65.8411 37.4999 65.8432Z"></path>
<path fill="#FBFCFF" d="M37.5006 60.3516C35.6713 60.3455 33.8589 60.7022 32.1684 61.4011C30.4778 62.1 28.9427 63.1273 27.6518 64.4234C27.543 64.5323 27.4567 64.6614 27.3978 64.8036C27.3389 64.9458 27.3086 65.0981 27.3086 65.252C27.3086 65.4059 27.3389 65.5582 27.3978 65.7004C27.4567 65.8426 27.543 65.9718 27.6518 66.0806C27.7606 66.1894 27.8898 66.2757 28.0319 66.3346C28.1741 66.3934 28.3265 66.4238 28.4804 66.4238C28.6342 66.4238 28.7866 66.3934 28.9288 66.3346C29.0709 66.2757 29.2001 66.1894 29.3089 66.0805C31.484 63.9127 34.4297 62.6954 37.5006 62.6954C40.5715 62.6954 43.5172 63.9127 45.6923 66.0805C45.8011 66.1894 45.9302 66.2757 46.0724 66.3346C46.2146 66.3934 46.3669 66.4238 46.5208 66.4238C46.6747 66.4238 46.8271 66.3934 46.9692 66.3346C47.1114 66.2757 47.2406 66.1894 47.3494 66.0806C47.4582 65.9718 47.5445 65.8426 47.6034 65.7004C47.6623 65.5582 47.6926 65.4059 47.6926 65.252C47.6926 65.0981 47.6623 64.9458 47.6034 64.8036C47.5445 64.6614 47.4582 64.5323 47.3494 64.4234C46.0585 63.1273 44.5233 62.1 42.8328 61.4011C41.1423 60.7022 39.3299 60.3455 37.5006 60.3516Z"></path>
<path fill="#FBFCFF" d="M37.5004 55.038C35.1132 55.0321 32.7484 55.4987 30.5423 56.4108C28.3362 57.323 26.3324 58.6627 24.6464 60.3527C24.5372 60.4613 24.4504 60.5903 24.3911 60.7325C24.3318 60.8747 24.3011 61.0271 24.3008 61.1811C24.3005 61.3352 24.3305 61.4877 24.3892 61.6301C24.4479 61.7725 24.5341 61.902 24.6428 62.011C24.7516 62.1201 24.8808 62.2067 25.023 62.2657C25.1653 62.3248 25.3178 62.3553 25.4718 62.3554C25.6258 62.3555 25.7784 62.3252 25.9207 62.2663C26.063 62.2074 26.1923 62.121 26.3012 62.0121C29.2741 59.0469 33.3016 57.3818 37.5004 57.3818C41.6992 57.3818 45.7267 59.0469 48.6996 62.0121C48.9197 62.2309 49.2178 62.3535 49.5282 62.3528C49.8387 62.3522 50.1362 62.2283 50.3554 62.0085C50.5746 61.7887 50.6977 61.4908 50.6975 61.1804C50.6973 60.8699 50.5739 60.5722 50.3544 60.3527C48.6684 58.6627 46.6646 57.323 44.4585 56.4108C42.2524 55.4987 39.8876 55.0321 37.5004 55.038ZM68.1877 37.4988C68.1866 36.6978 68.3437 35.9045 68.6498 35.1643C68.956 34.4241 69.4053 33.7517 69.9719 33.1855C70.0804 33.0764 70.1663 32.947 70.2248 32.8047C70.2833 32.6623 70.3132 32.5099 70.3128 32.356C70.3124 32.2021 70.2816 32.0498 70.2223 31.9078C70.1631 31.7658 70.0764 31.6369 69.9673 31.5284C69.8582 31.4199 69.7288 31.3339 69.5864 31.2755C69.4441 31.217 69.2916 31.1871 69.1378 31.1875C68.9839 31.1879 68.8316 31.2187 68.6896 31.2779C68.5476 31.3372 68.4187 31.4239 68.3102 31.533C66.7308 33.1168 65.844 35.2622 65.844 37.4988C65.844 39.7355 66.7308 41.8808 68.3102 43.4646C68.5293 43.685 68.827 43.8093 69.1378 43.8101C69.4485 43.811 69.7469 43.6883 69.9673 43.4692C70.1876 43.2501 70.3119 42.9524 70.3128 42.6416C70.3136 42.3308 70.191 42.0324 69.9719 41.8121C69.4053 41.2459 68.956 40.5735 68.6498 39.8333C68.3437 39.0931 68.1866 38.2998 68.1877 37.4988Z"></path>
<path fill="#FBFCFF" d="M62.6953 37.5005C62.6904 35.9792 62.987 34.4719 63.568 33.0659C64.149 31.6599 65.003 30.3829 66.0805 29.3089C66.3002 29.0891 66.4237 28.7911 66.4237 28.4803C66.4237 28.1696 66.3002 27.8715 66.0805 27.6518C65.8607 27.432 65.5627 27.3086 65.2519 27.3086C64.9412 27.3086 64.6431 27.432 64.4234 27.6518C61.8159 30.2663 60.3516 33.8081 60.3516 37.5006C60.3516 41.1931 61.8159 44.7349 64.4234 47.3494C64.6431 47.5691 64.9412 47.6926 65.2519 47.6926C65.5627 47.6926 65.8607 47.5691 66.0805 47.3494C66.3002 47.1296 66.4237 46.8316 66.4237 46.5208C66.4237 46.21 66.3002 45.912 66.0805 45.6923C65.003 44.6182 64.149 43.3413 63.568 41.9352C62.9869 40.5292 62.6903 39.0219 62.6953 37.5005Z"></path>
<path fill="#FBFCFF" d="M57.3837 37.4999C57.3786 35.42 57.7851 33.3597 58.5798 31.4376C59.3745 29.5155 60.5416 27.7697 62.014 26.3007C62.1235 26.192 62.2105 26.0626 62.2699 25.9202C62.3292 25.7777 62.3599 25.6249 62.36 25.4706C62.3602 25.3162 62.3298 25.1634 62.2707 25.0208C62.2116 24.8782 62.125 24.7487 62.0157 24.6397C61.9064 24.5307 61.7767 24.4444 61.6339 24.3857C61.4912 24.327 61.3382 24.2971 61.1839 24.2976C61.0295 24.2982 60.8768 24.3293 60.7345 24.3891C60.5922 24.4488 60.4631 24.5361 60.3547 24.6459C56.9513 28.058 55.04 32.6806 55.04 37.4999C55.04 42.3192 56.9513 46.9418 60.3547 50.3539C60.5745 50.5723 60.8718 50.6947 61.1816 50.6943C61.4914 50.694 61.7885 50.5711 62.0079 50.3523C62.2272 50.1335 62.351 49.8368 62.3522 49.527C62.3533 49.2172 62.2318 48.9195 62.014 48.6991C60.5416 47.2301 59.3745 45.4843 58.5798 43.5622C57.7851 41.6401 57.3786 39.5798 57.3837 37.4999ZM37.5008 9.15633C38.6086 9.15845 39.7059 8.94167 40.7297 8.51845C41.7535 8.09522 42.6836 7.47388 43.4666 6.69013C43.6869 6.47099 43.8112 6.17329 43.8121 5.86252C43.8129 5.55175 43.6903 5.25336 43.4712 5.033C43.3627 4.92389 43.2337 4.83722 43.0917 4.77794C42.9497 4.71866 42.7974 4.68793 42.6435 4.6875C42.3328 4.68664 42.0344 4.80927 41.814 5.02841C40.6693 6.17089 39.1181 6.81254 37.5008 6.81254C35.8835 6.81254 34.3322 6.17089 33.1875 5.02841C33.0784 4.9199 32.949 4.83395 32.8066 4.77546C32.6643 4.71696 32.5119 4.68708 32.358 4.6875C32.2041 4.68793 32.0518 4.71866 31.9098 4.77794C31.7678 4.83722 31.6389 4.92389 31.5304 5.033C31.4219 5.14211 31.3359 5.27153 31.2774 5.41385C31.2189 5.55618 31.189 5.70864 31.1895 5.86252C31.1899 6.0164 31.2206 6.16868 31.2799 6.31068C31.3392 6.45269 31.4258 6.58162 31.535 6.69013C32.3179 7.47388 33.248 8.09522 34.2718 8.51845C35.2956 8.94167 36.3929 9.15845 37.5008 9.15633Z"></path>
<path fill="#FBFCFF" d="M37.5001 14.6478C39.3294 14.654 41.1418 14.2973 42.8323 13.5983C44.5228 12.8994 46.058 11.8721 47.3489 10.576C47.458 10.4672 47.5446 10.338 47.6037 10.1958C47.6629 10.0536 47.6934 9.90104 47.6935 9.747C47.6936 9.59295 47.6634 9.44038 47.6045 9.29804C47.5456 9.15569 47.4592 9.02635 47.3503 8.91742C47.2414 8.80849 47.112 8.72211 46.9697 8.66322C46.8273 8.60433 46.6748 8.57409 46.5207 8.57422C46.3667 8.57435 46.2142 8.60486 46.0719 8.664C45.9297 8.72314 45.8005 8.80974 45.6917 8.91886C43.5167 11.0867 40.571 12.304 37.5001 12.304C34.4292 12.304 31.4835 11.0867 29.3084 8.91886C29.1997 8.80974 29.0705 8.72314 28.9282 8.664C28.786 8.60486 28.6335 8.57435 28.4794 8.57422C28.3254 8.57409 28.1728 8.60433 28.0305 8.66322C27.8881 8.72211 27.7588 8.80849 27.6498 8.91742C27.5409 9.02635 27.4545 9.15569 27.3956 9.29804C27.3368 9.44038 27.3065 9.59295 27.3066 9.747C27.3068 9.90104 27.3373 10.0536 27.3964 10.1958C27.4556 10.338 27.5422 10.4672 27.6513 10.576C28.9422 11.8721 30.4773 12.8994 32.1678 13.5983C33.8584 14.2973 35.6708 14.654 37.5001 14.6478Z"></path>
<path fill="#FBFCFF" d="M37.5 19.9619C39.8872 19.9678 42.252 19.5012 44.4581 18.5891C46.6642 17.6769 48.668 16.3373 50.354 14.6472C50.4632 14.5386 50.55 14.4096 50.6093 14.2674C50.6686 14.1253 50.6993 13.9728 50.6996 13.8188C50.6999 13.6648 50.6699 13.5122 50.6112 13.3698C50.5525 13.2274 50.4663 13.0979 50.3576 12.9889C50.2488 12.8798 50.1196 12.7933 49.9774 12.7342C49.8351 12.6751 49.6826 12.6446 49.5286 12.6445C49.3746 12.6444 49.222 12.6747 49.0797 12.7336C48.9374 12.7925 48.8081 12.8789 48.6992 12.9879C45.7263 15.953 41.6988 17.6181 37.5 17.6181C33.3012 17.6181 29.2737 15.953 26.3008 12.9879C26.1919 12.8789 26.0626 12.7925 25.9203 12.7336C25.778 12.6747 25.6255 12.6444 25.4714 12.6445C25.3174 12.6446 25.1649 12.6751 25.0227 12.7342C24.8804 12.7933 24.7512 12.8798 24.6425 12.9889C24.5337 13.0979 24.4475 13.2274 24.3888 13.3698C24.3301 13.5122 24.3001 13.6648 24.3004 13.8188C24.3007 13.9728 24.3314 14.1253 24.3907 14.2674C24.45 14.4096 24.5368 14.5386 24.646 14.6472C26.332 16.3373 28.3358 17.6769 30.5419 18.5891C32.748 19.5012 35.1128 19.9678 37.5 19.9619ZM37.5 22.2667C34.4869 22.2667 31.5415 23.1602 29.0362 24.8342C26.531 26.5081 24.5783 28.8874 23.4253 31.6711C22.2722 34.4549 21.9705 37.518 22.5584 40.4732C23.1462 43.4284 24.5971 46.1429 26.7277 48.2734C28.8582 50.404 31.5727 51.8549 34.5279 52.4427C37.4831 53.0306 40.5462 52.7289 43.3299 51.5758C46.1137 50.4228 48.493 48.4701 50.1669 45.9649C51.8409 43.4596 52.7344 40.5142 52.7344 37.5011C52.7297 33.4621 51.1232 29.5899 48.2672 26.7339C45.4112 23.8779 41.539 22.2714 37.5 22.2667ZM37.5 50.3917C34.9505 50.3917 32.4582 49.6357 30.3384 48.2193C28.2185 46.8028 26.5663 44.7896 25.5906 42.4341C24.615 40.0787 24.3597 37.4868 24.8571 34.9863C25.3545 32.4857 26.5822 30.1888 28.385 28.386C30.1877 26.5833 32.4846 25.3555 34.9852 24.8582C37.4857 24.3608 40.0776 24.616 42.433 25.5917C44.7885 26.5674 46.8017 28.2196 48.2182 30.3394C49.6346 32.4593 50.3906 34.9516 50.3906 37.5011C50.3868 40.9187 49.0274 44.1953 46.6108 46.6119C44.1942 49.0285 40.9176 50.3879 37.5 50.3917Z"></path>
</svg>
