<svg width="38" height="45" viewBox="0 0 38 45" fill="none" xmlns="http://www.w3.org/2000/svg">
<g clip-path="url(#clip0_2_733)">
<path d="M30.62 17.61V38.04C30.62 39.26 29.63 40.26 28.4 40.26H26.52" stroke="black" stroke-miterlimit="10" stroke-linecap="round"></path>
<path d="M4.68005 9.51V7.92C4.68005 6.7 5.67005 5.7 6.90005 5.7H21.0101" stroke="black" stroke-miterlimit="10" stroke-linecap="round"></path>
<path d="M26.5201 17.4V41.35C26.5201 42.57 25.5301 43.57 24.3001 43.57H2.78006C1.56006 43.57 0.560059 42.58 0.560059 41.35V11.73C0.560059 10.51 1.55006 9.51 2.78006 9.51H20.3301" stroke="black" stroke-miterlimit="10" stroke-linecap="round"></path>
<path d="M30.55 17.46C28.6 17.84 26.4 17.55 24.21 16.37C23.12 15.78 22.2 14.86 21.6 13.76C17.97 7.11 22.67 0.480003 28.91 0.480003C33.63 0.480003 37.47 4.31 37.47 9.04V9.02C37.47 13.2 34.49 16.66 30.55 17.43" stroke="black" stroke-miterlimit="10" stroke-linecap="round"></path>
<path d="M33.14 9.03C28.83 9.03 28.9 3.75 28.9 3.75C28.9 3.75 28.96 9.03 24.66 9.03C28.97 9.03 28.9 14.31 28.9 14.31C28.9 14.31 28.84 9.03 33.14 9.03Z" stroke="black" stroke-linecap="round" stroke-linejoin="round"></path>
</g>
<defs>
<clipPath id="clip0_2_733">
<rect width="38" height="44.1" fill="white"></rect>
</clipPath>
</defs>
</svg>
