<svg width="38" height="24" viewBox="0 0 38 24" fill="none" xmlns="http://www.w3.org/2000/svg">
<g clip-path="url(#clip0_2_611)">
<path d="M11.65 21.24C10.72 21.62 9.70004 21.82 8.63004 21.82C4.16004 21.82 0.540039 18.2 0.540039 13.73C0.540039 12.84 0.680039 11.99 0.940039 11.2" stroke="black" stroke-miterlimit="10" stroke-linecap="round"></path>
<path d="M10.81 19.66C10.13 19.9 9.38999 20.04 8.62999 20.04C5.02999 20.04 2.10999 17.12 2.10999 13.52" stroke="black" stroke-miterlimit="10" stroke-linecap="round"></path>
<path d="M10.56 16.48C9.94005 16.63 9.30005 16.71 8.64005 16.71C4.17005 16.72 0.550049 13.09 0.550049 8.63C0.550049 4.17 4.17005 0.540001 8.63005 0.540001C12.11 0.540001 15.08 2.74 16.23 5.83" stroke="black" stroke-miterlimit="10" stroke-linecap="round"></path>
<path d="M24.08 3.3C31.5 3.3 37.52 9.33 37.52 16.74V18.01C37.52 20.82 35.24 23.1 32.43 23.1H15.72C12.91 23.1 10.63 20.82 10.63 18.01V16.74C10.63 9.32 16.66 3.3 24.07 3.3H24.08Z" stroke="black" stroke-miterlimit="10"></path>
<path d="M14.67 7.32C16.14 7.76 19.84 8.08 24.17 8.08C28.5 8.08 32.2 7.77 33.67 7.32" stroke="black" stroke-miterlimit="10"></path>
<path d="M24.08 19.48C24.47 19.48 24.78 19.17 24.78 18.78C24.78 18.39 24.47 18.08 24.08 18.08C23.69 18.08 23.38 18.39 23.38 18.78C23.38 19.17 23.69 19.48 24.08 19.48Z" stroke="black" stroke-miterlimit="10"></path>
</g>
<defs>
<clipPath id="clip0_2_611">
<rect width="38" height="23.7" fill="white"></rect>
</clipPath>
</defs>
</svg>
