<svg width="38" height="34" viewBox="0 0 38 34" fill="none" xmlns="http://www.w3.org/2000/svg">
<g clip-path="url(#clip0_2_654)">
<path d="M15.93 30.92H1.51996C0.939961 30.92 0.459961 30.42 0.459961 29.81V1.6C0.459961 0.980003 0.929961 0.480003 1.51996 0.480003H22.39C22.97 0.480003 23.45 0.980003 23.45 1.59V9.43" stroke="black" stroke-miterlimit="10" stroke-linecap="round"></path>
<path d="M11.54 14.38C14.05 12.93 15.71 11.1 15.24 10.3C14.78 9.5 12.36 10.02 9.86004 11.47C7.35004 12.92 5.69004 14.75 6.16004 15.55C6.62004 16.35 9.04004 15.83 11.54 14.38Z" stroke="black" stroke-miterlimit="10" stroke-linecap="round"></path>
<path d="M15.93 18.6C15.51 18.9 15.07 19.17 14.62 19.43C9.96 22.12 4.99 22.24 3.51 19.69C2.04 17.14 4.63 12.89 9.29 10.2C13.66 7.67 18.3 7.41 20.08 9.49" stroke="black" stroke-miterlimit="10" stroke-linecap="round"></path>
<path d="M15.9301 15.11C15.1401 15.78 14.2301 16.43 13.2201 17C12.8701 17.2 12.5201 17.39 12.1801 17.56" stroke="black" stroke-miterlimit="10" stroke-linecap="round"></path>
<path d="M18.6899 8.51C18.7899 8.62 18.8699 8.73 18.9499 8.86C19.0599 9.04 19.1199 9.23 19.1699 9.44" stroke="black" stroke-miterlimit="10" stroke-linecap="round"></path>
<path d="M7.53 19.09C5.52 19.36 3.93 18.98 3.3 17.9C3.23 17.78 3.17 17.65 3.13 17.52" stroke="black" stroke-miterlimit="10" stroke-linecap="round"></path>
<path d="M31.86 19.57V27.58C31.86 28.06 31.47 28.45 30.99 28.45H30.25" stroke="black" stroke-miterlimit="10" stroke-linecap="round"></path>
<path d="M21.7 16.4V15.77C21.7 15.29 22.09 14.9 22.57 14.9H28.1" stroke="black" stroke-miterlimit="10" stroke-linecap="round"></path>
<path d="M30.25 19.5V28.88C30.25 29.36 29.86 29.75 29.38 29.75H20.96C20.48 29.75 20.09 29.36 20.09 28.88V17.27C20.09 16.79 20.48 16.4 20.96 16.4H27.83" stroke="black" stroke-miterlimit="10" stroke-linecap="round"></path>
<path d="M31.83 19.51C31.07 19.66 30.2 19.55 29.35 19.08C28.92 18.85 28.56 18.49 28.33 18.06C26.91 15.46 28.75 12.86 31.19 12.86C33.04 12.86 34.55 14.36 34.55 16.22C34.55 17.85 33.38 19.21 31.84 19.51" stroke="black" stroke-miterlimit="10" stroke-linecap="round"></path>
<path d="M32.85 16.22C31.16 16.22 31.18 14.15 31.18 14.15C31.18 14.15 31.2 16.22 29.51 16.22C31.2 16.22 31.18 18.29 31.18 18.29C31.18 18.29 31.16 16.22 32.85 16.22Z" stroke="black" stroke-linecap="round" stroke-linejoin="round"></path>
<path d="M36.11 9.63H17.33C16.55 9.63 15.92 10.26 15.92 11.04V32.03C15.92 32.81 16.55 33.44 17.33 33.44H36.11C36.89 33.44 37.52 32.81 37.52 32.03V11.03C37.52 10.25 36.89 9.62 36.11 9.62V9.63Z" stroke="black" stroke-miterlimit="10" stroke-linecap="round"></path>
</g>
<defs>
<clipPath id="clip0_2_654">
<rect width="38" height="33.97" fill="white"></rect>
</clipPath>
</defs>
</svg>
