<svg width="50" height="44" viewBox="0 0 50 44" fill="none" xmlns="http://www.w3.org/2000/svg">
<path d="M20.7615 38.8614H1.91597C1.15384 38.8614 0.530273 38.2356 0.530273 37.4675V2.11753C0.530273 1.34946 1.14394 0.723633 1.91597 0.723633H29.2044C29.9665 0.723633 30.5901 1.34946 30.5901 2.11753V11.9412" stroke="black" stroke-miterlimit="10" stroke-linecap="round"></path>
<path d="M15.0207 18.1331C18.3068 16.3219 20.4744 14.0272 19.8607 13.0221C19.2569 12.017 16.0995 12.6713 12.8233 14.4919C9.53726 16.303 7.36963 18.5977 7.9833 19.6028C8.58706 20.6079 11.7445 19.9537 15.0207 18.1331Z" stroke="black" stroke-miterlimit="10" stroke-linecap="round"></path>
<path d="M20.7616 23.415C20.2172 23.7848 19.6431 24.1262 19.0492 24.4581C12.9521 27.8338 6.44926 27.976 4.51918 24.7899C2.599 21.5944 5.98406 16.2748 12.0811 12.8992C17.8021 9.73207 23.8695 9.40967 26.1955 12.0078" stroke="black" stroke-miterlimit="10" stroke-linecap="round"></path>
<path d="M20.7617 19.0527C19.7324 19.8967 18.5347 20.7027 17.2183 21.4233C16.763 21.6698 16.3077 21.9069 15.8623 22.125" stroke="black" stroke-miterlimit="10" stroke-linecap="round"></path>
<path d="M24.374 10.7847C24.5027 10.9174 24.6116 11.0597 24.7105 11.2209C24.8491 11.4484 24.9382 11.6855 24.9976 11.9415" stroke="black" stroke-miterlimit="10" stroke-linecap="round"></path>
<path d="M9.77507 24.0312C7.14224 24.3726 5.06369 23.8984 4.24217 22.5425C4.15309 22.3908 4.0739 22.2296 4.02441 22.0684" stroke="black" stroke-miterlimit="10" stroke-linecap="round"></path>
<path d="M41.5965 24.6382V34.6704C41.5965 35.2773 41.0818 35.7609 40.4583 35.7609H39.4883" stroke="black" stroke-miterlimit="10" stroke-linecap="round"></path>
<path d="M28.3037 20.6651V19.8781C28.3037 19.2712 28.8184 18.7876 29.442 18.7876H36.6773" stroke="black" stroke-miterlimit="10" stroke-linecap="round"></path>
<path d="M39.4881 24.5433V36.3013C39.4881 36.9082 38.9734 37.3918 38.3499 37.3918H27.3336C26.7001 37.3918 26.1953 36.8987 26.1953 36.3013V21.7555C26.1953 21.1486 26.71 20.665 27.3336 20.665H36.3208" stroke="black" stroke-miterlimit="10" stroke-linecap="round"></path>
<path d="M41.5568 24.5625C40.5571 24.7521 39.4287 24.6099 38.3103 24.022C37.7461 23.728 37.2809 23.2824 36.9741 22.7419C35.1133 19.48 37.5284 16.2275 40.7155 16.2275C43.1404 16.2275 45.1101 18.105 45.1101 20.4377C45.1101 22.4764 43.5858 24.1832 41.5667 24.5625" stroke="black" stroke-miterlimit="10" stroke-linecap="round"></path>
<path d="M42.8931 20.4375C40.6859 20.4375 40.7156 17.8394 40.7156 17.8394C40.7156 17.8394 40.7453 20.4375 38.5381 20.4375C40.7453 20.4375 40.7156 23.0356 40.7156 23.0356C40.7156 23.0356 40.6859 20.4375 42.8931 20.4375Z" stroke="black" stroke-linecap="round" stroke-linejoin="round"></path>
<path d="M47.1588 12.1782H22.6022C21.5828 12.1782 20.7612 12.9653 20.7612 13.9419V40.2363C20.7612 41.213 21.5828 42 22.6022 42H47.1588C48.1783 42 48.9998 41.213 48.9998 40.2363V13.9419C48.9998 12.9653 48.1783 12.1782 47.1588 12.1782Z" stroke="black" stroke-miterlimit="10" stroke-linecap="round"></path>
</svg>
