<svg width="83" height="22" viewBox="0 0 83 22" fill="none" xmlns="http://www.w3.org/2000/svg">
<g clip-path="url(#clip0_1_1228)">
<path fill-rule="evenodd" clip-rule="evenodd" d="M0.0341236 0.608521H7.29763C7.34147 0.608521 7.32686 0.831665 7.29763 0.831665H5.79719C5.79719 0.831665 5.37823 0.811379 5.50489 1.05481C5.52925 1.10552 10.6347 15.6353 10.6347 15.6353C10.6347 15.6353 10.7223 15.8838 10.7954 15.9142C10.7954 15.9142 15.3308 1.3236 15.3357 1.30838C15.3796 1.16131 15.5452 0.841808 15.2626 0.841808H13.6209C13.5917 0.841808 13.5917 0.618663 13.6209 0.618663H17.5279C17.5572 0.618663 17.5572 0.841808 17.5279 0.841808H16.0713C15.6719 0.831665 15.6719 0.958451 15.5988 1.17652C15.5647 1.28302 9.28523 21.6652 9.28523 21.6652L9.23164 21.4979C6.58151 13.5002 2.46016 2.37339 2.13377 1.18667C2.03634 0.831665 1.98762 0.841808 1.78789 0.841808H0.0341236C-0.0145921 0.841808 -0.00972054 0.608521 0.0341236 0.608521Z" fill="#737373"></path>
<path fill-rule="evenodd" clip-rule="evenodd" d="M0.306885 2.1097C0.306885 1.7902 0.555335 1.53156 0.862243 1.53156C1.16915 1.53156 1.4176 1.7902 1.4176 2.1097C1.4176 2.4292 1.16915 2.68785 0.862243 2.68785C0.555335 2.68785 0.306885 2.4292 0.306885 2.1097ZM0.862243 2.62192C1.13505 2.62192 1.35427 2.3937 1.35427 2.1097C1.35427 1.8257 1.13505 1.59748 0.862243 1.59748C0.589436 1.59748 0.370215 1.8257 0.370215 2.1097C0.370215 2.3937 0.589436 2.62192 0.862243 2.62192Z" fill="#737373"></path>
<path fill-rule="evenodd" clip-rule="evenodd" d="M0.672241 1.81561H0.891462C1.02299 1.81561 1.08145 1.8714 1.08145 1.98297C1.08145 2.07933 1.01325 2.13004 0.930434 2.14526L1.10094 2.41911H1.04735L0.871975 2.14018H0.720957V2.41911H0.672241V1.81561ZM0.720957 2.09454H0.842746C0.930434 2.09454 1.02787 2.0844 1.02787 1.9779C1.02787 1.88661 0.949921 1.85618 0.881719 1.85618H0.720957V2.08947V2.09454ZM18.9357 10.8732C18.9357 5.04106 20.0124 0.273887 23.9827 0.273887C28.2551 0.273887 29.093 5.23885 29.093 10.8732C29.093 16.5076 28.2794 21.7363 24.0168 21.7312C19.4424 21.7312 18.9309 17.0046 18.9309 10.8732H18.9357ZM23.9437 21.8986C28.182 21.9138 32.7661 17.03 32.7759 10.9848C32.7856 4.65563 28.3817 0.1471 24.0119 0.106528C19.5447 0.0710282 15.2577 5.17292 15.2577 10.9848C15.2577 16.7967 19.306 21.8834 23.9388 21.8986H23.9437ZM44.7697 12.9018H46.426C46.426 12.9018 46.7329 12.8663 46.7329 13.0235V17.9631C46.7329 21.7617 43.0939 21.8073 42.0708 21.6805C38.271 21.2342 38.1882 13.0641 38.1687 10.9138C38.1151 5.08163 38.9969 0.00509917 42.821 0.202886C47.3613 0.441245 48.55 7.21672 48.6231 7.521C48.7741 7.57679 48.7741 7.44493 48.7741 7.44493L48.7838 0.0507423C48.7838 0.0507423 48.7546 -0.0101152 48.6621 0.0760996C48.628 0.106528 48.5939 0.1471 48.55 0.192743C46.5429 2.3329 45.5345 0.0963855 42.6164 -0.00504375C39.0164 -0.126759 34.5491 5.06642 34.4907 11.0558C34.4322 17.0858 38.2369 21.7312 42.3923 21.8935C44.6479 21.9848 44.5992 21.3306 47.376 20.4329C49.0761 19.8852 49.8799 21.077 49.9384 21.574C50.0456 21.6501 50.0553 21.5182 50.0553 21.5182V13.0438C50.0553 12.8765 50.2794 12.9069 50.2794 12.9069H51.814C51.8529 12.9069 51.8529 12.6736 51.814 12.6736H44.7599C44.7063 12.6736 44.7063 12.8968 44.7697 12.8968V12.9018ZM82.0372 0.608603V8.20058C82.0372 8.23608 81.8959 8.24622 81.8959 8.20058C81.8959 8.15494 82.0323 0.821604 75.4898 0.821604H73.0394C72.903 0.821604 72.8202 0.846962 72.8202 0.958534V10.4422C72.8202 10.5284 72.9078 10.5791 73.0345 10.5791H73.8529C77.7453 10.5791 77.4287 6.51686 77.4287 6.46614C77.4287 6.41543 77.5797 6.43064 77.5797 6.46614L77.5894 15.0369C77.5894 15.0724 77.4725 15.0826 77.4725 15.0369C77.4725 14.9913 77.3848 10.8022 73.7604 10.8022H73.0296C72.903 10.8022 72.8153 10.8479 72.8153 10.9392V21.148C72.8153 21.219 72.8981 21.285 73.0345 21.285C73.585 21.285 74.9977 21.29 75.3875 21.29C82.4171 21.3103 82.3197 13.4597 82.3197 13.4191C82.3197 13.3785 82.5 13.3836 82.5 13.4191V21.5537H67.6709C67.6271 21.5537 67.6319 21.3306 67.6709 21.3306H69.1519C69.2834 21.3306 69.3711 21.285 69.3711 21.1937C69.3711 19.4237 69.3711 1.11575 69.3711 0.963605C69.3711 0.831747 69.2055 0.821604 69.1519 0.821604H65.8684C65.8684 0.821604 65.6541 0.821604 65.6541 0.953462C65.6541 2.39376 65.6541 14.5399 65.6541 16.2693C65.659 20.5597 62.4973 21.9544 60.2223 21.995C57.5478 22 52.7396 21.5335 52.7396 15.3564C52.7396 15.3564 52.7298 1.30339 52.7201 1.11068C52.7103 0.80639 52.345 0.821604 52.345 0.821604H50.7714C50.7227 0.821604 50.7325 0.603532 50.7714 0.603532H58.1762C58.2152 0.603532 58.2006 0.826676 58.1762 0.826676H56.6027C56.6027 0.826676 56.1156 0.796247 56.1156 1.13096L56.1253 17.3495C56.1253 19.7179 57.4114 21.8175 60.2174 21.7718C62.4047 21.7312 65.4446 20.3924 65.4349 16.2743C65.4349 16.0715 65.4349 2.48504 65.4349 0.958534C65.4251 0.84189 65.201 0.826676 65.201 0.826676H63.1452C63.1014 0.826676 63.1111 0.613675 63.155 0.613675H82.0274V0.608603H82.0372Z" fill="#737373"></path>
<path fill-rule="evenodd" clip-rule="evenodd" d="M19.6081 10.9392H20.2706C20.4509 10.9392 20.5873 10.9899 20.675 11.0812C20.7383 11.1522 20.7773 11.2435 20.7773 11.3398C20.7773 11.5528 20.6506 11.6644 20.5288 11.7202C20.7139 11.776 20.8601 11.8875 20.8601 12.1107C20.8601 12.3947 20.636 12.557 20.295 12.557H19.6032V10.9392H19.6081ZM20.597 11.3702C20.597 11.208 20.4752 11.1065 20.2511 11.1065H19.7786V11.6644H20.2365C20.446 11.6644 20.5921 11.563 20.5921 11.3753L20.597 11.3702ZM20.2706 11.8267H19.7786V12.3998H20.2998C20.5337 12.3998 20.6798 12.2932 20.6798 12.1107C20.6798 11.9281 20.5385 11.8267 20.2657 11.8267H20.2706ZM21.2108 10.9392H21.8782C22.0682 10.9392 22.2241 11 22.3215 11.1015C22.3995 11.1877 22.4433 11.3043 22.4433 11.421C22.4433 11.6948 22.2631 11.852 22.0195 11.8977L22.4969 12.562H22.2826L21.8295 11.9332H21.3862V12.562H21.2108V10.9442V10.9392ZM21.8636 11.7658C22.0975 11.7658 22.2631 11.639 22.2631 11.4311C22.2631 11.2282 22.1169 11.1065 21.8636 11.1065H21.3813V11.7658H21.8587H21.8636ZM22.8379 10.9392H23.0133V12.557H22.8379V10.9392ZM23.8804 11.1116H23.3592V10.9442H24.582V11.1116H24.0607V12.562H23.8804V11.1116ZM24.923 10.9392H25.0983V12.557H24.923V10.9392ZM25.454 12.3237L25.5611 12.1918C25.7219 12.344 25.8778 12.42 26.097 12.42C26.3162 12.42 26.4429 12.3034 26.4429 12.1462C26.4429 11.989 26.3649 11.9027 26.0386 11.8317C25.6781 11.7506 25.5173 11.6289 25.5173 11.3652C25.5173 11.1065 25.7316 10.9189 26.0288 10.9189C26.2578 10.9189 26.4185 10.9848 26.5744 11.1167L26.4721 11.2587C26.326 11.137 26.1847 11.0812 26.0239 11.0812C25.8193 11.0812 25.6927 11.1978 25.6927 11.3449C25.6927 11.5021 25.7706 11.5883 26.1165 11.6644C26.4624 11.7455 26.6231 11.8774 26.6231 12.1208C26.6231 12.4048 26.399 12.5823 26.0921 12.5823C25.8437 12.5823 25.644 12.4961 25.454 12.3237ZM26.9788 10.9392H27.1541V11.6593H28.0505V10.9392H28.2259V12.557H28.0505V11.8267H27.1541V12.557H26.9788V10.9392Z" fill="#737373"></path>
</g>
<defs>
<clipPath id="clip0_1_1228">
<rect width="82.5" height="22" fill="white"></rect>
</clipPath>
</defs>
</svg>
