<svg xmlns="http://www.w3.org/2000/svg" fill="none" viewBox="0 0 34 34" height="34" width="34">
<mask height="34" width="34" y="0" x="0" maskUnits="userSpaceOnUse" style="mask-type:alpha" id="mask0_972_10785">
<rect fill="#D9D9D9" height="34" width="34"></rect>
</mask>
<g mask="url(#mask0_972_10785)">
<path fill="#3E5FED" d="M15.9368 29.4235C15.7625 29.4235 15.6145 29.3627 15.4927 29.2411C15.3711 29.1193 15.3103 28.9712 15.3103 28.797C15.3103 28.6225 15.3711 28.4745 15.4927 28.3529C15.6145 28.231 15.7625 28.1701 15.9368 28.1701H16.3728V25.4841C15.3084 25.3661 14.3711 25.1299 13.561 24.7758C12.7512 24.4216 12.0283 23.9585 11.3925 23.3864L9.48811 25.2989L9.81501 25.6258C9.95502 25.7656 10.0204 25.9181 10.0112 26.0834C10.0022 26.2486 9.93684 26.3922 9.81501 26.514C9.67523 26.6538 9.5227 26.7191 9.35742 26.7099C9.19214 26.7009 9.03962 26.6265 8.89984 26.4868L7.45873 25.0534C7.31872 24.9137 7.24871 24.7643 7.24871 24.6054C7.24871 24.4465 7.31872 24.2972 7.45873 24.1574C7.59851 24.0174 7.74644 23.9579 7.90251 23.9789C8.05881 23.9997 8.20685 24.0683 8.34663 24.1847L8.61898 24.457L10.5315 22.5445C9.8869 21.7762 9.41468 21.0216 9.11482 20.2807C8.81519 19.5395 8.61544 18.655 8.51557 17.6269H5.82957V18.0629C5.82957 18.2372 5.76865 18.3852 5.64682 18.507C5.52522 18.6286 5.37718 18.6894 5.20269 18.6894C5.02844 18.6894 4.8804 18.6286 4.75857 18.507C4.63697 18.3852 4.57617 18.2372 4.57617 18.0629V15.9379C4.57617 15.7637 4.63697 15.6156 4.75857 15.4938C4.8804 15.3722 5.02844 15.3114 5.20269 15.3114C5.37718 15.3114 5.52522 15.3722 5.64682 15.4938C5.76865 15.6156 5.82957 15.7637 5.82957 15.9379V16.3739H8.51557C8.61544 15.3459 8.8257 14.4568 9.14634 13.7067C9.46698 12.9565 9.93778 12.2064 10.5588 11.4563L8.64626 9.54378L8.34663 9.84341C8.20685 9.97799 8.05881 10.0466 7.90251 10.0492C7.74644 10.052 7.59851 9.98342 7.45873 9.84341C7.31872 9.70363 7.24871 9.55429 7.24871 9.39539C7.24871 9.23648 7.31872 9.08714 7.45873 8.94736L8.94623 7.45986C9.08601 7.31985 9.23984 7.24984 9.40771 7.24984C9.57583 7.24984 9.72977 7.31985 9.86955 7.45986C10.0096 7.59964 10.0705 7.74898 10.0523 7.90789C10.0341 8.06679 9.95502 8.21613 9.81501 8.35591L9.51538 8.65553L11.4197 10.5599C12.2244 9.9153 12.979 9.44308 13.6836 9.14322C14.3884 8.84359 15.273 8.63475 16.3373 8.5167V5.8307H15.9286C15.7541 5.8307 15.6075 5.76978 15.4888 5.64795C15.3698 5.52635 15.3103 5.37831 15.3103 5.20382C15.3103 5.02957 15.3711 4.88153 15.4927 4.7597C15.6145 4.6381 15.7625 4.5773 15.9368 4.5773H18.0618C18.236 4.5773 18.3841 4.6381 18.5059 4.7597C18.6275 4.88153 18.6883 5.02957 18.6883 5.20382C18.6883 5.37831 18.6275 5.52635 18.5059 5.64795C18.3841 5.76978 18.236 5.8307 18.0618 5.8307H17.6258V8.5167C18.6902 8.63475 19.5748 8.84359 20.2796 9.14322C20.9841 9.44308 21.7387 9.9153 22.5434 10.5599L24.4559 8.64739L24.129 8.32049C24.0072 8.19889 23.9463 8.05546 23.9463 7.89018C23.9463 7.7249 24.0072 7.58146 24.129 7.45986C24.2688 7.31985 24.4181 7.24984 24.577 7.24984C24.7359 7.24984 24.8854 7.31985 25.0254 7.45986L26.5398 8.98278C26.6798 9.12256 26.7498 9.27048 26.7498 9.42655C26.7498 9.58286 26.6798 9.7309 26.5398 9.87068C26.4 10.0107 26.2553 10.0761 26.1056 10.0669C25.9557 10.0579 25.8108 9.98342 25.671 9.84341L25.3442 9.51651L23.4398 11.4209C24.0844 12.1892 24.5611 12.9543 24.8699 13.7162C25.1788 14.4782 25.3831 15.364 25.483 16.3739H28.169V15.9379C28.169 15.7637 28.2299 15.6156 28.3517 15.4938C28.4733 15.3722 28.6214 15.3114 28.7959 15.3114C28.9701 15.3114 29.1182 15.3722 29.24 15.4938C29.3616 15.6156 29.4224 15.7637 29.4224 15.9379V18.0629C29.4224 18.2372 29.3616 18.3852 29.24 18.507C29.1182 18.6286 28.9701 18.6894 28.7959 18.6894C28.6214 18.6894 28.4733 18.6286 28.3517 18.507C28.2299 18.3852 28.169 18.2372 28.169 18.0629V17.6269H25.483C25.3831 18.655 25.1788 19.5408 24.8699 20.2846C24.5611 21.0283 24.0844 21.7844 23.4398 22.5527L25.3442 24.457L25.671 24.1301C25.8108 23.9901 25.9602 23.9247 26.1191 23.9339C26.278 23.9429 26.4273 24.0083 26.5671 24.1301C26.7071 24.2517 26.7771 24.4011 26.7771 24.5782C26.7771 24.7552 26.7071 24.9137 26.5671 25.0534L25.0796 26.5409C24.9398 26.681 24.786 26.751 24.6181 26.751C24.45 26.751 24.2961 26.681 24.1563 26.5409C24.0344 26.4194 23.9749 26.2759 23.9778 26.1106C23.9804 25.9454 24.049 25.7928 24.1835 25.6531L24.4559 25.3534L22.5434 23.4409C21.8842 24.013 21.1704 24.4684 20.4021 24.8069C19.6338 25.1458 18.7084 25.3742 17.6258 25.4923V28.1701H18.0618C18.236 28.1701 18.3841 28.231 18.5059 28.3529C18.6275 28.4745 18.6883 28.6225 18.6883 28.797C18.6883 28.9712 18.6275 29.1193 18.5059 29.2411C18.3841 29.3627 18.236 29.4235 18.0618 29.4235H15.9368ZM16.9993 24.0837C18.959 24.0837 20.6295 23.3931 22.0107 22.0119C23.392 20.6306 24.0826 18.9601 24.0826 17.0004C24.0826 15.0407 23.392 13.3702 22.0107 11.9889C20.6295 10.6077 18.959 9.91707 16.9993 9.91707C15.0396 9.91707 13.3691 10.6077 11.9878 11.9889C10.6066 13.3702 9.91594 15.0407 9.91594 17.0004C9.91594 18.9601 10.6066 20.6306 11.9878 22.0119C13.3691 23.3931 15.0396 24.0837 16.9993 24.0837ZM14.7925 22.0678C15.085 22.0678 15.3398 21.9592 15.5568 21.742C15.7737 21.525 15.8822 21.2704 15.8822 20.9781C15.8822 20.6855 15.7737 20.4307 15.5568 20.2138C15.3398 19.9968 15.085 19.8883 14.7925 19.8883C14.5002 19.8883 14.2455 19.9968 14.0285 20.2138C13.8113 20.4307 13.7027 20.6855 13.7027 20.9781C13.7027 21.2704 13.8113 21.525 14.0285 21.742C14.2455 21.9592 14.5002 22.0678 14.7925 22.0678ZM19.2061 22.0678C19.4984 22.0678 19.753 21.9592 19.97 21.742C20.1873 21.525 20.2959 21.2704 20.2959 20.9781C20.2959 20.6855 20.1873 20.4307 19.97 20.2138C19.753 19.9968 19.4984 19.8883 19.2061 19.8883C18.9135 19.8883 18.6588 19.9968 18.4418 20.2138C18.2248 20.4307 18.1163 20.6855 18.1163 20.9781C18.1163 21.2704 18.2248 21.525 18.4418 21.742C18.6588 21.9592 18.9135 22.0678 19.2061 22.0678ZM12.3133 18.0902C12.6058 18.0902 12.8606 17.9817 13.0776 17.7647C13.2946 17.5475 13.4031 17.2927 13.4031 17.0004C13.4031 16.7081 13.2946 16.4533 13.0776 16.2361C12.8606 16.0191 12.6058 15.9106 12.3133 15.9106C12.021 15.9106 11.7663 16.0191 11.5494 16.2361C11.3321 16.4533 11.2235 16.7081 11.2235 17.0004C11.2235 17.2927 11.3321 17.5475 11.5494 17.7647C11.7663 17.9817 12.021 18.0902 12.3133 18.0902ZM16.9993 18.0902C17.2916 18.0902 17.5463 17.9817 17.7636 17.7647C17.9806 17.5475 18.089 17.2927 18.089 17.0004C18.089 16.7081 17.9806 16.4533 17.7636 16.2361C17.5463 16.0191 17.2916 15.9106 16.9993 15.9106C16.707 15.9106 16.4522 16.0191 16.235 16.2361C16.018 16.4533 15.9095 16.7081 15.9095 17.0004C15.9095 17.2927 16.018 17.5475 16.235 17.7647C16.4522 17.9817 16.707 18.0902 16.9993 18.0902ZM21.6853 18.0902C21.9776 18.0902 22.2322 17.9817 22.4492 17.7647C22.6664 17.5475 22.775 17.2927 22.775 17.0004C22.775 16.7081 22.6664 16.4533 22.4492 16.2361C22.2322 16.0191 21.9776 15.9106 21.6853 15.9106C21.3927 15.9106 21.138 16.0191 20.921 16.2361C20.704 16.4533 20.5955 16.7081 20.5955 17.0004C20.5955 17.2927 20.704 17.5475 20.921 17.7647C21.138 17.9817 21.3927 18.0902 21.6853 18.0902ZM14.7925 14.1125C15.085 14.1125 15.3398 14.004 15.5568 13.7871C15.7737 13.5701 15.8822 13.3153 15.8822 13.0228C15.8822 12.7305 15.7737 12.4758 15.5568 12.2588C15.3398 12.0416 15.085 11.933 14.7925 11.933C14.5002 11.933 14.2455 12.0416 14.0285 12.2588C13.8113 12.4758 13.7027 12.7305 13.7027 13.0228C13.7027 13.3153 13.8113 13.5701 14.0285 13.7871C14.2455 14.004 14.5002 14.1125 14.7925 14.1125ZM19.2061 14.1125C19.4984 14.1125 19.753 14.004 19.97 13.7871C20.1873 13.5701 20.2959 13.3153 20.2959 13.0228C20.2959 12.7305 20.1873 12.4758 19.97 12.2588C19.753 12.0416 19.4984 11.933 19.2061 11.933C18.9135 11.933 18.6588 12.0416 18.4418 12.2588C18.2248 12.4758 18.1163 12.7305 18.1163 13.0228C18.1163 13.3153 18.2248 13.5701 18.4418 13.7871C18.6588 14.004 18.9135 14.1125 19.2061 14.1125Z"></path>
</g>
</svg>
