<svg xmlns="http://www.w3.org/2000/svg" fill="none" viewBox="0 0 35 36" height="36" width="35">
<mask height="36" width="35" y="0" x="0" maskUnits="userSpaceOnUse" style="mask-type:alpha" id="mask0_972_10797">
<rect fill="#D9D9D9" height="35" width="35" y="0.5"></rect>
</mask>
<g mask="url(#mask0_972_10797)">
<path fill="#3E5FED" d="M22.6039 15.8125C22.2019 15.8125 21.8583 15.67 21.5732 15.3849C21.2881 15.0998 21.1456 14.7562 21.1456 14.3542C21.1456 14.0905 21.2003 13.8348 21.3096 13.5871C21.419 13.3394 21.5512 13.1095 21.7063 12.8973C21.8616 12.6851 22.022 12.4869 22.1876 12.3027C22.3528 12.1184 22.4916 11.9609 22.6039 11.8302C22.7162 11.9609 22.855 12.1184 23.0203 12.3027C23.1858 12.4869 23.3462 12.6851 23.5015 12.8973C23.6566 13.1095 23.7888 13.3394 23.8982 13.5871C24.0076 13.8348 24.0622 14.0905 24.0622 14.3542C24.0622 14.7562 23.9197 15.0998 23.6346 15.3849C23.3495 15.67 23.0059 15.8125 22.6039 15.8125ZM28.4372 11.4375C28.0352 11.4375 27.6917 11.295 27.4066 11.0099C27.1215 10.7248 26.9789 10.3812 26.9789 9.97918C26.9789 9.71546 27.0336 9.45977 27.143 9.21209C27.2523 8.96442 27.3846 8.73449 27.5396 8.5223C27.6949 8.31011 27.8554 8.1119 28.0209 7.92767C28.1862 7.74343 28.3249 7.58593 28.4372 7.45517C28.5495 7.58593 28.6883 7.74343 28.8536 7.92767C29.0191 8.1119 29.1795 8.31011 29.3348 8.5223C29.4899 8.73449 29.6221 8.96442 29.7315 9.21209C29.8409 9.45977 29.8956 9.71546 29.8956 9.97918C29.8956 10.3812 29.753 10.7248 29.4679 11.0099C29.1828 11.295 28.8393 11.4375 28.4372 11.4375ZM28.4372 20.1875C28.0352 20.1875 27.6917 20.045 27.4066 19.7599C27.1215 19.4747 26.9789 19.1312 26.9789 18.7292C26.9789 18.4655 27.0336 18.2098 27.143 17.9621C27.2523 17.7144 27.3846 17.4845 27.5396 17.2723C27.6949 17.0601 27.8554 16.8619 28.0209 16.6777C28.1862 16.4934 28.3249 16.3359 28.4372 16.2052C28.5495 16.3359 28.6883 16.4934 28.8536 16.6777C29.0191 16.8619 29.1795 17.0601 29.3348 17.2723C29.4899 17.4845 29.6221 17.7144 29.7315 17.9621C29.8409 18.2098 29.8956 18.4655 29.8956 18.7292C29.8956 19.1312 29.753 19.4747 29.4679 19.7599C29.1828 20.045 28.8393 20.1875 28.4372 20.1875ZM13.349 29.6667C11.7244 29.6667 10.346 29.1006 9.21385 27.9684C8.0817 26.8365 7.51562 25.4582 7.51562 23.8333C7.51562 22.8162 7.77083 21.864 8.28125 20.9768C8.79167 20.0897 9.50868 19.3592 10.4323 18.7853V9.25001C10.4323 8.42727 10.7128 7.73553 11.2738 7.1748C11.8347 6.61383 12.5265 6.33334 13.349 6.33334C14.1717 6.33334 14.8636 6.61383 15.4245 7.1748C15.9853 7.73553 16.2656 8.42727 16.2656 9.25001V18.7853C17.1892 19.3592 17.9062 20.0897 18.4167 20.9768C18.9271 21.864 19.1823 22.8162 19.1823 23.8333C19.1823 25.4582 18.6163 26.8365 17.4844 27.9684C16.3523 29.1006 14.9738 29.6667 13.349 29.6667ZM8.97396 23.8333H17.724C17.724 23.1098 17.53 22.4115 17.1421 21.7384C16.7542 21.0654 16.1966 20.4662 15.4694 19.9407L14.8073 19.4583V9.25001C14.8073 8.83682 14.6675 8.49046 14.388 8.21095C14.1085 7.93143 13.7622 7.79168 13.349 7.79168C12.9358 7.79168 12.5894 7.93143 12.3099 8.21095C12.0304 8.49046 11.8906 8.83682 11.8906 9.25001V19.4583L11.2289 19.9407C10.5017 20.4662 9.94411 21.0654 9.5562 21.7384C9.16804 22.4115 8.97396 23.1098 8.97396 23.8333Z"></path>
</g>
</svg>
