<svg xmlns="http://www.w3.org/2000/svg" fill="none" viewBox="0 0 41 45" height="45" width="41">
<g id="Layer_1">
<path stroke-miterlimit="10" stroke="#FBFCFF" d="M33.7811 6.27246H31.9272C31.3482 6.27246 30.8755 6.73654 30.8755 7.30491V9.93818C30.8755 11.3617 29.6962 12.5193 28.2461 12.5193H12.7513C11.3012 12.5193 10.1219 11.3617 10.1219 9.93818V7.30491C10.1219 6.73654 9.64916 6.27246 9.07016 6.27246H7.21631C4.77284 6.27246 2.7915 8.21743 2.7915 10.6161V39.947C2.7915 42.3457 4.77284 44.2906 7.21631 44.2906H33.7758C36.2193 44.2906 38.2006 42.3405 38.2006 39.947V10.6161C38.2006 8.21743 36.2193 6.27246 33.7758 6.27246H33.7811Z" id="Vector"></path>
<path stroke-miterlimit="10" stroke="#FBFCFF" d="M28.4623 3.88806H24.3142C24.1013 2.10269 22.4693 0.708984 20.499 0.708984C18.5286 0.708984 16.8966 2.10269 16.6837 3.88806H12.5356C12.3009 3.88806 12.1099 4.06609 12.1099 4.28481V9.58496C12.1099 9.80368 12.3009 9.98171 12.5356 9.98171H28.4569C28.6916 9.98171 28.8826 9.80368 28.8826 9.58496V4.28481C28.8826 4.06609 28.6916 3.88806 28.4569 3.88806H28.4623Z" id="Vector_2"></path>
<path fill="#FBFCFF" d="M19.0117 29.7282L16.8744 27.4054C16.6362 27.1465 16.2576 27.1465 16.0194 27.4054C15.7813 27.6642 15.7813 28.0757 16.0194 28.3345L18.5781 31.1152C18.8163 31.374 19.201 31.374 19.4392 31.1152L25.9122 24.0871C26.1504 23.8283 26.1504 23.4168 25.9122 23.158C25.674 22.8992 25.2954 22.8992 25.0573 23.158L19.0117 29.7282Z" id="Vector_3"></path>
</g>
</svg>
