<svg xmlns="http://www.w3.org/2000/svg" fill="none" viewBox="0 0 18 18" height="18" width="18">
<path stroke-miterlimit="10" stroke="#3E5FED" d="M3.5 11.542C3.5 11.6135 3.55618 11.6701 3.62724 11.6701C6.47437 11.6701 8.78943 14.0016 8.78943 16.8719C8.78943 16.9367 8.84561 16.9999 8.91667 16.9999C8.98772 16.9999 9.0439 16.9384 9.0439 16.8719C9.0439 13.9999 11.3606 11.6701 14.2061 11.6701C14.2771 11.6701 14.3333 11.6135 14.3333 11.542C14.3333 11.4705 14.2771 11.414 14.2061 11.414C11.359 11.414 9.0439 9.08251 9.0439 6.21887C9.0439 6.14736 8.98772 6.09082 8.91667 6.09082C8.84561 6.09082 8.78943 6.14736 8.78943 6.21887C8.78943 9.08417 6.47272 11.414 3.62724 11.414C3.55618 11.4123 3.5 11.4705 3.5 11.542Z"></path>
<path stroke-miterlimit="10" stroke="#3E5FED" d="M9.41219 4.77392C11.251 4.77392 12.7519 6.28525 12.7519 8.13694C12.7519 8.21277 12.8114 8.27273 12.8867 8.27273C12.962 8.27273 13.0216 8.21277 13.0216 8.13694C13.0216 6.28525 14.5224 4.77392 16.3647 4.77392C16.433 4.77392 16.4996 4.71396 16.4996 4.63813C16.4996 4.5623 16.4348 4.50234 16.3647 4.50234C14.5206 4.50234 13.0216 2.99101 13.0216 1.13579C13.0216 1.06701 12.962 1 12.8867 1C12.8114 1 12.7519 1.06525 12.7519 1.13579C12.7519 2.99277 11.251 4.50234 9.41219 4.50234C9.33689 4.50234 9.27734 4.5623 9.27734 4.63813C9.27734 4.71396 9.33689 4.77392 9.41219 4.77392Z"></path>
</svg>
