<svg xmlns="http://www.w3.org/2000/svg" fill="none" viewBox="0 0 45 51" height="51" width="45">
<g clip-path="url(#clip0_2259_1676)">
<path stroke-miterlimit="10" stroke="#3E5FED" d="M3.58594 33.044C3.58594 33.2758 3.76711 33.4591 3.99624 33.4591C13.1774 33.4591 20.6428 41.0166 20.6428 50.3207C20.6428 50.531 20.8239 50.7358 21.0531 50.7358C21.2822 50.7358 21.4634 50.5363 21.4634 50.3207C21.4634 41.0112 28.9341 33.4591 38.1099 33.4591C38.339 33.4591 38.5202 33.2758 38.5202 33.044C38.5202 32.8122 38.339 32.6289 38.1099 32.6289C28.9287 32.6289 21.4634 25.0714 21.4634 15.7889C21.4634 15.5571 21.2822 15.3738 21.0531 15.3738C20.8239 15.3738 20.6428 15.5571 20.6428 15.7889C20.6428 25.0768 13.1721 32.6289 3.99624 32.6289C3.76711 32.6235 3.58594 32.8122 3.58594 33.044Z"></path>
<path stroke-linecap="round" stroke-miterlimit="10" stroke="#3E5FED" d="M4.63019 15.3791C3.54316 16.2632 2.16838 16.7915 0.671044 16.7915C0.463229 16.7915 0.260742 16.9747 0.260742 17.2065C0.260742 17.4168 0.452572 17.6216 0.671044 17.6216C4.16128 17.6216 7.00142 20.4732 7.00142 24.004C7.00142 24.2358 7.18259 24.4191 7.41172 24.4191C7.64085 24.4191 7.82202 24.2358 7.82202 24.004C7.82202 20.4732 10.6622 17.6216 14.1311 17.6216C14.3602 17.6216 14.5414 17.4222 14.5414 17.2065C14.5414 16.9747 14.3602 16.7915 14.1311 16.7915C10.6568 16.7915 7.82202 13.9183 7.82202 10.3875C7.82202 10.1557 7.64085 9.97241 7.41172 9.97241C7.18259 9.97241 7.00142 10.1557 7.00142 10.3875C7.00142 11.1422 6.87353 11.8699 6.63374 12.5437"></path>
<path stroke-miterlimit="10" stroke="#3E5FED" d="M23.174 11.7999C28.769 11.7999 33.3356 16.4196 33.3356 22.0797C33.3356 22.3115 33.5168 22.4948 33.7459 22.4948C33.975 22.4948 34.1562 22.3115 34.1562 22.0797C34.1562 16.4196 38.7228 11.7999 44.3285 11.7999C44.5363 11.7999 44.7388 11.6167 44.7388 11.3849C44.7388 11.1531 44.5417 10.9698 44.3285 10.9698C38.7175 10.9698 34.1562 6.35009 34.1562 0.679233C34.1562 0.469001 33.975 0.26416 33.7459 0.26416C33.5168 0.26416 33.3356 0.463611 33.3356 0.679233C33.3356 6.35548 28.769 10.9698 23.174 10.9698C22.9448 10.9698 22.7637 11.1531 22.7637 11.3849C22.7637 11.6167 22.9448 11.7999 23.174 11.7999Z"></path>
</g>
<defs>
<clipPath id="clip0_2259_1676">
<rect fill="white" height="51" width="45"></rect>
</clipPath>
</defs>
</svg>
