<svg xmlns="http://www.w3.org/2000/svg" fill="none" viewBox="0 0 47 45" height="45" width="47">
<path stroke-linecap="round" stroke="#3E5FED" d="M22.1791 44C10.432 43.7075 1 34.1936 1 22.5C1 10.8064 10.432 1.29253 22.1791 1"></path>
<path stroke-linecap="round" stroke="#3E5FED" d="M22.1789 39.5075C12.5677 39.2718 4.85059 31.6039 4.85059 22.1792C4.85059 12.7545 12.5677 5.0866 22.1789 4.85083"></path>
<path stroke-linecap="round" stroke="#3E5FED" d="M22.1796 35.015C15.0601 34.8447 9.34375 29.3067 9.34375 22.5C9.34375 15.6933 15.0601 10.1554 22.1796 9.98511"></path>
<path stroke-linecap="round" stroke="#3E5FED" d="M24.7462 9.98504C31.8657 10.1553 37.582 15.6933 37.582 22.5C37.582 29.3067 31.8657 34.8446 24.7462 35.0149"></path>
<path stroke-linecap="round" stroke="#3E5FED" d="M24.7459 4.85085C34.3572 5.08663 42.0742 12.7545 42.0742 22.1792C42.0742 31.6039 34.3572 39.2718 24.7459 39.5076"></path>
<path stroke-linecap="round" stroke="#3E5FED" d="M24.7467 0.999997C36.4938 1.29253 45.9258 10.8064 45.9258 22.5C45.9258 34.1936 36.4938 43.7075 24.7467 44"></path>
</svg>
