<svg xmlns="http://www.w3.org/2000/svg" fill="none" viewBox="0 0 33 32" height="32" width="33">
<path stroke-linejoin="round" stroke-linecap="round" stroke="#3E5FED" d="M18.6797 13.73L11.2697 16.97C8.81975 18.04 5.95975 16.92 4.87975 14.47C3.80975 12.02 4.92975 9.15995 7.37975 8.07995L14.7897 4.83995C17.2397 3.76995 20.0997 4.88995 21.1797 7.33995C22.2497 9.78995 21.1297 12.65 18.6797 13.73Z"></path>
<path stroke-linejoin="round" stroke-linecap="round" stroke="#3E5FED" d="M9.31982 12.52C10.2098 11.05 11.6298 10.55 13.3098 10.89C14.7998 11.2 15.9898 10.56 16.7198 9.28003"></path>
<path stroke-linejoin="round" stroke-linecap="round" stroke="#3E5FED" d="M21.1797 7.35005L23.2797 6.43005"></path>
<path stroke-linejoin="round" stroke-linecap="round" stroke="#3E5FED" d="M20.8696 11.8199L22.8296 13.0199"></path>
<path stroke-linejoin="round" stroke-linecap="round" stroke="#3E5FED" d="M8.37969 17.28L7.92969 19.53"></path>
<path stroke-linejoin="round" stroke-linecap="round" stroke="#3E5FED" d="M4.87979 14.47L2.77979 15.39"></path>
<path stroke-linejoin="round" stroke-linecap="round" stroke="#3E5FED" d="M5.18975 9.99005L3.23975 8.80005"></path>
<path stroke-linejoin="round" stroke-linecap="round" stroke="#3E5FED" d="M17.6899 4.53004L18.1399 2.29004"></path>
<path stroke-linejoin="round" stroke-linecap="round" stroke="#3E5FED" d="M14.98 15.4L15.9 17.5"></path>
<path stroke-linejoin="round" stroke-linecap="round" stroke="#3E5FED" d="M11.0999 6.39004L10.1899 4.29004"></path>
<path stroke-linejoin="round" stroke-linecap="round" stroke="#3E5FED" d="M23.7499 27.5599C26.1303 27.5599 28.0599 25.6303 28.0599 23.2499C28.0599 20.8696 26.1303 18.9399 23.7499 18.9399C21.3696 18.9399 19.4399 20.8696 19.4399 23.2499C19.4399 25.6303 21.3696 27.5599 23.7499 27.5599Z"></path>
<path stroke-linejoin="round" stroke-linecap="round" stroke="#3E5FED" d="M23.75 18.94V16.79"></path>
<path stroke-linejoin="round" stroke-linecap="round" stroke="#3E5FED" d="M26.7998 20.1999L28.3198 18.6899"></path>
<path stroke-linejoin="round" stroke-linecap="round" stroke="#3E5FED" d="M28.0698 23.25H30.2098"></path>
<path stroke-linejoin="round" stroke-linecap="round" stroke="#3E5FED" d="M26.7998 26.3L28.3198 27.82"></path>
<path stroke-linejoin="round" stroke-linecap="round" stroke="#3E5FED" d="M23.75 27.5699V29.7099"></path>
<path stroke-linejoin="round" stroke-linecap="round" stroke="#3E5FED" d="M20.6997 26.3L19.1797 27.82"></path>
<path stroke-linejoin="round" stroke-linecap="round" stroke="#3E5FED" d="M19.44 23.25H17.29"></path>
<path stroke-linejoin="round" stroke-linecap="round" stroke="#3E5FED" d="M20.6997 20.1999L19.1797 18.6899"></path>
<path stroke-linejoin="round" stroke-linecap="round" stroke="#3E5FED" d="M11.0899 29.72C12.8517 29.72 14.2799 28.2918 14.2799 26.53C14.2799 24.7682 12.8517 23.34 11.0899 23.34C9.32811 23.34 7.8999 24.7682 7.8999 26.53C7.8999 28.2918 9.32811 29.72 11.0899 29.72Z"></path>
<path stroke-linejoin="round" stroke-linecap="round" stroke="#3E5FED" d="M28.5 12.59C29.4444 12.59 30.21 11.8245 30.21 10.88C30.21 9.93564 29.4444 9.17004 28.5 9.17004C27.5556 9.17004 26.79 9.93564 26.79 10.88C26.79 11.8245 27.5556 12.59 28.5 12.59Z"></path>
<path fill="#3E5FED" d="M26.1299 4.43001C26.5551 4.43001 26.8999 4.08527 26.8999 3.66001C26.8999 3.23476 26.5551 2.89001 26.1299 2.89001C25.7046 2.89001 25.3599 3.23476 25.3599 3.66001C25.3599 4.08527 25.7046 4.43001 26.1299 4.43001Z"></path>
<path fill="#3E5FED" d="M4.60984 23.01C5.0351 23.01 5.37984 22.6652 5.37984 22.24C5.37984 21.8147 5.0351 21.47 4.60984 21.47C4.18458 21.47 3.83984 21.8147 3.83984 22.24C3.83984 22.6652 4.18458 23.01 4.60984 23.01Z"></path>
<path stroke-linejoin="round" stroke-linecap="round" stroke="#3E5FED" d="M24.3499 22.65L23.1499 23.86"></path>
</svg>
