<svg xmlns="http://www.w3.org/2000/svg" fill="none" viewBox="0 0 51 30" height="30" width="51">
<g clip-path="url(#clip0_5683_3033)">
<path stroke-linejoin="round" stroke-linecap="round" stroke="#3E5FED" d="M40.8903 6.62324C36.1946 6.62324 36.2674 0.864014 36.2674 0.864014C36.2674 0.864014 36.3402 6.62324 31.6445 6.62324C36.3402 6.62324 36.2674 12.3825 36.2674 12.3825C36.2674 12.3825 36.1946 6.62324 40.8903 6.62324Z"></path>
<path stroke-linejoin="round" stroke-linecap="round" stroke="#3E5FED" d="M50.1359 9.49922C45.4402 9.49922 45.513 3.73999 45.513 3.73999C45.513 3.73999 45.5858 9.49922 40.8901 9.49922C45.5858 9.49922 45.513 15.2584 45.513 15.2584C45.513 15.2584 45.4402 9.49922 50.1359 9.49922Z"></path>
<path stroke-linejoin="round" stroke-linecap="round" stroke="#3E5FED" d="M15.7373 23.1802V27.1046C15.7373 27.9856 16.276 28.5899 16.9531 28.8083C16.9531 28.8083 19.0862 29.6165 22.1001 28.7064C22.7554 28.5098 23.3378 27.9929 23.3378 27.1046V23.1802"></path>
<path stroke-linejoin="round" stroke-linecap="round" stroke="#3E5FED" d="M23.3013 23.1802V27.1046C23.3013 27.9856 23.84 28.5899 24.5171 28.8083C24.5171 28.8083 26.6501 29.6165 29.6641 28.7064C30.3193 28.5098 30.9017 27.9929 30.9017 27.1046V23.1802"></path>
<path stroke-linejoin="round" stroke-linecap="round" stroke="#3E5FED" d="M15.7373 25.8522C15.7373 26.5293 15.3151 27.0754 14.7909 27.0754H11.1727C10.6485 27.0754 9.93506 26.7041 9.93506 25.6119V22.8597"></path>
<path stroke-linejoin="round" stroke-linecap="round" stroke="#3E5FED" d="M30.8945 25.7285C30.8945 26.4056 31.2076 27.0827 31.8773 27.0682H35.4956C36.0197 27.0682 36.7332 26.6968 36.7332 25.6047V21.2216"></path>
<path stroke-linejoin="round" stroke-linecap="round" stroke="#3E5FED" d="M36.7334 23.8209C36.7334 24.498 37.1047 25.0441 37.5633 25.0441H40.752C41.2107 25.0441 41.8441 24.6728 41.8441 23.5806V18.6223"></path>
<path stroke-linejoin="round" stroke-linecap="round" stroke="#3E5FED" d="M9.9422 23.8209C9.9422 24.498 9.57091 25.0441 9.11227 25.0441H5.92356C5.46492 25.0441 4.83154 24.6728 4.83154 23.5806V17.9233"></path>
<path stroke-linejoin="round" stroke-linecap="round" stroke="#3E5FED" d="M23.5562 20.8283C23.5562 20.8283 22.6826 17.4354 19.7268 17.4354C16.7711 17.4354 15.8975 20.8283 15.8975 20.8283"></path>
<path stroke-linejoin="round" stroke-linecap="round" stroke="#3E5FED" d="M23.5562 20.8283C23.5562 20.8283 24.3715 17.4354 27.3273 17.4354C30.283 17.4354 30.6397 20.1949 30.6397 20.1949"></path>
<path stroke-linejoin="round" stroke-linecap="round" stroke="#3E5FED" d="M9.94241 20.195C9.94241 20.195 9.76768 16.5035 13.2039 16.6127C15.8393 16.7001 16.3271 19.7654 16.3271 19.7654"></path>
<path stroke-linejoin="round" stroke-linecap="round" stroke="#3E5FED" d="M30.4507 19.5105C30.4507 19.5105 30.4361 16.2122 33.8796 16.3433C36.2748 16.4307 36.6679 18.28 36.6679 18.28"></path>
<path stroke-linejoin="round" stroke-linecap="round" stroke="#3E5FED" d="M10.6483 17.7195C8.32591 12.7247 5.24641 15.6444 5.24641 15.6444C5.24641 15.6444 5.02073 11.4506 0.86377 13.8169"></path>
<path stroke-linejoin="round" stroke-linecap="round" stroke="#3E5FED" d="M36.4058 17.5083C36.4058 17.5083 37.3886 13.5912 41.1306 15.3095"></path>
<path stroke-linejoin="round" stroke-linecap="round" stroke="#3E5FED" d="M4.5912 21.622C4.5912 21.622 1.75923 21.5856 1.01665 18.4402C0.90745 17.9888 0.87105 14.392 0.86377 13.8096"></path>
<path stroke-linejoin="round" stroke-linecap="round" stroke="#3E5FED" d="M42.0039 21.622C42.0039 21.622 45.6003 20.8575 45.8551 16.6127"></path>
<path stroke-linejoin="round" stroke-linecap="round" stroke="#3E5FED" d="M41.1304 15.3094C41.1304 15.3094 42.0113 12.7975 43.5911 13.4091"></path>
</g>
<defs>
<clipPath id="clip0_5683_3033">
<rect transform="translate(0.5 0.5)" fill="white" height="29" width="50"></rect>
</clipPath>
</defs>
</svg>
