<svg width="50" height="24" viewBox="0 0 50 24" fill="none" xmlns="http://www.w3.org/2000/svg">
<path d="M44.6887 1.13177C45.4634 1.10567 46.5791 1.10849 47.3506 1.13678C47.3242 1.52023 47.3445 2.12527 47.3445 2.52971V5.22053L47.3453 13.5747L47.3455 16.201C47.3455 17.3545 47.4579 18.6324 47.0301 19.7157C46.2409 21.7141 44.1048 22.3669 42.1439 21.5871C40.2262 20.8246 39.7344 19.3458 38.6953 17.7594C37.8897 16.5119 37.1018 15.2219 36.3366 13.9488C36.0212 13.4241 35.6241 12.9297 35.3756 12.3731C35.2796 12.8486 35.3135 13.6528 35.314 14.1681L35.3159 16.889C35.3164 17.6411 35.3451 18.3668 35.2257 19.1135C34.9541 20.8117 33.3045 22.0323 31.5667 21.9112C30.5257 21.8376 29.5415 21.4197 28.777 20.7266C28.136 20.1459 27.6422 19.2573 27.1837 18.5204L24.5982 14.3813C24.1864 13.7312 23.8531 13.051 23.3341 12.47C23.3448 13.7396 23.3485 15.0093 23.3454 16.279C23.346 17.7286 23.4648 19.2233 22.4234 20.4164C21.2829 21.7232 19.8294 21.6484 18.239 21.6483L15.8057 21.6475C14.763 21.6471 13.6864 21.6686 12.6464 21.6371C10.225 21.5638 7.62037 20.7295 5.77664 19.1627C3.62835 17.3105 2.32948 14.6968 2.16978 11.9047C1.8489 7.13488 4.99774 2.63957 9.76831 1.54864C10.8138 1.30955 11.3826 1.20473 12.4788 1.14151C12.6573 1.1292 12.875 1.12532 13.0534 1.12705C14.2069 1.13824 15.384 1.09222 16.535 1.1341C16.5206 1.45272 16.5326 1.85224 16.5321 2.17633C16.5278 2.69138 16.528 3.20647 16.5327 3.72153C13.8896 3.82781 11.2728 3.35945 8.81964 4.62108C7.01303 5.54492 5.84207 7.01891 5.22869 8.89682C4.53151 11.0313 4.70338 13.2327 5.80833 15.2183C6.71958 16.8401 8.24647 18.0489 10.0613 18.5853C11.5212 19.007 12.4284 19.0527 13.9298 19.0529L16.1915 19.0521L18.1735 19.0535C19.049 19.0541 19.962 19.1763 20.48 18.2768C20.5127 18.22 20.5954 18.0369 20.6021 17.98C20.6958 17.1818 20.655 16.3373 20.6541 15.5298L20.6547 8.46094L20.6532 6.50534C20.6521 5.97439 20.6045 5.13157 20.7486 4.6551C20.8251 4.59447 20.8652 4.54476 20.9291 4.47138C21.5008 4.41945 21.5795 4.58622 21.8685 5.054C21.9528 5.19036 22.043 5.33994 22.1292 5.47578L23.105 6.9964L27.6664 14.0934C28.345 15.1839 29.0373 16.2663 29.743 17.3403C30.1766 18.001 30.7275 19.2635 31.7274 19.0453C32.0107 18.9969 32.495 18.5859 32.5501 18.299C32.7113 17.4586 32.6466 16.3548 32.6466 15.4977L32.647 8.23065L32.6458 6.10955C32.6454 5.72894 32.6369 5.3423 32.664 4.96237C32.679 4.75155 32.8116 4.64437 32.9216 4.46817C33.1756 4.45217 33.2281 4.4566 33.4659 4.53967C33.8285 4.92838 34.0815 5.40726 34.3687 5.85922L35.6405 7.85103L41.0101 16.1937C41.5474 17.0124 42.0346 17.9439 42.6735 18.6972C42.8622 18.9197 43.2243 19.0567 43.5167 19.0599C44.0797 19.0662 44.5768 18.5023 44.6513 17.9855C44.7098 17.5824 44.6914 17.1394 44.6914 16.7253L44.6919 14.7493L44.6912 7.62538C44.6907 5.48 44.7211 3.27086 44.6887 1.13177Z" fill="#737373"></path>
<path d="M17.3292 4.33163C17.5652 2.33234 19.3617 0.837794 21.4187 1.07851C22.7037 1.22889 23.7039 1.91629 24.493 2.90108C25.0023 3.53025 25.2952 4.15817 25.7039 4.82866L28.1555 8.92056C28.3037 9.17268 29.1054 10.5411 29.2763 10.6964L29.3108 10.6926C29.3335 10.6177 29.3089 9.57962 29.3101 9.39291L29.3125 6.35323C29.3123 4.96266 29.1486 3.70234 30.062 2.50711C31.6343 0.45016 34.5057 0.703892 36.1599 2.51121C36.8327 3.24654 37.3205 4.21865 37.8397 5.06392C38.0809 5.47256 38.3356 5.86007 38.5761 6.25918L39.9647 8.58182C40.3558 9.23277 40.7231 9.89437 41.1427 10.5308C41.1799 10.5872 41.2174 10.6057 41.2803 10.6201C41.3242 10.5182 41.3245 1.95489 41.2984 1.13346C41.8615 1.12628 42.4249 1.12356 42.9881 1.12529C43.2576 1.12517 43.7456 1.11351 43.996 1.14425C43.959 1.48205 43.9769 2.0582 43.9771 2.42322L43.9779 4.6403L43.9776 13.6735L43.9788 16.3721C43.9795 16.8822 43.9834 17.3722 43.9602 17.8865C43.9348 18.4446 43.4108 18.605 43.0807 18.1847C42.8143 17.8457 42.583 17.4225 42.349 17.0535L40.9871 14.9214L37.8711 10.0796C37.1755 8.99085 36.4835 7.90192 35.7838 6.81361C35.2361 5.96492 34.7285 5.08118 34.1276 4.26693C33.9652 4.04708 33.6595 3.88648 33.3955 3.85992C32.6472 3.78456 32.0563 4.15425 32.0092 4.91978C31.9847 5.31279 31.9792 5.67148 31.9792 6.06682L31.9789 7.74572L31.9794 14.5173L31.9811 16.5739C31.9818 16.9515 32.0031 17.3753 31.9664 17.7485C31.9173 18.2464 31.7923 18.552 31.2374 18.3301C30.7376 17.696 30.6 17.4126 30.1858 16.7689L28.7172 14.4799L25.1021 8.82929C24.9216 8.54361 24.7127 8.26591 24.5404 7.98885L23.0309 5.60418C22.7257 5.1208 22.2163 4.10848 21.6558 3.9131C20.8848 3.64433 20.0474 4.11265 20.0185 4.95054C19.985 5.39303 19.9958 5.75598 19.9965 6.16952L19.9988 8.19916L19.9983 15.0701L19.9993 16.8641C19.9993 17.1135 20.0139 17.5915 19.9745 17.8198C19.9344 18.0528 19.5803 18.3923 19.3344 18.3743C18.9798 18.4017 18.6218 18.3913 18.2659 18.3903L16.5324 18.3884L13.9646 18.389C13.1967 18.3888 12.4585 18.4037 11.6938 18.3104C8.66386 17.9404 6.27631 15.9102 5.67436 12.9665C5.39285 11.5898 5.4633 10.225 5.92522 8.89176C6.36434 7.64301 7.16562 6.54541 8.23185 5.7321C9.03898 5.12368 10.2395 4.67217 11.2479 4.47702C12.1778 4.29707 13.216 4.38872 14.1593 4.36357C14.9099 4.37031 15.7897 4.34066 16.5273 4.36897C16.5365 4.92433 16.5397 5.47977 16.5367 6.03518C16.5361 6.29588 16.5456 6.73141 16.5154 6.98283L13.9435 6.97019C12.1963 6.97182 10.7763 6.98419 9.46608 8.26655C7.75302 9.94314 7.67725 12.8149 9.43273 14.4767C10.2295 15.231 11.2564 15.5676 12.3119 15.7416C12.494 15.895 12.6038 15.826 12.8269 15.858L12.8335 15.8772C12.7585 15.9138 12.5836 15.8633 12.5277 15.902C12.6751 16.0185 15.8489 15.9251 16.3403 15.9609C16.6053 15.9802 17.0581 15.8908 17.2157 15.6645C17.39 15.4142 17.339 14.9584 17.3386 14.6649L17.3381 13.3959L17.3375 9.37349L17.3393 6.03306C17.3396 5.61453 17.3648 4.71151 17.3292 4.33163Z" fill="#737373"></path>
<path d="M17.3293 4.33167C17.3649 4.71154 17.3397 5.61456 17.3394 6.0331L17.3376 9.37352L17.3382 13.3959L17.3387 14.6649C17.3391 14.9585 17.3901 15.4143 17.2158 15.6646C17.0582 15.8908 16.6054 15.9802 16.3404 15.9609C15.849 15.9251 12.6752 16.0185 12.5278 15.902C12.5837 15.8633 12.7586 15.9138 12.8336 15.8773L12.827 15.858C12.6039 15.826 12.4941 15.895 12.312 15.7417C13.6587 15.8996 15.223 15.7952 16.5881 15.7976C16.8442 15.7981 17.2122 15.6005 17.2456 15.3226C17.3329 14.5961 17.2936 13.8277 17.2933 13.0912L17.2941 6.90691L17.2926 5.34059C17.2922 5.10179 17.2822 4.57579 17.3249 4.35337L17.3293 4.33167Z" fill="#737373"></path>
</svg>
