<svg xmlns="http://www.w3.org/2000/svg" fill="none" viewBox="0 0 20 14" height="14" width="20">
<path fill="#3086C8" d="M3.50633 7V10.7C3.50633 11 3.30633 11 3.00633 10.9C1.10633 10.1 0.00632834 7.6 0.706328 5.5C1.10633 4.4 1.90633 3.5 3.00633 3.1C3.40633 2.9 3.50633 3 3.50633 3.3V7ZM5.50633 7V3.3C5.50633 3 5.50633 3 5.80633 3.1C7.90633 3.9 9.00633 6.4 8.20633 8.5C7.80633 9.6 7.00633 10.5 5.90633 10.9C5.50633 11.1 5.50633 11 5.50633 10.7V7ZM12.7063 0H4.50633C8.30633 0 11.3063 3.1 11.3063 7C11.3063 10.9 8.30633 14 4.50633 14H12.7063C16.5063 14 19.5063 10.9 19.5063 7C19.5063 3.1 16.5063 0 12.7063 0Z" id="Vector"></path>
</svg>
