<svg xmlns="http://www.w3.org/2000/svg" fill="none" viewBox="0 0 38 6" height="6" width="38">
<g id="Page-1">
<g id="discover">
<path fill="#F47216" d="M20.1044 0C21.8641 0 23.2907 1.34119 23.2907 2.998V2.99988C23.2907 4.65669 21.8641 5.99976 20.1044 5.99976C18.3445 5.99976 16.918 4.65669 16.918 2.99988V2.998C16.918 1.34119 18.3445 0 20.1044 0Z" id="Vector"></path>
<path fill="#FBFCFF" d="M15.0993 0.0390625C15.6018 0.0390625 16.0234 0.14059 16.5365 0.385451V1.67955C16.0506 1.23231 15.629 1.04513 15.0715 1.04513C13.9757 1.04513 13.1142 1.89916 13.1142 2.98189C13.1142 4.12367 13.9492 4.92685 15.1258 4.92685C15.6555 4.92685 16.0692 4.74939 16.5365 4.30937V5.60415C16.0051 5.83969 15.5746 5.93263 15.0715 5.93263C13.2925 5.93263 11.9102 4.64735 11.9102 2.98991C11.9101 1.35022 13.3293 0.0390625 15.0993 0.0390625Z" id="Vector_2"></path>
<path fill="#FBFCFF" d="M9.57584 0.0742188C10.2326 0.0742188 10.8334 0.285863 11.3358 0.699539L10.7244 1.45306C10.4201 1.13193 10.1323 0.996502 9.78236 0.996502C9.27876 0.996502 8.91207 1.26639 8.91207 1.62148C8.91207 1.92601 9.11785 2.0872 9.81893 2.33144C11.1478 2.78891 11.5417 3.19462 11.5417 4.09046C11.5417 5.18212 10.6899 5.94207 9.47596 5.94207C8.58689 5.94207 7.94064 5.61246 7.40234 4.86872L8.15701 4.18442C8.42604 4.67408 8.87492 4.93652 9.43222 4.93652C9.95339 4.93652 10.3393 4.59804 10.3393 4.14114C10.3393 3.90429 10.2223 3.7013 9.989 3.55768C9.87149 3.48971 9.63874 3.38835 9.18138 3.23654C8.08409 2.86467 7.70767 2.46715 7.70767 1.69025C7.70761 0.767338 8.51608 0.0742188 9.57584 0.0742188Z" id="Vector_3"></path>
<path fill="#FBFCFF" d="M22.9258 0.172852H24.2019L25.7993 3.96049L27.4173 0.172852H28.6837L26.0962 5.95658H25.4674L22.9258 0.172852Z" id="Vector_4"></path>
<path fill="#FBFCFF" d="M5.79395 0.181641H6.96228V5.82073H5.79395V0.181641Z" id="Vector_5"></path>
<path fill="#FBFCFF" d="M29.2129 0.181641H32.5262V1.13714H30.3804V2.3888H32.4472V3.34385H30.3804V4.86603H32.5262V5.82073H29.2129V0.181641Z" id="Vector_6"></path>
<path fill="#FBFCFF" d="M35.7884 3.44509C36.6684 3.27645 37.1526 2.70988 37.1526 1.84653C37.1526 0.790751 36.3804 0.181641 35.033 0.181641H33.3008V5.82073H34.4677V3.55532H34.6201L36.2372 5.82067H37.6739L35.7884 3.44509ZM34.8091 2.77757H34.4677V1.0698H34.8275C35.555 1.0698 35.9505 1.35697 35.9505 1.90574C35.9506 2.47259 35.5552 2.77757 34.8091 2.77757Z" id="Vector_7"></path>
<path fill="#FBFCFF" d="M2.041 0.181641H0.326172V5.82073H2.03207C2.93905 5.82073 3.59423 5.61921 4.16916 5.16976C4.85249 4.63738 5.2565 3.83499 5.2565 3.00514C5.25656 1.34093 3.93573 0.181641 2.041 0.181641ZM3.40591 4.41788C3.03881 4.7298 2.562 4.86603 1.80717 4.86603H1.49354V1.13714H1.80711C2.56195 1.13714 3.01993 1.26443 3.40585 1.59319C3.80991 1.93196 4.05295 2.45677 4.05295 2.99706C4.05301 3.53815 3.80991 4.07912 3.40591 4.41788Z" id="Vector_8"></path>
</g>
</g>
</svg>
