<svg xmlns="http://www.w3.org/2000/svg" fill="none" viewBox="0 0 20 20" height="20" width="20">
<g clip-path="url(#clip0_1547_649)" id="Layer_1">
<rect fill="white" height="20" width="20"></rect>
<path fill="#006FCF" d="M20 20V16.8308H17.5872L16.3448 15.4572L15.0964 16.8308H7.1412V10.4288H4.5736L7.7584 3.2212H10.83L11.9264 5.6904V3.2212H15.7284L16.3884 5.082L17.0528 3.2212H20V0H0V20H20ZM17.9936 16.0292H20L17.346 13.2148L20 10.4324H18.0256L16.3864 12.2236L14.7632 10.4324H12.7564L15.3948 13.2308L12.7564 16.0292H14.7076L16.3548 14.222L17.994 16.0292H17.9936ZM18.4632 13.2172L20 14.8524V11.5956L18.4632 13.2172ZM9.518 14.734V13.8624H12.6764V12.5992H9.518V11.7276H12.7564V10.4324H7.9908V16.0296H12.7564V14.7344H9.518V14.734ZM18.4888 9.62H20V4.0228H17.6492L16.3936 7.5088L15.1464 4.0228H12.7556V9.62H14.2668V5.702L15.706 9.62H17.0492L18.4884 5.694V9.62H18.4888ZM11.0368 9.62H12.756L10.2852 4.0228H8.318L5.8472 9.62H7.5264L7.9904 8.5004H10.5652L11.0368 9.62ZM10.0372 7.2452H8.518L9.2776 5.414L10.0372 7.2452Z" id="Vector"></path>
</g>
<defs>
<clipPath id="clip0_1547_649">
<rect fill="white" height="20" width="20"></rect>
</clipPath>
</defs>
</svg>
