<svg xmlns="http://www.w3.org/2000/svg" fill="none" viewBox="0 0 32 14" height="14" width="32">
<path fill="#FBFCFF" d="M5.847 2.17602C5.47196 2.61513 4.87189 2.96147 4.27182 2.91199C4.19682 2.31827 4.4906 1.68744 4.83439 1.29781C5.20943 0.846337 5.86576 0.524738 6.39707 0.5C6.45957 1.11846 6.2158 1.72455 5.847 2.17602ZM6.39082 3.0295C5.52197 2.98002 4.77813 3.51808 4.36558 3.51808C3.94679 3.51808 3.31546 3.05423 2.62788 3.0666C1.73403 3.07897 0.902688 3.57992 0.446385 4.37774C-0.491222 5.97336 0.202607 8.33587 1.10896 9.63463C1.55276 10.2778 2.08407 10.9829 2.78415 10.9581C3.44673 10.9334 3.70926 10.5314 4.50935 10.5314C5.31569 10.5314 5.54697 10.9581 6.24705 10.9458C6.97213 10.9334 7.42843 10.3026 7.87224 9.65937C8.37854 8.92959 8.58482 8.21836 8.59732 8.18126C8.58482 8.16889 7.19716 7.6432 7.18466 6.05994C7.17216 4.73644 8.27853 4.10561 8.32854 4.06851C7.70347 3.15319 6.72835 3.05423 6.39082 3.0295ZM11.4101 1.23597V10.8777H12.9228V7.58135H15.0168C16.9295 7.58135 18.2734 6.28259 18.2734 4.40247C18.2734 2.52236 16.9545 1.23597 15.0668 1.23597H11.4101ZM12.9228 2.49762H14.6668C15.9794 2.49762 16.7295 3.19029 16.7295 4.40866C16.7295 5.62702 15.9794 6.32588 14.6605 6.32588H12.9228V2.49762ZM21.0362 10.952C21.9864 10.952 22.8677 10.4757 23.2677 9.72122H23.299V10.8777H24.6992V6.0785C24.6992 4.68696 23.574 3.7902 21.8426 3.7902C20.2362 3.7902 19.0485 4.69933 19.0048 5.94862H20.3674C20.4799 5.3549 21.0362 4.96527 21.7988 4.96527C22.7239 4.96527 23.2427 5.39201 23.2427 6.17745V6.70932L21.355 6.82065C19.5986 6.92578 18.6485 7.63701 18.6485 8.87393C18.6485 10.1232 19.6298 10.952 21.0362 10.952ZM21.4425 9.8078C20.6362 9.8078 20.1236 9.42436 20.1236 8.83682C20.1236 8.23073 20.6174 7.87821 21.5613 7.82255L23.2427 7.71741V8.26166C23.2427 9.16461 22.4677 9.8078 21.4425 9.8078ZM26.5681 13.5C28.0433 13.5 28.7371 12.9434 29.3434 11.255L32 3.88297H30.4623L28.6809 9.57897H28.6496L26.8682 3.88297H25.2867L27.8495 10.9025L27.712 11.3292C27.4807 12.0528 27.1057 12.3311 26.4369 12.3311C26.3181 12.3311 26.0868 12.3187 25.9931 12.3064V13.4629C26.0806 13.4876 26.4556 13.5 26.5681 13.5Z" id="XMLID_34_"></path>
</svg>
