<svg xmlns="http://www.w3.org/2000/svg" fill="none" viewBox="0 0 20 14" height="14" width="20">
<g id="Group">
<path fill="#FF5A00" d="M12.6985 2.13867H7.28613V11.8624H12.6985V2.13867Z" id="rect19"></path>
<path fill="#EB001B" d="M7.6461 7.00036C7.6461 5.02479 8.57484 3.27139 9.99998 2.13848C8.95114 1.31383 7.62808 0.81543 6.18493 0.81543C2.76621 0.81543 0 3.58164 0 7.00036C0 10.4191 2.76621 13.1853 6.18493 13.1853C7.62808 13.1853 8.95114 12.6869 9.99998 11.8622C8.57284 10.7453 7.6461 8.97594 7.6461 7.00036Z" id="XMLID_330_"></path>
<path fill="#F79E1B" d="M20 7.00036C20 10.4191 17.2338 13.1853 13.815 13.1853C12.3719 13.1853 11.0488 12.6869 10 11.8622C11.4432 10.7273 12.3539 8.97594 12.3539 7.00036C12.3539 5.02479 11.4251 3.27139 10 2.13848C11.0468 1.31383 12.3699 0.81543 13.813 0.81543C17.2338 0.81543 20 3.59965 20 7.00036Z" id="path22"></path>
</g>
</svg>
