<svg xmlns="http://www.w3.org/2000/svg" fill="none" viewBox="0 0 14 16" height="16" width="14">
<g id="Group">
<path fill="#FBFCFF" d="M12.4653 4.06194C12.6624 2.81743 12.4653 1.97047 11.7871 1.20418C11.045 0.35722 9.70012 0 7.98418 0H2.99867C2.64505 0 2.34939 0.253511 2.29142 0.599208L0.210263 13.7299C0.169684 13.9892 0.372582 14.2254 0.633452 14.2254H3.71171L3.49722 15.5679C3.46244 15.7926 3.63635 16 3.86823 16H6.46533C6.77258 16 7.03345 15.7753 7.07983 15.4757L7.10302 15.3432L7.58997 12.255L7.61896 12.0821C7.66533 11.7825 7.9262 11.5578 8.23345 11.5578H8.62186C11.1378 11.5578 13.103 10.538 13.6827 7.59381C13.9204 6.36082 13.7987 5.33525 13.161 4.61505C12.9697 4.39611 12.732 4.2175 12.4479 4.0677" opacity="0.68" id="Shape"></path>
<path fill="#FBFCFF" d="M12.4653 4.06194C12.6624 2.81743 12.4653 1.97047 11.7871 1.20418C11.045 0.35722 9.70012 0 7.98418 0H2.99867C2.64505 0 2.34939 0.253511 2.29142 0.599208L0.210263 13.7299C0.169684 13.9892 0.372582 14.2254 0.633452 14.2254H3.71171L4.48273 9.33381L4.45954 9.48938C4.51171 9.14368 4.81316 8.89017 5.16099 8.89017H6.62186C9.49722 8.89017 11.7465 7.72632 12.4074 4.36154C12.4248 4.26359 12.4421 4.16565 12.4595 4.07346" opacity="0.7" id="Shape-2"></path>
<path fill="#FBFCFF" d="M5.32331 4.07922C5.35809 3.8718 5.49142 3.69896 5.67113 3.61253C5.75229 3.5722 5.84505 3.54915 5.9378 3.54915H9.84505C10.3088 3.54915 10.7378 3.57796 11.1378 3.64134C11.2479 3.65862 11.3581 3.68167 11.4682 3.70472C11.5726 3.72776 11.6769 3.75657 11.7813 3.78538C11.8335 3.80266 11.8798 3.81419 11.932 3.83147C12.1233 3.89485 12.3088 3.96975 12.4711 4.06194C12.6682 2.81743 12.4711 1.97047 11.7929 1.20418C11.0508 0.35722 9.70592 0 7.98997 0H2.99867C2.64505 0 2.34939 0.253511 2.29142 0.599208L0.210263 13.7299C0.169684 13.9892 0.372582 14.2254 0.633452 14.2254H3.71171L4.48273 9.33381L5.31171 4.07922H5.32331Z" id="Shape-3"></path>
</g>
</svg>
