<svg xmlns="http://www.w3.org/2000/svg" fill="none" viewBox="0 0 20 18" height="18" width="20">
<path stroke-linejoin="round" stroke-linecap="round" stroke="#3E5FED" d="M14.85 2.5H5.15C4.24 2.5 3.5 3.175 3.5 4C3.5 4.825 4.24 5.5 5.15 5.5H14.85C15.76 5.5 16.5 4.825 16.5 4C16.5 3.175 15.76 2.5 14.85 2.5Z"></path>
<path stroke-linejoin="round" stroke-linecap="round" stroke="#3E5FED" d="M14.85 7.5H5.15C4.24 7.5 3.5 8.175 3.5 9C3.5 9.825 4.24 10.5 5.15 10.5H14.85C15.76 10.5 16.5 9.825 16.5 9C16.5 8.175 15.76 7.5 14.85 7.5Z"></path>
<path stroke-linejoin="round" stroke-linecap="round" stroke="#3E5FED" d="M14.85 12.5H5.15C4.24 12.5 3.5 13.175 3.5 14C3.5 14.825 4.24 15.5 5.15 15.5H14.85C15.76 15.5 16.5 14.825 16.5 14C16.5 13.175 15.76 12.5 14.85 12.5Z"></path>
</svg>
