<svg width="80" height="20" viewBox="0 0 80 20" fill="none" xmlns="http://www.w3.org/2000/svg">
<g clip-path="url(#clip0_1_1197)">
<path d="M44.8974 6.45392C44.8974 4.14326 44.9373 1.99203 45.0573 0L38.9405 1.15533V1.71297L39.5403 1.79257C39.9801 1.83237 40.2599 1.9918 40.4199 2.23082C40.5799 2.50965 40.6997 2.9081 40.7799 3.50578C40.8597 4.66111 40.9398 7.29039 40.8999 11.4336C40.8999 15.5371 40.86 18.1266 40.7799 19.1225C42.9786 19.6005 44.6979 19.7998 45.9771 19.7998C48.3758 19.7998 50.2549 19.1225 51.6142 17.7281C52.9735 16.3736 53.6931 14.4614 53.6931 12.1109C53.6931 10.2385 53.1735 8.68474 52.1339 7.44982C51.0945 6.21489 49.7751 5.61721 48.2158 5.61721C47.1765 5.61721 46.0969 5.89603 44.8976 6.45392H44.8974ZM45.0172 18.7243C44.9373 17.4493 44.8572 13.6249 44.8572 7.37022C45.2171 7.25059 45.6968 7.17099 46.2964 7.17099C47.2559 7.17099 48.0154 7.64904 48.5753 8.64494C49.1351 9.64084 49.415 10.836 49.415 12.3499C49.415 14.2224 49.0952 15.7363 48.4555 17.0111C47.8157 18.246 47.0162 18.8835 46.0166 18.8835C45.6968 18.8039 45.3769 18.7638 45.0172 18.724V18.7243ZM15.9919 0.398454H0V1.19513L0.839664 1.27472C1.4794 1.39435 1.9192 1.63338 2.19901 1.9918C2.47882 2.39025 2.63881 3.0275 2.67875 3.904C2.9985 8.20669 2.9985 12.2303 2.67875 15.9353C2.59887 16.8118 2.43888 17.4493 2.19901 17.8475C1.9192 18.246 1.4794 18.485 0.839664 18.5646L0 18.6842V19.4809H10.3147V18.6842L9.23513 18.6046C8.59539 18.525 8.15559 18.246 7.87578 17.8876C7.59597 17.4891 7.43598 16.8519 7.39604 15.9754C7.27599 14.3818 7.19611 12.5492 7.19611 10.5173L9.35494 10.5571C10.5144 10.5969 11.3138 11.4734 11.7137 13.2265H12.5132V6.73274H11.7137C11.3138 8.44571 10.5543 9.32222 9.35494 9.36202L7.19611 9.40181C7.19611 5.8162 7.27599 3.26652 7.39604 1.71297H10.5545C12.7935 1.71297 14.3126 3.14713 15.1922 6.01566L16.1517 5.73684L15.9917 0.398454H15.9919ZM14.1129 12.6688C14.1129 14.7404 14.7127 16.4534 15.8721 17.808C17.0315 19.1625 18.7505 19.8 20.9096 19.8C23.0687 19.8 24.8276 19.1227 26.1069 17.7284C27.3863 16.3738 27.9859 14.6608 27.9859 12.5892C27.9859 10.5176 27.3861 8.8046 26.2267 7.45005C25.0673 6.0955 23.3482 5.45802 21.1892 5.45802C19.0301 5.45802 17.2711 6.13529 15.9919 7.52965C14.7124 8.8842 14.1129 10.5972 14.1129 12.6688ZM23.0283 8.12709C23.508 9.28242 23.7079 10.7964 23.7079 12.6288C23.7079 16.8516 22.8283 18.9233 21.1093 18.9233C20.2297 18.9233 19.55 18.3256 19.0703 17.1305C18.5905 15.9353 18.3906 14.4213 18.3906 12.6288C18.3906 8.44571 19.2702 6.37408 20.9892 6.37408C21.8689 6.33429 22.5485 6.93173 23.0283 8.12709ZM56.8112 17.808C58.1306 19.1227 59.8097 19.8 61.8088 19.8C63.0481 19.8 64.1276 19.561 65.0871 19.0431C66.0466 18.5651 66.8061 17.9674 67.3261 17.2503L66.9262 16.7723C66.0466 17.4495 65.0472 17.7682 63.8878 17.7682C62.2885 17.7682 61.0493 17.2503 60.2096 16.1746C59.33 15.0989 58.9301 13.7443 59.0102 11.9915H67.5659C67.5659 10.0793 67.0862 8.52555 66.0868 7.29062C65.0873 6.0955 63.6881 5.49782 61.8889 5.49782C59.65 5.49782 57.9309 6.21489 56.6916 7.60924C55.4524 9.0036 54.8526 10.7166 54.8526 12.7484C54.8526 14.7802 55.4923 16.4932 56.8115 17.808H56.8112ZM59.7698 7.80847C60.2096 6.85237 60.7692 6.37432 61.529 6.37432C62.7283 6.37432 63.3281 7.8883 63.3281 10.9558L59.0904 11.0354C59.1303 9.8403 59.3302 8.76457 59.77 7.80847H59.7698ZM78.3204 6.21489C77.2409 5.73684 75.8815 5.45802 74.2424 5.45802C72.6032 5.45802 71.2439 5.89627 70.2444 6.73298C69.245 7.56968 68.7251 8.60538 68.7251 9.8403C68.7251 10.916 69.0449 11.7525 69.6446 12.3502C70.2444 12.9479 71.2039 13.4657 72.4432 13.904C73.5627 14.3024 74.3622 14.7006 74.762 15.0593C75.1619 15.4577 75.4018 15.896 75.4018 16.4934C75.4018 17.0511 75.2018 17.5692 74.762 17.9674C74.3622 18.4056 73.8026 18.6049 73.0829 18.6049C71.3237 18.6049 70.0046 17.3299 69.085 14.7802L68.4054 14.9795L68.5654 18.9633C70.0046 19.5209 71.6038 19.8 73.363 19.8C75.1222 19.8 76.6014 19.4015 77.6407 18.5651C78.6801 17.7684 79.2 16.6131 79.2 15.1787C79.2 14.2226 78.9601 13.4257 78.4404 12.8282C77.9208 12.2308 77.0811 11.7127 75.8818 11.2347C74.5623 10.7566 73.6428 10.3184 73.1631 9.9199C72.6833 9.52145 72.4435 9.0434 72.4435 8.44595C72.4435 7.8485 72.6034 7.37022 72.9631 6.972C73.3228 6.57378 73.7626 6.41435 74.3225 6.41435C75.9217 6.41435 77.0811 7.56968 77.8007 9.84054L78.4804 9.64131L78.3204 6.21513V6.21489ZM39.8598 5.85624C39.3002 5.57741 38.7004 5.45778 38.0208 5.45778C37.3411 5.45778 36.6614 5.73661 35.9019 6.29449C35.1423 6.85237 34.5825 7.60924 34.1427 8.64494L34.1826 5.45778L28.1057 6.65291V7.21055L28.7055 7.25035C29.4651 7.32995 29.9049 7.92763 29.985 9.00336C30.2248 11.4734 30.2248 14.1027 29.985 16.8914C29.9051 17.9672 29.4653 18.5248 28.7055 18.6444L28.1057 18.724V19.4809H36.5815V18.724L35.502 18.6444C34.7424 18.5648 34.3026 17.9672 34.2225 16.8914C33.9827 14.5808 33.9427 12.1107 34.1427 9.56101C34.3825 9.16255 34.9022 8.92353 35.7019 8.84393C36.5014 8.76434 37.421 9.00336 38.3807 9.56101L39.8598 5.856V5.85624Z" fill="#737373"></path>
</g>
<defs>
<clipPath id="clip0_1_1197">
<rect width="79.2" height="19.8" fill="white"></rect>
</clipPath>
</defs>
</svg>
