<svg xmlns="http://www.w3.org/2000/svg" fill="none" viewBox="0 0 75 75" height="75" width="75">
<path fill="#FBFCFF" d="M70.1902 11.0469H4.80894C4.59183 11.0469 4.38361 11.1331 4.23008 11.2866C4.07655 11.4401 3.99027 11.6483 3.99023 11.8654V50.0092C3.99027 50.2263 4.07655 50.4345 4.23008 50.588C4.38361 50.7415 4.59183 50.8278 4.80894 50.8278H43.2171C43.4324 50.8249 43.6378 50.7374 43.789 50.5842C43.9401 50.431 44.0249 50.2244 44.0249 50.0092C44.0249 49.7939 43.9401 49.5873 43.789 49.4341C43.6378 49.2809 43.4324 49.1934 43.2171 49.1905H5.62749V12.684H69.3716V49.1904H66.2789C66.1705 49.1889 66.0628 49.209 65.9623 49.2495C65.8617 49.29 65.7701 49.3501 65.6929 49.4262C65.6157 49.5024 65.5545 49.5931 65.5126 49.6932C65.4708 49.7932 65.4493 49.9006 65.4493 50.009C65.4493 50.1174 65.4708 50.2248 65.5126 50.3248C65.5545 50.4249 65.6157 50.5156 65.6929 50.5918C65.7701 50.6679 65.8617 50.728 65.9623 50.7685C66.0628 50.809 66.1705 50.8291 66.2789 50.8276H70.19C70.4071 50.8276 70.6154 50.7414 70.7689 50.5879C70.9224 50.4344 71.0087 50.2262 71.0087 50.0091V11.8654C71.0087 11.6483 70.9224 11.4402 70.7689 11.2867C70.6154 11.1332 70.4073 11.0469 70.1902 11.0469Z"></path>
<path fill="#FBFCFF" d="M46.0165 47.4106C46.1604 47.7601 46.18 48.3041 46.1989 48.8315C46.2327 49.7724 46.2711 50.8383 47.0025 51.5741C47.6363 52.2113 48.5211 52.3292 49.358 52.3745V63.1342C49.358 63.2783 49.396 63.4198 49.4682 63.5445C49.5404 63.6692 49.6442 63.7726 49.7692 63.8443C49.8942 63.916 50.0359 63.9534 50.1799 63.9528C50.324 63.9522 50.4654 63.9136 50.5898 63.8409L54.8299 61.3624L59.0702 63.8409C59.1945 63.9136 59.3359 63.9522 59.4799 63.9527C59.624 63.9533 59.7657 63.9159 59.8906 63.8442C60.0156 63.7725 60.1194 63.6691 60.1916 63.5444C60.2638 63.4198 60.3018 63.2783 60.3018 63.1342V54.8341C60.3018 54.617 60.2156 54.4088 60.0621 54.2553C59.9086 54.1018 59.7004 54.0156 59.4833 54.0156C59.2662 54.0156 59.058 54.1018 58.9045 54.2553C58.7509 54.4088 58.6647 54.617 58.6647 54.8341V61.7067L55.243 59.7065C55.1176 59.6333 54.9751 59.5947 54.8299 59.5947C54.6847 59.5947 54.5422 59.6333 54.4168 59.7065L50.9952 61.7066V51.6692C50.9952 51.661 50.993 51.6534 50.9929 51.6453C50.9929 51.6425 50.9939 51.6402 50.9941 51.6374C51.0061 51.4206 50.9315 51.208 50.7868 51.0461C50.6421 50.8843 50.439 50.7866 50.2222 50.7745C50.0851 50.7668 49.9468 50.7613 49.8086 50.7556C49.1368 50.7282 48.4424 50.6998 48.1632 50.4187C47.884 50.1375 47.8591 49.4435 47.835 48.7719C47.8108 48.1002 47.786 47.4077 47.5306 46.7872C47.2852 46.1907 46.8245 45.6967 46.3792 45.2198C45.9105 44.7163 45.4247 44.1957 45.4257 43.7627C45.4268 43.3297 45.9147 42.8116 46.3865 42.3104C46.8343 41.8351 47.2974 41.3437 47.546 40.7485C47.8045 40.1291 47.8329 39.4358 47.8603 38.7652C47.8877 38.0946 47.9163 37.3991 48.1972 37.1199C48.4782 36.8407 49.1725 36.8157 49.8444 36.7916C50.5164 36.7676 51.2082 36.7427 51.8292 36.4871C52.4253 36.2417 52.9193 35.7812 53.3965 35.3357C53.8994 34.867 54.4194 34.3823 54.852 34.3823H54.8535C55.2866 34.3833 55.8046 34.8714 56.3056 35.3429C56.7811 35.7909 57.2724 36.2539 57.8678 36.5025C58.4872 36.7612 59.1805 36.7895 59.8511 36.8168C60.5217 36.8442 61.2172 36.8728 61.4962 37.1538C61.7753 37.4347 61.8004 38.1291 61.8247 38.801C61.849 39.4729 61.8736 40.1649 62.1292 40.7857C62.3746 41.3819 62.8351 41.8757 63.2806 42.3531C63.7493 42.8565 64.2351 43.3771 64.234 43.81C64.233 44.2429 63.7449 44.7611 63.2731 45.2623C62.8254 45.7376 62.3624 46.2291 62.1138 46.8245C61.8551 47.4438 61.8269 48.1369 61.7995 48.8075C61.7721 49.4781 61.7432 50.1736 61.4626 50.4531C61.1819 50.7326 60.4873 50.757 59.8155 50.7812C59.1437 50.8054 58.4513 50.8301 57.8306 51.0857C57.2344 51.3311 56.7405 51.7917 56.2632 52.2371C55.7605 52.7059 55.2406 53.1906 54.8079 53.1906H54.8066C54.4187 53.1896 53.957 52.791 53.5546 52.4174C53.4763 52.3418 53.3837 52.2825 53.2822 52.2431C53.1807 52.2037 53.0723 52.1849 52.9635 52.1879C52.8547 52.1909 52.7475 52.2156 52.6483 52.2605C52.5491 52.3054 52.4599 52.3696 52.3858 52.4494C52.3118 52.5292 52.2544 52.623 52.217 52.7253C52.1797 52.8275 52.1631 52.9362 52.1683 53.045C52.1734 53.1538 52.2002 53.2604 52.2471 53.3587C52.294 53.4569 52.36 53.5448 52.4413 53.6173C53.0712 54.2015 53.8238 54.8252 54.8029 54.8278H54.8088C55.8859 54.8278 56.68 54.0878 57.3805 53.4346C57.7509 53.0891 58.1343 52.7315 58.4551 52.5997C58.8044 52.4558 59.3486 52.4362 59.8753 52.4174C60.8164 52.3836 61.8831 52.3452 62.6185 51.6135C63.3538 50.8818 63.3976 49.8154 63.4363 48.8743C63.4578 48.348 63.4802 47.8038 63.6257 47.4553C63.7594 47.1349 64.1186 46.7536 64.4661 46.3846C65.1238 45.6859 65.8695 44.8943 65.8723 43.8141C65.8751 42.7339 65.1335 41.9382 64.4791 41.236C64.1336 40.8652 63.776 40.4819 63.6441 40.1612C63.5002 39.8119 63.4807 39.2677 63.4618 38.7411C63.4281 37.7999 63.3897 36.7333 62.658 35.9979C61.9263 35.2624 60.8599 35.2188 59.9188 35.1802C59.3923 35.1586 58.8481 35.1362 58.4996 34.9908C58.1793 34.857 57.7977 34.4977 57.4287 34.1504C56.7302 33.4924 55.9385 32.7468 54.8582 32.7441H54.8524C53.7752 32.7441 52.9814 33.4842 52.2809 34.1374C51.9102 34.4829 51.5268 34.8405 51.206 34.9723C50.8568 35.1163 50.3125 35.1356 49.7861 35.1547C48.845 35.1884 47.7784 35.2266 47.0426 35.9584C46.3068 36.6903 46.2636 37.7565 46.2251 38.6977C46.2036 39.2242 46.1812 39.7684 46.0357 40.1168C45.902 40.4371 45.5428 40.8187 45.1953 41.1875C44.5376 41.8861 43.7917 42.6777 43.7891 43.758C43.7864 44.8383 44.5279 45.6337 45.1823 46.3361C45.5273 46.7064 45.8844 47.0895 46.0165 47.4106Z"></path>
<path fill="#FBFCFF" d="M51.1925 40.3802C51.1031 40.3205 51.0028 40.2789 50.8974 40.258C50.7919 40.2371 50.6834 40.2371 50.578 40.2581C50.4725 40.2792 50.3723 40.3208 50.2829 40.3806C50.1936 40.4404 50.1169 40.5172 50.0573 40.6067C49.4826 41.4694 49.1525 42.4718 49.1021 43.5072C49.0517 44.5426 49.2828 45.5723 49.771 46.4868C50.2591 47.4013 50.986 48.1664 51.8742 48.7008C52.7625 49.2351 53.7791 49.5187 54.8157 49.5214H54.8303C56.3513 49.5234 57.8108 48.921 58.8876 47.8469C59.9645 46.7728 60.5706 45.3149 60.5725 43.7939C60.5745 42.2729 59.9721 40.8134 58.898 39.7366C57.8239 38.6597 56.3659 38.0536 54.845 38.0517H54.8303C54.4673 38.0518 54.105 38.0861 53.7484 38.1542C53.6428 38.1744 53.5422 38.2152 53.4524 38.2743C53.3626 38.3333 53.2853 38.4095 53.2249 38.4985C53.1646 38.5874 53.1223 38.6874 53.1006 38.7926C53.0788 38.8979 53.078 39.0064 53.0982 39.112C53.1184 39.2176 53.1592 39.3182 53.2183 39.408C53.2773 39.4978 53.3535 39.5751 53.4425 39.6355C53.5314 39.6958 53.6314 39.7381 53.7366 39.7598C53.8419 39.7816 53.9504 39.7824 54.056 39.7622C54.3145 39.7104 54.5777 39.6858 54.8413 39.6889C55.9239 39.6966 56.9594 40.1324 57.7217 40.9012C58.484 41.6699 58.9111 42.709 58.9098 43.7916C58.9084 44.8743 58.4786 45.9123 57.7144 46.6791C56.9501 47.4459 55.9135 47.8791 54.8309 47.884H54.8205C54.08 47.882 53.3539 47.6793 52.7193 47.2976C52.0847 46.9159 51.5655 46.3694 51.2166 45.7162C50.8678 45.063 50.7025 44.3274 50.7383 43.5878C50.774 42.8481 51.0095 42.132 51.4197 41.5155C51.4794 41.426 51.5208 41.3257 51.5417 41.2202C51.5625 41.1147 51.5624 41.0062 51.5413 40.9008C51.5202 40.7953 51.4785 40.6951 51.4187 40.6058C51.3589 40.5165 51.282 40.4398 51.1925 40.3802ZM15.9553 22.3014H45.5415C45.6499 22.3028 45.7575 22.2827 45.8581 22.2422C45.9587 22.2018 46.0502 22.1417 46.1274 22.0655C46.2046 21.9894 46.2659 21.8986 46.3077 21.7986C46.3496 21.6986 46.3711 21.5912 46.3711 21.4828C46.3711 21.3743 46.3496 21.267 46.3077 21.1669C46.2659 21.0669 46.2046 20.9762 46.1274 20.9C46.0502 20.8238 45.9587 20.7638 45.8581 20.7233C45.7575 20.6828 45.6499 20.6627 45.5415 20.6641H15.9553C15.7401 20.667 15.5346 20.7545 15.3835 20.9077C15.2323 21.0609 15.1475 21.2675 15.1475 21.4828C15.1475 21.698 15.2323 21.9046 15.3835 22.0578C15.5346 22.211 15.7401 22.2985 15.9553 22.3014ZM59.0438 22.3014C59.1522 22.3028 59.2599 22.2827 59.3604 22.2422C59.461 22.2018 59.5526 22.1417 59.6298 22.0655C59.707 21.9894 59.7682 21.8986 59.8101 21.7986C59.8519 21.6986 59.8734 21.5912 59.8734 21.4828C59.8734 21.3743 59.8519 21.267 59.8101 21.1669C59.7682 21.0669 59.707 20.9762 59.6298 20.9C59.5526 20.8238 59.461 20.7638 59.3604 20.7233C59.2599 20.6828 59.1522 20.6627 59.0438 20.6641H50.8483C50.7399 20.6627 50.6322 20.6828 50.5316 20.7233C50.431 20.7638 50.3395 20.8238 50.2623 20.9C50.1851 20.9762 50.1238 21.0669 50.082 21.1669C50.0402 21.267 50.0186 21.3743 50.0186 21.4828C50.0186 21.5912 50.0402 21.6986 50.082 21.7986C50.1238 21.8986 50.1851 21.9894 50.2623 22.0655C50.3395 22.1417 50.431 22.2018 50.5316 22.2422C50.6322 22.2827 50.7399 22.3028 50.8483 22.3014H59.0438ZM59.8625 28.7587C59.8625 28.6512 59.8413 28.5448 59.8002 28.4454C59.759 28.3461 59.6987 28.2559 59.6227 28.1799C59.5467 28.1038 59.4564 28.0436 59.3571 28.0024C59.2578 27.9613 59.1513 27.9401 59.0438 27.9402H15.9553C15.7382 27.9402 15.53 28.0264 15.3765 28.1799C15.223 28.3334 15.1367 28.5416 15.1367 28.7587C15.1367 28.9758 15.223 29.184 15.3765 29.3375C15.53 29.491 15.7382 29.5773 15.9553 29.5773H59.0438C59.1513 29.5773 59.2578 29.5561 59.3571 29.515C59.4564 29.4739 59.5467 29.4136 59.6227 29.3376C59.6987 29.2616 59.759 29.1713 59.8002 29.072C59.8413 28.9727 59.8625 28.8662 59.8625 28.7587ZM15.9553 35.3643C15.7401 35.3672 15.5346 35.4547 15.3835 35.6079C15.2323 35.7611 15.1475 35.9677 15.1475 36.1829C15.1475 36.3981 15.2323 36.6047 15.3835 36.7579C15.5346 36.9111 15.7401 36.9987 15.9553 37.0015H38.5064C38.6148 37.003 38.7225 36.9829 38.823 36.9424C38.9236 36.9019 39.0152 36.8418 39.0924 36.7657C39.1696 36.6895 39.2308 36.5988 39.2727 36.4987C39.3145 36.3987 39.336 36.2913 39.336 36.1829C39.336 36.0745 39.3145 35.9671 39.2727 35.8671C39.2308 35.767 39.1696 35.6763 39.0924 35.6001C39.0152 35.524 38.9236 35.4639 38.823 35.4234C38.7225 35.3829 38.6148 35.3628 38.5064 35.3643H15.9553Z"></path>
</svg>
