<svg xmlns="http://www.w3.org/2000/svg" fill="none" viewBox="0 0 75 75" height="75" width="75">
<path fill="white" d="M15.5132 54.412C14.1681 54.4133 12.8785 54.9482 11.9273 55.8993C10.9761 56.8503 10.441 58.1399 10.4395 59.485C10.4408 60.8302 10.9758 62.12 11.927 63.0714C12.8782 64.0227 14.1679 64.5579 15.5132 64.5595C16.8585 64.5579 18.1482 64.0227 19.0994 63.0714C20.0506 62.12 20.5856 60.8302 20.587 59.485C20.5856 58.1398 20.0505 56.8502 19.0993 55.8991C18.1481 54.948 16.8583 54.4131 15.5132 54.412ZM15.5132 62.8682C14.6164 62.8672 13.7566 62.5105 13.1225 61.8764C12.4884 61.2423 12.1317 60.3825 12.1307 59.4857C12.1319 58.589 12.4887 57.7295 13.1228 57.0955C13.7569 56.4615 14.6165 56.1049 15.5132 56.104C16.4099 56.1047 17.2697 56.4613 17.9038 57.0953C18.538 57.7293 18.8947 58.589 18.8957 59.4857C18.8949 60.3826 18.5383 61.2424 17.9041 61.8766C17.2699 62.5108 16.4101 62.8674 15.5132 62.8682ZM57.7945 22.2782C58.9156 22.277 59.9904 21.8311 60.7831 21.0384C61.5759 20.2456 62.0218 19.1708 62.023 18.0497C62.0218 16.9287 61.5759 15.8539 60.7831 15.0613C59.9903 14.2687 58.9155 13.8229 57.7945 13.822C56.6736 13.8233 55.5991 14.2692 54.8065 15.0618C54.014 15.8543 53.5681 16.9289 53.5667 18.0497C53.5679 19.1707 54.0137 20.2454 54.8063 21.0381C55.5988 21.8308 56.6735 22.2768 57.7945 22.2782ZM57.7945 15.5132C58.4669 15.514 59.1116 15.7815 59.5872 16.257C60.0627 16.7325 60.3302 17.3772 60.331 18.0497C60.3304 18.7223 60.063 19.3672 59.5874 19.8429C59.1119 20.3186 58.4671 20.5862 57.7945 20.587C57.1218 20.5862 56.477 20.3186 56.0015 19.8429C55.526 19.3672 55.2586 18.7223 55.258 18.0497C55.2586 17.3772 55.526 16.7323 56.0015 16.2568C56.4771 15.7812 57.1219 15.5138 57.7945 15.5132ZM29.0432 50.1835C28.1464 50.1844 27.2866 50.5411 26.6525 51.1753C26.0184 51.8094 25.6617 52.6692 25.6607 53.566C25.6617 54.4627 26.0184 55.3225 26.6525 55.9566C27.2866 56.5908 28.1464 56.9475 29.0432 56.9485C29.9401 56.9477 30.7999 56.591 31.4341 55.9569C32.0683 55.3227 32.4249 54.4628 32.4257 53.566C32.4249 52.6691 32.0683 51.8092 31.4341 51.175C30.7999 50.5409 29.9401 50.1843 29.0432 50.1835ZM29.0432 55.2572C28.5948 55.2568 28.1648 55.0785 27.8477 54.7614C27.5307 54.4443 27.3524 54.0144 27.352 53.566C27.352 52.6337 28.111 51.8747 29.0432 51.8747C29.9755 51.8747 30.7345 52.633 30.7345 53.566C30.7341 54.0144 30.5557 54.4443 30.2387 54.7614C29.9216 55.0785 29.4916 55.2568 29.0432 55.2572ZM49.3382 51.0295C48.4424 51.03 47.5585 51.2343 46.7533 51.6269C45.9481 52.0194 45.2427 52.5899 44.6905 53.2952C44.0482 52.9192 43.3174 52.721 42.5732 52.7207C41.4522 52.7221 40.3774 53.168 39.5847 53.9607C38.792 54.7534 38.3461 55.8282 38.3447 56.9492C38.3461 58.0702 38.7921 59.1448 39.5848 59.9374C40.3775 60.73 41.4522 61.1758 42.5732 61.177C43.3174 61.1767 44.0482 60.9784 44.6905 60.6025C45.2427 61.3078 45.9481 61.8783 46.7533 62.2708C47.5585 62.6633 48.4424 62.8676 49.3382 62.8682C52.6022 62.8682 55.2572 60.2132 55.2572 56.9492C55.2572 53.6845 52.6022 51.0295 49.3382 51.0295ZM49.3382 61.177C48.6807 61.1764 48.0325 61.0221 47.4452 60.7265C46.8579 60.4309 46.3479 60.0022 45.9557 59.4745C45.4068 58.7467 45.1099 57.86 45.1099 56.9485C45.1099 56.0369 45.4068 55.1502 45.9557 54.4225C46.3479 53.8948 46.858 53.4662 47.4453 53.1707C48.0326 52.8752 48.6808 52.7211 49.3382 52.7207C50.4592 52.7219 51.534 53.1678 52.3266 53.9606C53.1192 54.7533 53.565 55.8282 53.566 56.9492C53.5648 58.0701 53.119 59.1448 52.3264 59.9374C51.5338 60.73 50.4591 61.1758 49.3382 61.177ZM42.5732 59.485C41.9007 59.4842 41.256 59.2167 40.7805 58.7412C40.305 58.2656 40.0375 57.6209 40.0367 56.9485C40.0373 56.2759 40.3047 55.6311 40.7803 55.1555C41.2558 54.68 41.9007 54.4126 42.5732 54.412C43.0367 54.412 43.4702 54.5387 43.8445 54.757C43.5639 55.4538 43.4193 56.198 43.4185 56.9492C43.4185 57.724 43.5722 58.462 43.8445 59.1407C43.4588 59.3664 43.02 59.4852 42.5732 59.485ZM29.0432 18.0497C29.0432 13.8535 25.6292 10.4395 21.433 10.4395C17.2367 10.4395 13.822 13.8535 13.822 18.0497C13.822 18.7075 13.915 19.3427 14.0725 19.9525C11.9747 20.5757 10.4395 22.5175 10.4395 24.8147C10.441 26.1599 10.9761 27.4495 11.9273 28.4006C12.8784 29.3518 14.168 29.8869 15.5132 29.8885C18.0437 29.8885 20.1407 28.0255 20.5195 25.6C20.8195 25.636 21.1232 25.66 21.4322 25.66C25.6292 25.6607 29.0432 22.2467 29.0432 18.0497ZM21.4322 23.9695C21.1135 23.9695 20.803 23.9372 20.4977 23.8885C20.186 23.8398 19.8788 23.7661 19.579 23.668C18.464 23.2957 17.4839 22.6021 16.762 21.6745C16.5106 21.3512 16.2937 21.0025 16.1147 20.6342C15.7164 19.831 15.5102 18.9462 15.5125 18.0497C15.5125 14.7857 18.169 12.1307 21.4315 12.1307C24.6955 12.1307 27.3512 14.7857 27.3512 18.0497C27.352 21.3137 24.6962 23.9695 21.4322 23.9695ZM15.5132 28.1972C14.6164 28.1962 13.7566 27.8395 13.1225 27.2054C12.4884 26.5713 12.1317 25.7115 12.1307 24.8147C12.132 24.0638 12.3829 23.3346 12.844 22.742C13.3051 22.1493 13.9502 21.7268 14.6777 21.541C15.5644 23.247 17.0617 24.5561 18.871 25.207C18.7742 26.0299 18.379 26.7889 17.7602 27.34C17.1413 27.8911 16.3419 28.1961 15.5132 28.1972ZM57.7667 32.4452C57.3385 25.3682 51.4472 19.741 44.2645 19.741C37.0877 19.741 31.201 25.3585 30.7637 32.4265L30.7345 32.425C27.004 32.425 23.9695 35.4595 23.9695 39.19C23.9695 42.9205 27.004 45.955 30.7345 45.955C32.707 45.955 34.4792 45.1007 35.7175 43.7492C38.1275 45.7247 41.1482 46.803 44.2645 46.8002C47.137 46.8002 49.801 45.898 51.994 44.365C53.3117 45.8545 55.231 46.8002 57.3715 46.8002C61.3345 46.8002 64.5595 43.576 64.5595 39.6122C64.5595 35.7835 61.546 32.6522 57.7667 32.4452ZM57.3715 45.1097C56.6082 45.1092 55.8535 44.9493 55.1556 44.6401C54.4578 44.3309 53.8323 43.8793 53.3192 43.3142C53.1288 43.1083 52.9543 42.8881 52.7972 42.6557C52.6349 42.4107 52.4929 42.1529 52.3727 41.8847C52.0454 41.172 51.8755 40.3972 51.8747 39.613C51.8747 37.036 53.6597 34.873 56.0567 34.282C56.3387 34.2118 56.6259 34.1642 56.9155 34.1395C57.0662 34.1267 57.2177 34.1162 57.3715 34.1162C57.5035 34.1162 57.634 34.1267 57.7637 34.1357C60.6115 34.3382 62.8682 36.7142 62.8682 39.6122C62.8682 42.6445 60.4022 45.1097 57.3715 45.1097ZM44.2645 45.1097C41.1973 45.1123 38.25 43.9187 36.049 41.7827C34.0224 39.8362 32.7577 37.2299 32.4827 34.4335C32.4535 34.1327 32.4377 33.8275 32.4317 33.5207C32.4295 33.4367 32.425 33.3542 32.425 33.271C32.425 33.0632 32.431 32.857 32.4415 32.6522C32.7647 26.4107 37.9435 21.4322 44.2637 21.4322C50.5487 21.4322 55.7035 26.3552 56.0785 32.548C52.7305 33.16 50.1827 36.091 50.1827 39.6137C50.1827 40.8302 50.4895 41.9755 51.025 42.9812C49.0438 44.3686 46.6831 45.1118 44.2645 45.1097ZM30.7345 44.2645C29.3892 44.2631 28.0995 43.7281 27.1483 42.7769C26.1971 41.8256 25.6621 40.5359 25.6607 39.1907C25.6621 37.8455 26.1971 36.5558 27.1483 35.6046C28.0995 34.6533 29.3892 34.1183 30.7345 34.117L30.7637 34.1185C30.9619 37.2963 32.2784 40.3015 34.48 42.6017C34.0063 43.1249 33.4283 43.5431 32.7832 43.8295C32.1381 44.1159 31.4402 44.264 30.7345 44.2645ZM41.728 17.2045C42.6248 17.2037 43.4847 16.847 44.1189 16.2129C44.753 15.5787 45.1097 14.7188 45.1105 13.822C45.1097 12.9251 44.753 12.0652 44.1189 11.431C43.4847 10.7969 42.6248 10.4402 41.728 10.4395C40.8312 10.4404 39.9714 10.7971 39.3373 11.4313C38.7031 12.0654 38.3464 12.9252 38.3455 13.822C38.3462 14.7188 38.7029 15.5787 39.337 16.2129C39.9712 16.847 40.8311 17.2037 41.728 17.2045ZM41.728 12.1307C42.6602 12.1307 43.4192 12.8897 43.4192 13.822C43.4192 14.7542 42.6602 15.5132 41.728 15.5132C40.7957 15.5132 40.0367 14.755 40.0367 13.822C40.0367 12.889 40.7957 12.1307 41.728 12.1307ZM44.2645 23.1242H45.1097V24.8155H44.2645C39.6017 24.8155 35.8082 28.609 35.8082 33.2717V34.1177H34.117V33.2717C34.117 27.676 38.6687 23.1242 44.2645 23.1242ZM21.4322 20.587H22.2782V22.2782H21.4322C20.8119 22.2775 20.1995 22.1394 19.639 21.874C18.9185 21.5343 18.3078 20.9993 17.8765 20.3297C17.4373 19.6506 17.2037 18.8592 17.2037 18.0505V17.2045H18.895V18.0497C18.8957 18.7224 19.1633 19.3673 19.639 19.8429C20.1146 20.3186 20.7595 20.5862 21.4322 20.587ZM59.4857 38.7677H61.177V39.6137C61.1758 40.6226 60.7744 41.5899 60.061 42.3033C59.3476 43.0167 58.3804 43.418 57.3715 43.4192H56.5255V41.728H57.3715C57.932 41.7274 58.4694 41.5044 58.8658 41.108C59.2622 40.7117 59.4851 40.1743 59.4857 39.6137V38.7677Z"></path>
</svg>