<svg xmlns="http://www.w3.org/2000/svg" fill="none" viewBox="0 0 76 75" height="75" width="76">
<path fill="white" d="M32.1429 75.0006C49.8949 75.0006 64.2857 60.6097 64.2857 42.8577C64.2857 25.1057 49.8949 10.7148 32.1429 10.7148C14.3908 10.7148 0 25.1057 0 42.8577C0 60.6097 14.3908 75.0006 32.1429 75.0006ZM32.1429 72.8577C48.7114 72.8577 62.1429 59.4262 62.1429 42.8577C62.1429 26.2892 48.7114 12.8577 32.1429 12.8577C15.5743 12.8577 2.14286 26.2892 2.14286 42.8577C2.14286 59.4262 15.5743 72.8577 32.1429 72.8577Z" clip-rule="evenodd" fill-rule="evenodd"></path>
<path fill="white" d="M14.623 17.6318C19.9251 7.17035 30.781 0 43.3117 0C61.0637 0 75.4545 14.3908 75.4545 32.1429C75.4545 45.3829 67.4494 56.7532 56.0152 61.6778C56.8364 60.5622 57.5863 59.3873 58.258 58.1603C67.2546 52.9809 73.3116 43.2692 73.3116 32.1429C73.3116 15.5743 59.8802 2.14286 43.3116 2.14286C33.0636 2.14286 24.0158 7.28132 18.604 15.1223C17.211 15.8532 15.8805 16.6933 14.623 17.6318Z" clip-rule="evenodd" fill-rule="evenodd"></path>
<path fill="white" d="M14.764 60.0006C14.5986 60.0005 14.4369 59.9555 14.2994 59.8713C14.1619 59.787 14.0547 59.6673 13.9914 59.5272C13.9281 59.3871 13.9115 59.233 13.9438 59.0843C13.9761 58.9356 14.0557 58.799 14.1726 58.6917L25.3469 48.4489C25.424 48.3757 25.5163 48.3173 25.6184 48.2771C25.7204 48.2369 25.8302 48.2158 25.9412 48.2149C26.0523 48.214 26.1624 48.2334 26.2652 48.2719C26.368 48.3105 26.4614 48.3674 26.5399 48.4394C26.6184 48.5114 26.6805 48.597 26.7226 48.6912C26.7646 48.7855 26.7858 48.8864 26.7848 48.9882C26.7839 49.09 26.7608 49.1907 26.717 49.2842C26.6731 49.3778 26.6094 49.4624 26.5295 49.5331L15.3553 59.7767C15.2776 59.8478 15.1854 59.9042 15.084 59.9427C14.9825 59.9811 14.8737 60.0008 14.764 60.0006Z"></path>
<path fill="white" d="M14.737 61.072C14.6262 61.0721 14.5164 61.0495 14.4147 61.0054C14.313 60.9613 14.2214 60.8968 14.1457 60.8159C14.07 60.7349 14.0117 60.6392 13.9745 60.5348C13.9374 60.4303 13.9221 60.3194 13.9296 60.2088L14.2718 55.1685C14.3018 54.7211 14.6788 54.3975 15.1342 54.4145C15.2403 54.4217 15.3439 54.4497 15.4391 54.4969C15.5343 54.5442 15.6193 54.6097 15.6891 54.6898C15.759 54.7699 15.8124 54.863 15.8463 54.9637C15.8802 55.0645 15.8939 55.1709 15.8866 55.2769L15.6067 59.3933L19.723 59.1133C19.9367 59.1002 20.147 59.1718 20.3083 59.3126C20.4696 59.4535 20.5688 59.6522 20.5846 59.8657C20.5919 59.9718 20.5782 60.0782 20.5443 60.1789C20.5104 60.2797 20.457 60.3727 20.3871 60.4528C20.3172 60.5329 20.2323 60.5985 20.1371 60.6457C20.0419 60.6929 19.9383 60.721 19.8322 60.7281L14.792 61.0704L14.737 61.072ZM37.6582 38.1514C37.4982 38.1514 37.3418 38.1039 37.2088 38.015C37.0758 37.9261 36.9721 37.7998 36.9109 37.652C36.8497 37.5042 36.8337 37.3415 36.8649 37.1846C36.8961 37.0277 36.9731 36.8836 37.0862 36.7704L47.8939 25.9618C47.9686 25.8846 48.0578 25.8229 48.1565 25.7805C48.2552 25.7381 48.3614 25.7158 48.4688 25.7149C48.5762 25.7139 48.6828 25.7344 48.7822 25.7751C48.8816 25.8158 48.972 25.8758 49.0479 25.9518C49.1239 26.0278 49.184 26.1181 49.2246 26.2175C49.2653 26.3169 49.2858 26.4235 49.2848 26.5309C49.2839 26.6383 49.2616 26.7445 49.2192 26.8432C49.1768 26.9419 49.1152 27.0312 49.0379 27.1058L38.2294 37.9144C38.1544 37.9895 38.0654 38.0492 37.9674 38.0898C37.8694 38.1305 37.7643 38.1514 37.6582 38.1514Z"></path>
<path fill="white" d="M48.1757 32.1434C48.1578 32.1434 48.1398 32.1434 48.121 32.1419C47.9145 32.1276 47.7221 32.032 47.5861 31.876C47.45 31.72 47.3814 31.5164 47.3954 31.3099L47.6648 27.3351L43.6912 27.6054C43.2537 27.6211 42.8881 27.3094 42.8592 26.8789C42.8522 26.7765 42.8655 26.6738 42.8982 26.5765C42.9309 26.4792 42.9825 26.3894 43.0499 26.312C43.1174 26.2347 43.1994 26.1714 43.2914 26.1258C43.3833 26.0802 43.4833 26.0531 43.5857 26.0462L48.4522 25.7157C48.6772 25.7056 48.8975 25.7829 49.0576 25.9423C49.1364 26.0212 49.1974 26.116 49.2365 26.2205C49.2755 26.3249 49.2918 26.4365 49.2842 26.5477L48.9537 31.4146C48.9405 31.612 48.8528 31.7971 48.7084 31.9323C48.564 32.0676 48.3736 32.1431 48.1757 32.1434Z"></path>
</svg>