<svg xmlns="http://www.w3.org/2000/svg" fill="none" viewBox="0 0 75 75" height="75" width="75">
<path fill="white" d="M37.4999 5.95117C31.2602 5.95117 25.1606 7.80147 19.9724 11.2681C14.7842 14.7347 10.7405 19.662 8.35269 25.4267C5.96484 31.1915 5.34007 37.5349 6.55739 43.6548C7.7747 49.7746 10.7794 55.3961 15.1916 59.8083C19.6038 64.2204 25.2252 67.2252 31.3451 68.4425C37.4649 69.6598 43.8083 69.035 49.5731 66.6472C55.3379 64.2593 60.2651 60.2156 63.7318 55.0275C67.1984 49.8393 69.0487 43.7397 69.0487 37.4999C69.0394 29.1355 65.7125 21.1164 59.798 15.2019C53.8834 9.28737 45.8643 5.9605 37.4999 5.95117ZM37.4999 66.7987C31.7052 66.7987 26.0406 65.0803 21.2224 61.8609C16.4043 58.6416 12.649 54.0657 10.4314 48.7121C8.21387 43.3584 7.63365 37.4674 8.76415 31.784C9.89465 26.1006 12.6851 20.8801 16.7826 16.7826C20.8801 12.6851 26.1006 9.89464 31.784 8.76414C37.4674 7.63364 43.3584 8.21385 48.7121 10.4314C54.0657 12.649 58.6416 16.4043 61.861 21.2224C65.0803 26.0406 66.7987 31.7052 66.7987 37.4999C66.79 45.2678 63.7003 52.7149 58.2076 58.2076C52.7149 63.7003 45.2678 66.7899 37.4999 66.7987Z"></path>
<path fill="white" d="M37.5006 22.7676C34.5867 22.7676 31.7382 23.6317 29.3154 25.2505C26.8925 26.8694 25.0042 29.1704 23.8891 31.8625C22.774 34.5546 22.4822 37.5169 23.0507 40.3748C23.6192 43.2328 25.0223 45.8579 27.0828 47.9184C29.1432 49.9788 31.7684 51.382 34.6263 51.9505C37.4842 52.519 40.4466 52.2272 43.1387 51.1121C45.8308 49.997 48.1317 48.1086 49.7506 45.6858C51.3695 43.263 52.2336 40.4145 52.2336 37.5006C52.2292 33.5945 50.6756 29.8496 47.9136 27.0876C45.1515 24.3256 41.4067 22.7719 37.5006 22.7676ZM37.5006 49.9836C35.0317 49.9836 32.6182 49.2515 30.5654 47.8798C28.5126 46.5082 26.9126 44.5586 25.9678 42.2776C25.023 39.9966 24.7758 37.4867 25.2574 35.0653C25.7391 32.6438 26.928 30.4195 28.6738 28.6738C30.4196 26.928 32.6438 25.7391 35.0653 25.2574C37.4867 24.7758 39.9967 25.023 42.2776 25.9678C44.5586 26.9126 46.5082 28.5126 47.8798 30.5654C49.2515 32.6182 49.9836 35.0317 49.9836 37.5006C49.98 40.8102 48.6637 43.9832 46.3235 46.3234C43.9832 48.6637 40.8102 49.98 37.5006 49.9836Z"></path>
</svg>