<svg width="50" height="44" viewBox="0 0 50 44" fill="none" xmlns="http://www.w3.org/2000/svg">
<path d="M22.68 20.2C29.6 16.2 34.18 11.17 32.9 8.95C31.62 6.74 24.97 8.18 18.05 12.18C11.13 16.18 6.55 21.21 7.83 23.43C9.11 25.64 15.76 24.2 22.68 20.2Z" stroke="black" stroke-miterlimit="10" stroke-linecap="round"></path>
<path d="M32.41 34.73C45.28 27.3 52.42 15.58 48.36 8.55C44.3 1.52 30.58 1.84 17.72 9.27C4.84998 16.7 -2.29002 28.42 1.76998 35.45C5.82998 42.48 19.55 42.16 32.41 34.73Z" stroke="black" stroke-miterlimit="10" stroke-linecap="round"></path>
<path d="M43.6399 4.63C43.9099 4.93 44.1399 5.25 44.3399 5.59C47.5299 11.12 40.4599 21.18 28.5499 28.05C27.5899 28.6 26.6399 29.11 25.6899 29.59" stroke="black" stroke-miterlimit="10" stroke-linecap="round"></path>
<path d="M12.87 33.78C7.31999 34.54 2.93999 33.48 1.20999 30.49C1.00999 30.15 0.85999 29.8 0.73999 29.44" stroke="black" stroke-miterlimit="10" stroke-linecap="round"></path>
</svg>
