<svg viewBox="0 0 2133 400" version="1.1" xmlns="http://www.w3.org/2000/svg" id="Layer_1">
  
  <defs>
    <style>
      .st0 {
        fill: #fdfefd;
      }

      .st1 {
        fill: #00b67a;
      }

      .st2 {
        fill: #fdfefe;
      }
    </style>
  </defs>
  <rect height="400" width="400" class="st1"></rect>
  <rect height="400" width="400" x="433.5" class="st1"></rect>
  <rect height="400" width="400" x="866.5" class="st1"></rect>
  <rect height="400" width="400" x="1299.8" class="st1"></rect>
  <rect height="400" width="400" x="1733" class="st1"></rect>
  <path d="M1733,0h400v400h-400V0Z" class="st1"></path>
  <path d="M0,0h400v400H0V0Z" class="st1"></path>
  <path d="M199,68h2q7.7,22.8,10.3,32c2.8,9.9,6.3,19.6,9.7,29.3,2.6,7.5,5,15,7.1,22.6,1.2,4.1,2.6,8,4.2,12q.7,2.1.7,4.1h107q-5.6,5.6-8.6,7.7c-.7.5-1.3.9-2,1.4-.7.5-1.4,1-2.1,1.5-1.5,1.1-3.1,2.1-4.6,3.2-.8.5-1.6,1.1-2.4,1.7-3.8,2.7-7.5,5.4-11.3,8.1-.7.5-1.5,1.1-2.3,1.6-1.5,1.1-3,2.2-4.5,3.3-3.8,2.7-7.5,5.4-11.3,8.1-1.5,1.1-3,2.1-4.5,3.2-3.1,2.3-6.3,4.5-9.4,6.8-.8.6-1.6,1.2-2.4,1.7-1.5,1.1-3,2.2-4.5,3.3-.7.5-1.4,1-2.1,1.5-.7.5-1.3,1-2,1.5-2.8,2.1-5.6,4.2-8.4,6.4q-1.7,1.1-3.7,1.1c4.5,15.3,9.5,30.4,14.7,45.5,2.7,7.7,5.1,15.3,7.3,23.1,2,7,4.5,13.7,7,20.6.4,1.1.8,2.2,1.2,3.3q.5,1.5,1.1,3t.8,5.5c-2.7-1.3-5.1-2.7-7.5-4.4q-1-.7-2-1.4c-.7-.5-1.4-1-2.1-1.5-.7-.5-1.5-1.1-2.3-1.6-7.6-5.4-15.2-10.9-22.8-16.4-3.8-2.7-7.5-5.4-11.3-8.1-5.4-3.9-10.8-7.8-16.2-11.7-2.3-1.6-4.5-3.3-6.8-4.9-2.4-1.7-4.8-3.5-7.2-5.4-.9-.7-1.7-1.3-2.6-2-.7-.6-1.4-1.1-2.1-1.7q-2-1.1-4.3-.4c-3.9,2.1-7.4,4.7-10.9,7.3-1.6,1.2-3.2,2.4-4.9,3.6-.8.6-1.6,1.2-2.5,1.8-3.8,2.8-7.6,5.5-11.5,8.3-1.5,1.1-3,2.2-4.5,3.2q-9,6.5-11.3,8.1c-1.5,1.1-3,2.2-4.5,3.2-3.9,2.8-7.7,5.6-11.6,8.4-.8.6-1.6,1.2-2.4,1.7-1.5,1.1-3,2.2-4.5,3.3-.7.5-1.4,1-2.1,1.5q-1,.7-2,1.5c-2.8,2.1-5.6,4.2-8.4,6.4q-1.7,1.1-3.7,1.1c1.5-7.9,4.1-15.4,6.8-23,2.9-8.3,5.8-16.7,8.1-25.2,2.6-9.2,5.9-18.1,9-27.1,3-8.5,5.6-17,8-25.7-.6-.3-1.2-.6-1.8-.9-2-1.1-3.8-2.2-5.7-3.5-.7-.5-1.3-.9-2-1.4-.7-.5-1.4-1-2.1-1.5-.7-.5-1.5-1.1-2.3-1.6-7.6-5.4-15.2-10.9-22.8-16.4-3.8-2.7-7.5-5.4-11.3-8.1-1.5-1.1-3-2.2-4.5-3.2-3.9-2.8-7.8-5.6-11.6-8.4-2.3-1.6-4.5-3.3-6.8-4.9-2.6-1.8-5.1-3.7-7.7-5.5-1-.7-2-1.4-3.1-2.2-.9-.6-1.7-1.2-2.6-1.9-.6-.5-1.2-.9-1.8-1.4v-1h107c1-3.6,2-7.3,3-11,1-2.6,1.9-5.3,2.9-7.9,1.2-3.4,2.2-6.8,3.1-10.3,2.5-8.7,5.5-17.3,8.4-25.8,3.4-9.8,6.7-19.6,9.5-29.5,1.5-5.2,3.2-10.3,5-15.5Z" class="st2"></path>
  <path d="M1932,68h2c2.5,7.4,5,14.9,7.1,22.4,2.9,10.1,6.4,19.9,9.9,29.8,2.6,7.4,5,14.9,7.1,22.5,1.4,4.7,3,9.4,4.7,14,.6,1.7,1.2,3.4,1.9,5.2.3.7.5,1.5.8,2.2q.6,1.8.6,3.8h107q-5.6,5.6-9.2,8-1.2.8-2.3,1.6c-.8.5-1.6,1.1-2.5,1.6-6.8,4.6-13.3,9.3-19.7,14.3-4.4,3.4-9,6.6-13.6,9.8-5.3,3.7-10.6,7.5-15.9,11.4-7.2,5.2-14.4,10.3-21.8,15.3.6,6.1,2,11.5,4,17.3.3.9.6,1.7.9,2.6,1,2.8,1.9,5.5,2.9,8.2,1.3,3.6,2.5,7.2,3.8,10.8.3.9.6,1.8.9,2.7,2,5.9,3.8,11.8,5.5,17.9,2.4,8.1,5.3,16.1,8.1,24.1.8,2.3,1.6,4.6,2.4,7,.2.7.5,1.4.8,2.1,1,2.9,1.7,5.2,1.7,8.3-4.3-1.4-7.2-3.6-10.8-6.4-5-4-10.2-7.8-15.4-11.4-5.9-4.2-11.9-8.4-17.8-12.6-.7-.5-1.5-1.1-2.3-1.6-1.5-1.1-3-2.2-4.5-3.3-2.3-1.7-4.6-3.3-6.9-5-.8-.6-1.5-1.1-2.3-1.7-1.5-1.1-3-2.2-4.5-3.3-3.6-2.6-7.1-5.1-10.6-7.8-.6-.5-1.3-1-1.9-1.5-1.2-.9-2.4-1.8-3.5-2.7q-1.7-1.4-4.5-2.7c-3.5,1.1-6.2,2.7-9.2,4.9-.8.6-1.5,1.1-2.3,1.7-.8.6-1.6,1.2-2.5,1.9-1.7,1.3-3.4,2.6-5.1,3.8-.8.6-1.7,1.3-2.5,1.9-3.1,2.3-6.3,4.6-9.4,6.8-5.2,3.7-10.5,7.5-15.7,11.2q-1.1.8-2.3,1.6c-1.5,1.1-3.1,2.2-4.6,3.3-2.4,1.7-4.7,3.4-7.1,5.1-.8.6-1.6,1.1-2.4,1.7-1.5,1.1-3.1,2.2-4.6,3.3-3.3,2.4-6.6,4.7-9.8,7.1q-1.5,1.1-3,2.2c-.8.6-1.7,1.3-2.5,1.9q-2,1.3-4,1.3c1.2-6,2.8-11.8,4.9-17.6.3-.8.5-1.6.8-2.4.9-2.5,1.7-5,2.6-7.5,3.5-10,6.9-20,9.8-30.3,1.4-5,3-9.8,4.7-14.7q.4-1,.7-2.1c1-2.8,2-5.6,3-8.3.7-2.1,1.5-4.1,2.2-6.2.4-1.2.9-2.4,1.3-3.7.9-3,1.4-5.1.9-8.2q-1.5-1.7-3.7-3t-2.4-1.6c-.9-.5-1.7-1.1-2.6-1.6-1.8-1.2-3.5-2.3-5.3-3.5-.9-.6-1.7-1.1-2.6-1.7-3.1-2.1-6.1-4.3-9-6.7-5.5-4.3-11.1-8.3-16.7-12.3-6.7-4.7-13.4-9.5-20-14.3-3.2-2.3-6.5-4.7-9.7-7-.8-.6-1.7-1.2-2.5-1.8-1.6-1.2-3.2-2.3-4.8-3.5-.7-.5-1.4-1-2.2-1.6q-1-.7-1.9-1.4-.7-.5-1.4-1.1v-1h107c1-3.6,2-7.3,3-11,1.1-3.2,2.2-6.4,3.4-9.6,2.4-6.7,4.5-13.3,6.4-20.1,2.3-7.9,5-15.6,7.7-23.3,3.8-10.9,7.4-21.9,10.5-33,.3-1,.7-2,1-3Z" class="st0"></path>
  <path d="M632,68c2.8,3.3,4,6.4,5.3,10.5.2.6.4,1.3.6,1.9.4,1.3.9,2.7,1.3,4,.6,2,1.3,4,2,6,2,6.2,4,12.3,5.7,18.6,2.3,8.3,5.2,16.5,8.1,24.6,3.3,9.6,6.6,19.1,9.2,28.9q.7,2.6,1.8,4.6c35.3.3,70.6.7,107,1-2.6,2.6-4.6,4.5-7.5,6.6-.7.5-1.3.9-2,1.4q-1.1.7-2.1,1.5c-1.5,1.1-3.1,2.1-4.6,3.2-.8.6-1.6,1.1-2.4,1.7-3.8,2.7-7.6,5.4-11.3,8.1-.7.5-1.5,1.1-2.3,1.6-1.5,1.1-3,2.2-4.5,3.3-3.8,2.7-7.5,5.4-11.3,8.1-1.5,1.1-3,2.2-4.5,3.2-3.1,2.2-6.2,4.5-9.3,6.7-8.1,5.8-16.2,11.7-24.3,17.6.4,1.1.8,2.3,1.2,3.4.5,1.6,1.1,3.1,1.6,4.7.3.7.5,1.5.8,2.2,1.6,4.7,3,9.4,4.3,14.2,2.4,8.4,5.3,16.7,8.2,25,3.3,9.4,6.4,18.8,9.1,28.4,1.4,4.9,3.2,9.7,5,14.5q2,5.3.8,8.6c-1-.8-2-1.5-3-2.3-7.7-5.8-15.4-11.5-23.3-17.1-4.2-3-8.3-5.9-12.4-8.9-.8-.5-1.5-1.1-2.3-1.7-1.5-1.1-3.1-2.2-4.6-3.4-2.3-1.6-4.6-3.3-6.8-4.9-.7-.5-1.5-1.1-2.2-1.6-1.5-1.1-3-2.1-4.5-3.2-4-2.8-7.9-5.7-11.7-8.7-.8-.6-1.6-1.2-2.5-1.9-1.6-1.2-3.1-2.4-4.7-3.6q-3.8-3.1-8.5-3.5c-3.3,2.3-6.5,4.6-9.7,7.1-5.6,4.3-11.3,8.5-17.1,12.6-8.2,5.7-16.3,11.6-24.3,17.4-2.3,1.7-4.7,3.4-7,5.1-8.5,6.1-16.9,12.3-25.3,18.6-1.2-3.7-.6-4.8.7-8.4.4-1.1.8-2.2,1.2-3.3.4-1.1.8-2.3,1.3-3.5,2.8-7.9,5.5-15.8,7.8-23.9,2.2-7.8,4.9-15.4,7.6-23q7.2-19.6,11.5-40-1.5-1.1-3.1-2.2c-9.9-7-19.8-14.1-29.6-21.2-3.8-2.7-7.5-5.4-11.3-8.1-4.5-3.3-9.1-6.6-13.6-9.9-.8-.6-1.5-1.1-2.3-1.7-1.5-1.1-3-2.2-4.5-3.3-3.6-2.6-7.2-5.2-10.8-7.7-.7-.5-1.3-.9-2-1.4-1.2-.9-2.5-1.7-3.7-2.6-1.4-1-2.7-2-4.1-3v-1c35.3-.3,70.6-.7,107-1q3.3-9.1,6.1-18.2c2.5-8.7,5.5-17.3,8.4-25.8,3.3-9.6,6.6-19.1,9.3-28.9,2.5-8.8,5.4-17.4,8.2-26.1Z" class="st0"></path>
  <path d="M1499,68c2.9,2.9,3.4,6.3,4.4,10.1,3.1,10.9,6.8,21.6,10.6,32.3,2.6,7.3,4.9,14.6,6.9,22.1,2,7,4.5,13.8,7,20.7.7,1.9,1.3,3.8,2,5.7q.6,1.7,1.2,3.4t.9,5.8h107c-3.8,3.8-6.9,6.5-11.2,9.5-1.2.9-2.5,1.8-3.7,2.6-.7.5-1.3.9-2,1.4-3.6,2.6-7.2,5.2-10.8,7.8-1.5,1.1-3.1,2.2-4.6,3.3-.8.6-1.5,1.1-2.3,1.7-3.8,2.7-7.5,5.4-11.3,8.2-1.5,1.1-3,2.2-4.5,3.2-3.1,2.2-6.2,4.5-9.3,6.7q-1.2.8-2.4,1.7c-1.5,1.1-3.1,2.2-4.6,3.3-3.3,2.4-6.6,4.7-9.8,7.1-1,.7-2,1.5-3,2.2-.8.6-1.7,1.3-2.5,1.9q-2,1.3-4,1.3c.4,1.1.7,2.2,1.1,3.4,1.4,4.2,2.8,8.4,4.2,12.5.6,1.8,1.2,3.6,1.8,5.4q5.7,16.8,7.9,24.9c2.5,9,5.7,17.8,8.8,26.7,3.3,9.3,6.2,18.5,8.1,28.2-5.4-3-10.3-6.3-15.3-9.9-1.6-1.2-3.2-2.3-4.8-3.5-.8-.6-1.6-1.2-2.5-1.8-3.8-2.8-7.6-5.5-11.4-8.3-1.5-1.1-3-2.2-4.5-3.2-.7-.5-1.5-1.1-2.2-1.6q-6.8-4.9-9-6.5c-1.5-1.1-3-2.2-4.5-3.2-3.9-2.8-7.8-5.6-11.7-8.5-.8-.6-1.6-1.2-2.4-1.8-1.5-1.1-3.1-2.2-4.6-3.3-4.2-3.1-8.5-5.8-13.1-8.3-11,7.7-21.9,15.5-32.7,23.4-4.5,3.3-9,6.5-13.5,9.8-3.8,2.8-7.6,5.5-11.4,8.3-8.7,6.3-17.4,12.5-26.3,18.6-1.1-3.2-.9-5,.2-8.1.3-.8.6-1.6.9-2.4q.5-1.2.9-2.5c.5-1.6,1.1-3.2,1.6-4.8.6-1.7,1.2-3.4,1.8-5.1.7-1.9,1.3-3.8,2-5.7,1-2.9,2-5.9,3-8.8,3.5-10.2,6.9-20.3,9.9-30.7,2-6.9,4.2-13.7,6.5-20.5.4-1.2.8-2.4,1.2-3.7,1-2.9,2-5.8,3-8.8q-1.2-.4-2.3-.9c-3.3-1.4-5.6-3.3-8.4-5.5-5-4-10.2-7.8-15.4-11.4-8.2-5.8-16.4-11.6-24.5-17.5-3.1-2.2-6.1-4.4-9.2-6.6-3-2.1-5.9-4.3-8.9-6.4-1.5-1.1-3-2.1-4.4-3.2-2.1-1.5-4.3-3.1-6.4-4.6q-1-.7-2-1.4c-1.5-1.1-3-2.2-4.4-3.3v-1h107c.7-3,1.3-5.9,2-9,.8-2.4,1.6-4.9,2.4-7.3q.3-1,.7-2c.5-1.4,1-2.8,1.4-4.1q4.8-13.5,8.9-27.1c2.8-9.8,6.2-19.5,9.6-29.1,2.5-7.1,4.9-14.2,6.9-21.4Z" class="st0"></path>
  <path d="M1065,71h2c1.9,5.6,3.8,11.2,5.8,16.7.7,1.9,1.3,3.8,2,5.7,3.3,9.6,6.5,19.3,9.3,29.1,2.4,8,5.3,15.9,8,23.8.8,2.3,1.6,4.6,2.4,6.9.2.7.5,1.4.7,2.1,1.5,4.4,2.2,8.1,2.8,12.8h107q-5.6,5.6-8.8,7.9c-.7.5-1.4,1-2.1,1.5-.7.5-1.5,1.1-2.3,1.6-1.6,1.2-3.2,2.3-4.9,3.5-.8.6-1.6,1.2-2.5,1.8-3.8,2.7-7.6,5.5-11.5,8.3-1.5,1.1-3,2.2-4.5,3.2-.7.5-1.5,1.1-2.2,1.6l-6.8,4.9c-.7.5-1.5,1.1-2.3,1.6-1.5,1.1-3,2.2-4.5,3.2-3.9,2.8-7.8,5.6-11.7,8.4-.8.6-1.6,1.2-2.4,1.8-1.5,1.1-3.1,2.2-4.6,3.3-1.4,1-2.8,2-4.1,3-1.3,1-2.7,1.9-4,2.9q-4.8,3.5-7,3.5.4,1.2.9,2.4c1.1,3.1,2.1,6.1,3.2,9.2.5,1.3.9,2.6,1.4,3.9,2.4,6.7,4.6,13.4,6.5,20.3,2.3,8.3,5.2,16.5,8,24.6,3.7,10.4,7.1,20.8,10,31.5,1,3.3,2,6.7,3,10-6.6-4-12.7-8.2-18.8-13-4.4-3.4-8.9-6.7-13.4-9.9-8.2-5.8-16.4-11.6-24.5-17.5-2.4-1.7-4.8-3.5-7.2-5.2-.8-.6-1.6-1.2-2.4-1.7-1.5-1.1-3-2.2-4.5-3.3-4.8-3.4-9.5-6.9-14.2-10.5-2.7,1.3-5.1,2.7-7.5,4.4-.7.5-1.3.9-2,1.4-.7.5-1.4,1-2.1,1.5-.7.5-1.5,1.1-2.3,1.6-7.6,5.4-15.2,10.9-22.8,16.4-3.8,2.7-7.5,5.4-11.3,8.1-1.5,1.1-3,2.2-4.5,3.2-3.1,2.2-6.2,4.5-9.3,6.7-8.1,5.8-16.2,11.7-24.3,17.6q-1-2,0-5.3c.5-1.4,1.1-2.8,1.6-4.2,2.1-5.6,3.9-11.2,5.6-17,2.6-9.3,5.9-18.4,9.1-27.6,3.1-9,6.1-17.9,8.6-27.1,2.1-7,4.6-13.9,7.1-20.8-.7-.3-1.5-.5-2.2-.8-2.6-1.1-4.6-2.4-6.9-4.1-.8-.6-1.5-1.1-2.3-1.7-.8-.6-1.6-1.2-2.5-1.9-1.7-1.3-3.4-2.6-5.1-3.8-.8-.6-1.7-1.3-2.5-1.9-3.1-2.3-6.3-4.6-9.4-6.8-7.6-5.4-15.1-10.8-22.6-16.2-2.4-1.7-4.7-3.4-7.1-5.1-6.8-4.9-13.6-9.8-20.4-14.8q-1.4-1.1-2.9-2.1c-.7-.5-1.3-1.1-2-1.6v-1h107c.7-3.3,1.3-6.6,2-10,1-3.2,2-6.2,3.1-9.3.3-.9.6-1.7.9-2.6.9-2.7,1.9-5.4,2.8-8.1,3.7-10.6,7.3-21.1,10.4-31.9,2.1-7.3,4.6-14.5,7.1-21.6.5-1.3.9-2.6,1.4-4,1.1-3.2,2.2-6.3,3.3-9.5Z" class="st2"></path>
</svg>