<svg xmlns="http://www.w3.org/2000/svg" fill="none" viewBox="0 0 34 34" height="34" width="34">
<mask height="34" width="34" y="0" x="0" maskUnits="userSpaceOnUse" style="mask-type:alpha" id="mask0_972_10832">
<rect fill="#D9D9D9" height="34" width="34"></rect>
</mask>
<g mask="url(#mask0_972_10832)">
<path fill="#3E5FED" d="M15.5132 19.0269L12.9851 16.4988C12.847 16.3607 12.6844 16.2871 12.4974 16.2782C12.3102 16.269 12.1385 16.3425 11.9825 16.4988C11.8262 16.6549 11.748 16.8233 11.748 17.0042C11.748 17.1848 11.8262 17.3532 11.9825 17.5092L14.712 20.2473C14.9411 20.4761 15.2081 20.5905 15.5132 20.5905C15.8182 20.5905 16.0852 20.4761 16.3143 20.2473L22.0351 14.5261C22.1733 14.3882 22.2468 14.2244 22.2558 14.0345C22.265 13.8447 22.1914 13.6717 22.0351 13.5157C21.8791 13.3594 21.7106 13.2812 21.5297 13.2812C21.3491 13.2812 21.1808 13.3594 21.0247 13.5157L15.5132 19.0269ZM17.0007 29.5265C16.8717 29.5265 16.7364 29.5147 16.5948 29.4911C16.4531 29.4675 16.3205 29.432 16.197 29.3848C13.409 28.3223 11.1933 26.5202 9.54969 23.9785C7.90589 21.4365 7.08398 18.6853 7.08398 15.725V9.65773C7.08398 9.17653 7.22341 8.74067 7.50226 8.35015C7.7811 7.95962 8.13751 7.67628 8.57148 7.50015L16.1995 4.66681C16.4758 4.56694 16.7428 4.517 17.0007 4.517C17.2585 4.517 17.5255 4.56694 17.8018 4.66681L25.4298 7.50015C25.8638 7.67628 26.2202 7.95962 26.499 8.35015C26.7779 8.74067 26.9173 9.17653 26.9173 9.65773V15.725C26.9173 18.6853 26.0954 21.4365 24.4516 23.9785C22.808 26.5202 20.5923 28.3223 17.8043 29.3848C17.6808 29.432 17.5482 29.4675 17.4065 29.4911C17.2649 29.5147 17.1296 29.5265 17.0007 29.5265ZM17.0007 28.1916C19.4562 27.4125 21.4868 25.8541 23.0923 23.5166C24.6979 21.1791 25.5007 18.5819 25.5007 15.725V9.63046C25.5007 9.44889 25.4507 9.2855 25.3508 9.14029C25.251 8.99485 25.1102 8.88588 24.9287 8.81339L17.3003 5.98006C17.2096 5.9437 17.1097 5.92552 17.0007 5.92552C16.8916 5.92552 16.7917 5.9437 16.701 5.98006L9.07263 8.81339C8.89106 8.88588 8.75034 8.99485 8.65046 9.14029C8.55059 9.2855 8.50065 9.44889 8.50065 9.63046V15.725C8.50065 18.5819 9.30343 21.1791 10.909 23.5166C12.5145 25.8541 14.5451 27.4125 17.0007 28.1916Z"></path>
</g>
</svg>
