<svg width="38" height="38" viewBox="0 0 38 38" fill="none" xmlns="http://www.w3.org/2000/svg">
<path d="M32.3001 19C32.7601 20.39 33.0101 21.88 33.0101 23.43C33.0101 31.19 26.7301 37.47 18.9701 37.47C11.2101 37.47 4.93005 31.19 4.93005 23.43C4.93005 21.88 5.18005 20.39 5.64005 19" stroke="black" stroke-miterlimit="10" stroke-linecap="round"></path>
<path d="M30.29 23.06C30.29 29.31 25.23 34.37 18.98 34.37C12.73 34.37 7.67004 29.31 7.67004 23.06" stroke="black" stroke-miterlimit="10" stroke-linecap="round"></path>
<path d="M18.9799 28.61C26.7399 28.61 33.0199 22.33 33.0199 14.57C33.0199 6.81 26.7399 0.529999 18.9799 0.529999C11.2199 0.529999 4.93994 6.82 4.93994 14.57C4.93994 22.32 11.2199 28.61 18.9799 28.61Z" stroke="black" stroke-miterlimit="10" stroke-linecap="round"></path>
</svg>
