<svg width="50" height="44" viewBox="0 0 50 44" fill="none" xmlns="http://www.w3.org/2000/svg">
<g clip-path="url(#clip0_1_230)">
<path d="M25.13 10.15V2.57C25.13 1.46 24.23 0.559998 23.12 0.559998H11.11C9.99997 0.559998 9.09998 1.46 9.09998 2.57V10.16" stroke="black" stroke-miterlimit="10" stroke-linecap="round"></path>
<path d="M28.22 43.52V12.29C28.22 11.11 27.26 10.15 26.08 10.15H8.11998C6.93998 10.15 5.97998 11.11 5.97998 12.29V38.33" stroke="black" stroke-miterlimit="10" stroke-linecap="round"></path>
<path d="M27.52 5.43L29.38 5.13" stroke="black" stroke-miterlimit="10" stroke-linecap="round"></path>
<path d="M42.13 8.30999L32.6 6.67999" stroke="black" stroke-miterlimit="10" stroke-linecap="round" stroke-dasharray="3.22 3.22"></path>
<path d="M42.13 2.5L32.6 4.13" stroke="black" stroke-miterlimit="10" stroke-linecap="round" stroke-dasharray="3.22 3.22"></path>
<path d="M29.38 5.94L27.52 5.63" stroke="black" stroke-miterlimit="10" stroke-linecap="round"></path>
<path d="M23.35 5.53C23.35 6.69 24.29 7.62 25.44 7.62V3.44C24.28 3.44 23.35 4.38 23.35 5.53Z" fill="black"></path>
</g>
<defs>
<clipPath id="clip0_1_230">
<rect width="50" height="44" fill="white"></rect>
</clipPath>
</defs>
</svg>
