<svg width="50" height="44" viewBox="0 0 50 44" fill="none" xmlns="http://www.w3.org/2000/svg">
<path d="M40.51 22.03C41.05 23.65 41.34 25.38 41.34 27.18C41.34 36.19 34.04 43.49 25.03 43.49C16.02 43.49 8.71997 36.19 8.71997 27.18C8.71997 25.38 9.00997 23.65 9.54997 22.03" stroke="black" stroke-miterlimit="10" stroke-linecap="round"></path>
<path d="M38.17 26.75C38.17 34.01 32.29 39.89 25.03 39.89C17.77 39.89 11.89 34.01 11.89 26.75" stroke="black" stroke-miterlimit="10" stroke-linecap="round"></path>
<path d="M25.03 33.2C34.04 33.2 41.34 25.9 41.34 16.89C41.34 7.88 34.04 0.580002 25.03 0.580002C16.02 0.580002 8.71997 7.88 8.71997 16.89C8.71997 25.9 16.02 33.2 25.03 33.2Z" stroke="black" stroke-miterlimit="10" stroke-linecap="round"></path>
</svg>
