<svg width="67" height="17" viewBox="0 0 67 17" fill="none" xmlns="http://www.w3.org/2000/svg">
<g clip-path="url(#clip0_1_257)">
<path d="M23.0531 1.23759H34.1437V2.87639L26.193 13.4957C26.1408 13.566 26.1907 13.668 26.2793 13.668H34.373V15.7647H22.8284V14.1259L30.7791 3.50653C30.8313 3.43626 30.7814 3.33426 30.6928 3.33426H23.0531V1.23759Z" fill="#1D1D1F"></path>
<path d="M35.3562 2.35053C35.3562 1.53 35.9783 0.947464 36.7706 0.947464C37.563 0.947464 38.185 1.53 38.185 2.35053C38.185 3.17106 37.563 3.7536 36.7706 3.7536C35.9783 3.7536 35.3562 3.17106 35.3562 2.35053ZM35.6355 5.13853H37.8627V15.7647H35.6355V5.13853Z" fill="#1D1D1F"></path>
<path d="M41.2407 5.9704C41.3066 6.09733 41.4496 6.086 41.5132 6.0112C42.1103 5.31986 42.8822 5.032 44.3148 5.01386C45.6225 5.01386 46.6509 5.51706 47.298 6.732C47.3457 6.82266 47.4705 6.8272 47.5273 6.74106C48.2038 5.6916 49.2005 5.0116 51.1167 5.0116C53.0329 5.0116 55.2442 6.27866 55.2442 9.64013V15.7624H53.017V9.7784C53.017 7.88346 52.1383 7.04026 50.8125 7.04026C49.4866 7.04026 48.4036 7.9968 48.4036 9.67186V15.7647H46.1583V9.6492C46.1583 7.77693 45.3114 6.94506 43.8471 6.94506C42.3827 6.94506 41.3747 7.81093 41.3747 9.5064V15.7669H39.1475V5.13853H40.2849C41.0023 5.13853 41.1158 5.72106 41.243 5.9704H41.2407Z" fill="#1D1D1F"></path>
<path d="M65.9284 15.7647H67V10.3723C66.966 7.31906 64.4232 4.87106 61.3491 5.02066C58.5861 5.15666 56.3703 7.39386 56.2432 10.1751C56.1001 13.2849 58.4931 15.8508 61.5489 15.8508C64.6048 15.8508 63.8511 15.334 64.7297 14.7016C64.8205 14.6359 64.9181 14.6608 64.9386 14.7583C65.0498 15.1323 65.1928 15.7601 65.9284 15.7601V15.7647ZM61.8055 13.7519C59.8485 13.8516 58.2411 12.2332 58.3387 10.2612C58.425 8.55893 59.7713 7.20346 61.4627 7.11733C63.4197 7.0176 65.0271 8.636 64.9295 10.608C64.8432 12.3103 63.4969 13.6657 61.8055 13.7519Z" fill="#1D1D1F"></path>
<path d="M10.8251 1.1968C11.5925 2.4004 10.6434 3.06453 9.4379 3.83067C8.23235 4.5968 7.22886 5.17707 6.46148 3.97347C5.69411 2.76987 6.04828 1.17413 7.25383 0.405733C8.45711 -0.362668 10.0577 -0.00680079 10.8251 1.1968Z" fill="#1D1D1F"></path>
<path d="M15.9674 5.75053C15.5043 7.0992 14.3918 6.7728 13.041 6.3104C11.6901 5.848 10.6094 5.42413 11.0726 4.07546C11.5357 2.7268 13.0069 2.006 14.36 2.47066C15.7109 2.93306 16.4329 4.40186 15.9674 5.7528V5.75053Z" fill="#1D1D1F"></path>
<path d="M15.6064 12.6049C14.2601 13.0855 13.8242 12.0111 13.3429 10.6692C12.8615 9.32506 12.521 8.21893 13.865 7.74066C15.2114 7.26013 16.6916 7.9628 17.1707 9.30466C17.6497 10.6465 16.9482 12.1267 15.6041 12.6049H15.6064Z" fill="#1D1D1F"></path>
<path d="M10.0146 16.5988C8.79999 15.8463 9.36757 14.8376 10.1213 13.6249C10.8751 12.4123 11.5267 11.4557 12.7413 12.206C13.9559 12.9585 14.3305 14.5497 13.5768 15.7624C12.823 16.9751 11.2292 17.3491 10.0146 16.5965V16.5988Z" fill="#1D1D1F"></path>
<path d="M3.40094 14.722C3.23293 13.3053 4.37718 13.1195 5.79614 12.9495C7.21511 12.7817 8.37071 12.6933 8.54099 14.11C8.70899 15.5267 7.69642 16.8119 6.27746 16.9796C4.85849 17.1473 3.57121 16.1364 3.40321 14.7197L3.40094 14.722Z" fill="#1D1D1F"></path>
<path d="M0.746909 8.38893C1.7504 7.37346 2.61086 8.15093 3.62797 9.15279C4.64508 10.1547 5.43516 11.0024 4.4294 12.0179C3.42591 13.0333 1.78672 13.0424 0.769613 12.0405C-0.247499 11.0387 -0.256581 9.40213 0.746909 8.38666V8.38893Z" fill="#1D1D1F"></path>
<path d="M4.05023 2.37093C5.47146 2.5228 5.39881 3.67653 5.2467 5.09546C5.09458 6.5144 4.92431 7.65906 3.50308 7.5072C2.08184 7.35533 1.05338 6.08373 1.20322 4.6648C1.35533 3.24586 2.62899 2.21906 4.05023 2.36866V2.37093Z" fill="#1D1D1F"></path>
</g>
<defs>
<clipPath id="clip0_1_257">
<rect width="67" height="17" fill="white"></rect>
</clipPath>
</defs>
</svg>
